<?xml version="1.0" encoding="UTF-8"?>
<svg version="1.1" xmlns="http://www.w3.org/2000/svg" width="512" height="512">
<path d="M0 0 C7.51219195 5.81300568 12.5119175 14.62130176 14 24 C14.16998046 26.81631154 14.3008877 29.6188109 14.39453125 32.4375 C14.46078405 34.14155486 14.52796026 35.845574 14.59594727 37.54956055 C14.63084259 38.43976898 14.66573792 39.32997742 14.70169067 40.24716187 C15.47623109 59.48908382 17.30876081 78.19939274 20.54370117 97.19213867 C21.34752415 102.13851003 22.04879217 107.04543277 19.625 111.5625 C18 113 18 113 16 113 C16.99 117.62 17.98 122.24 19 127 C20.98 127.33 22.96 127.66 25 128 C28.05707209 130.13927561 28.7276299 132.66797631 29.6875 136.1875 C29.93886719 137.08855469 30.19023437 137.98960937 30.44921875 138.91796875 C30.72185547 139.94857422 30.72185547 139.94857422 31 141 C31.66 141 32.32 141 33 141 C34.36737454 139.61459415 35.66824564 138.16332379 36.9375 136.6875 C62.87798792 107.40118481 96.91921322 90.00023144 136.1875 87.3125 C159.57189503 86.01728393 189.01148842 88.67432561 209 102 C210.4783226 104.95664519 210.06032783 107.74229737 210 111 C210.86625 111.268125 211.7325 111.53625 212.625 111.8125 C215.91791964 112.97111987 218.91127875 114.38209839 222 116 C223.485 115.01 223.485 115.01 225 114 C231.19868479 112.8377466 234.81476517 115.22154032 239.89453125 118.67578125 C253.74993535 129.0455491 272.94137537 144.77840646 276 163 C276.71919258 170.81891417 277.25532303 178.66400491 272 185 C258.93922064 197.61854078 240.34932192 198.44198849 223.22257042 198.41069031 C220.49839713 198.40612288 217.77484371 198.4204592 215.05073547 198.43908691 C209.26299968 198.47548773 203.47533325 198.48950693 197.6875 198.5 C190.97791167 198.51218855 184.26863345 198.53421525 177.55918312 198.58000183 C174.91071575 198.5933152 172.2626676 198.58944965 169.61418152 198.58459473 C133.78462881 198.70025128 99.29696485 211.07579698 71 233 C77.06618753 246.40698257 85.05559614 258.64762062 93 271 C93.47904785 271.74491699 93.9580957 272.48983398 94.45166016 273.25732422 C105.39031396 290.16553558 117.52534506 306.20501724 130 322 C131.12535156 323.43279297 131.12535156 323.43279297 132.2734375 324.89453125 C137.22396346 331.14835895 142.37396842 337.23089372 147.55126953 343.296875 C148.97737312 344.97339988 150.3938283 346.65765292 151.80859375 348.34375 C164.13515904 362.97533436 177.49724176 376.58719271 191 390.125 C191.58435822 390.71203705 192.16871643 391.2990741 192.77078247 391.90390015 C198.47265159 397.62560116 204.16149644 403.29042239 210.31005859 408.53710938 C212.93239161 410.80712085 215.3633412 413.23133359 217.8125 415.6875 C218.72644531 416.59886719 219.64039063 417.51023437 220.58203125 418.44921875 C226 424.16478191 226 424.16478191 226 427 C226.8566626 427.2671582 227.7133252 427.53431641 228.59594727 427.80957031 C233.95439932 429.68347207 238.95896874 432.27424109 244.03100586 434.80273438 C245.92402318 435.74330387 247.82399035 436.66865906 249.72460938 437.59375 C259.03149755 442.18386527 266.38106818 446.40683392 271 456 C272.92946332 462.24161961 273.12366181 469.41261647 270.3125 475.375 C266.95158782 481.15341041 261.61835762 486.58042286 255.09375 488.5859375 C242.87546699 491.00223974 232.72397716 485.44615437 222.0625 480.125 C221.37679932 479.78436523 220.69109863 479.44373047 219.98461914 479.09277344 C216.86322672 477.52191765 213.86315306 475.91507238 210.890625 474.0703125 C200.58487009 467.97579247 189.72894407 467.29910313 178.01953125 465.8984375 C170.26030814 464.95798852 162.33240474 463.81521525 155 461 C152.8480563 457.77208445 152.79913557 456.71599191 153 453 C151.25014646 452.52029877 149.50011109 452.04126076 147.75 451.5625 C146.28820312 451.16224609 146.28820312 451.16224609 144.796875 450.75390625 C142.53627347 450.14455416 140.27377991 449.55761745 138 449 C137.34 450.32 136.68 451.64 136 453 C128.08687766 453.78742372 122.0681649 451.02214867 114.875 447.9375 C114.25005646 447.67356445 113.62511292 447.40962891 112.98123169 447.13769531 C78.21423332 432.44467916 45.22385977 414.01948993 16 390 C15.46745605 389.56510254 14.93491211 389.13020508 14.38623047 388.68212891 C-4.17007355 373.4710281 -21.28802973 356.7964181 -35.76806641 337.62597656 C-36.93006667 336.09230201 -38.11095019 334.57298733 -39.29296875 333.0546875 C-45.71960686 324.70574525 -51.36268854 315.89325397 -57 307 C-90.29328977 323.27488359 -116.67539349 345.50353568 -134.51367188 378.40283203 C-136.78336283 382.46061986 -138.52797857 385.1378796 -143 387 C-145.8125 386.6875 -145.8125 386.6875 -148 386 C-148.268125 386.70125 -148.53625 387.4025 -148.8125 388.125 C-150 391 -150 391 -151.75 394 C-153.33592916 396.88927464 -153.33592916 396.88927464 -152.1875 399.5 C-151.795625 400.325 -151.40375 401.15 -151 402 C-150.07615076 408.16527962 -152.98220567 412.45724565 -155.9375 417.625 C-156.43822021 418.51364746 -156.93894043 419.40229492 -157.45483398 420.31787109 C-165.36410901 434.11671108 -175.92092136 450.75699 -191.99609375 455.6015625 C-199.37426389 457.06856709 -205.62355508 456.01647954 -212 452 C-228.03171658 439.25684067 -233.4014726 416.59682853 -235.78312683 397.17683411 C-236.1291215 393.70396096 -236.18229288 390.24580972 -236.203125 386.7578125 C-236.21167511 385.60694656 -236.21167511 385.60694656 -236.22039795 384.43283081 C-236.22978725 382.81428375 -236.23635756 381.19571809 -236.24023438 379.57714844 C-236.24983811 377.16565064 -236.28087646 374.75504489 -236.3125 372.34375 C-236.41358102 357.65186801 -234.43977554 343.47928051 -230.25 329.375 C-229.99323486 328.50020996 -229.73646973 327.62541992 -229.47192383 326.72412109 C-222.59149638 304.03216098 -210.3116445 283.29331247 -193 267 C-191.7934375 265.7625 -191.7934375 265.7625 -190.5625 264.5 C-165.44570127 239.99580612 -132.56272237 226.89395447 -97.66015625 225.2109375 C-95.02628559 225.16943963 -95.02628559 225.16943963 -93 224 C-93.15557373 223.43007324 -93.31114746 222.86014648 -93.47143555 222.27294922 C-96.80599299 209.90143517 -99.61978861 197.51267692 -101.75 184.875 C-102.04716919 183.14805908 -102.04716919 183.14805908 -102.3503418 181.38623047 C-105.35647 162.87690457 -106.35350279 144.38455652 -106.31567383 125.64941406 C-106.31249526 122.37010949 -106.33616743 119.09169545 -106.36132812 115.8125 C-106.43873368 90.09263492 -102.31282605 66.2066565 -91 43 C-90.65952637 42.29456055 -90.31905273 41.58912109 -89.96826172 40.86230469 C-80.28324327 21.03086517 -66.53552363 1.59682109 -45.0625 -6.4375 C-29.34662536 -11.72353325 -13.44180358 -9.71308409 0 0 Z " fill="#020100" transform="translate(236,16)"/>
<path d="M0 0 C2.33304561 2.15809888 3.87995843 4.28478056 5.43359375 7.05078125 C5.90732422 7.87932617 6.38105469 8.70787109 6.86914062 9.56152344 C7.38669922 10.4693457 7.90425781 11.37716797 8.4375 12.3125 C32.17993782 53.19306222 61.26015182 91.04525007 93 126 C93.66902344 126.75023437 94.33804688 127.50046875 95.02734375 128.2734375 C112.00370461 147.33145276 112.00370461 147.33145276 130.5390625 164.83203125 C157.92229133 188.95535188 157.92229133 188.95535188 162 200 C162.12109375 202.76171875 162.12109375 202.76171875 162 205 C156.51100654 208.46144513 151.834763 208.42968832 145.5625 208.3125 C144.58764648 208.3026709 143.61279297 208.2928418 142.60839844 208.28271484 C132.75933261 208.10909869 123.26302529 206.93818584 113.625 204.875 C109.12503195 203.95250655 104.55805422 203.04382977 100 204 C97.39089037 206.3183856 97.39089037 206.3183856 96 209 C94.22888156 208.52188823 92.45811517 208.0424722 90.6875 207.5625 C89.70136719 207.29566406 88.71523438 207.02882813 87.69921875 206.75390625 C85.78482474 206.21920575 83.88566385 205.62855462 82 205 C81.63208008 203.09838867 81.63208008 203.09838867 81.45703125 200.73046875 C80.86485676 197.71841339 80.55073917 196.4126724 78.06396484 194.54931641 C75.3115631 193.30725396 72.54471769 192.2901482 69.6875 191.3125 C67.49829353 190.48315901 65.31221606 189.64552366 63.12890625 188.80078125 C61.9702002 188.35686035 60.81149414 187.91293945 59.61767578 187.45556641 C53.31905483 184.92132575 47.22425985 181.97668611 41.125 179 C40.50539398 178.69816803 39.88578796 178.39633606 39.24740601 178.08535767 C-1.93636597 157.97022449 -43.04741566 130.05420023 -71.8125 93.73828125 C-73.2538724 91.93399186 -74.73284038 90.15901478 -76.25 88.41796875 C-84.77282167 78.61952739 -91.81142913 67.79294047 -99 57 C-98.67 56.34 -98.34 55.68 -98 55 C-95.55798306 54.23105002 -93.17412846 53.58562731 -90.6875 53 C-89.70040039 52.7525 -89.70040039 52.7525 -88.69335938 52.5 C-86.46942141 51.95932752 -84.23965827 51.47138738 -82 51 C-80.71053467 50.72422119 -80.71053467 50.72422119 -79.39501953 50.44287109 C-69.69845259 48.58679004 -60.0055887 48.64386616 -50.16894531 48.61914062 C-47.91415783 48.60963878 -45.66073206 48.57596078 -43.40625 48.5390625 C-42.7208313 48.54410797 -42.0354126 48.54915344 -41.32922363 48.55435181 C-38.03649478 48.4862916 -36.29160119 48.2272138 -33.66259766 46.17871094 C-31.37502562 43.18101742 -29.63283081 39.94719715 -27.875 36.625 C-20.32660659 22.84863185 -11.09598488 11.09598488 0 0 Z " fill="#FED321" transform="translate(293,260)"/>
<path d="M0 0 C7.01866268 4.8465427 11.05876146 10.58970453 12.8125 18.9375 C13.14328829 23.46601097 13.17438837 27.9822573 13.17987061 32.52001953 C13.22703709 46.30621762 14.23705855 59.79242535 16.1875 73.4375 C16.29278015 74.19036285 16.3980603 74.94322571 16.50653076 75.71890259 C17.69518485 90.44037652 17.69518485 90.44037652 23.8125 102.9375 C25.80071313 103.33514263 27.80194339 103.67525349 29.8125 103.9375 C30.31685694 105.8738704 30.81583874 107.81164146 31.3125 109.75 C31.5909375 110.82894531 31.869375 111.90789062 32.15625 113.01953125 C32.8125 115.9375 32.8125 115.9375 32.8125 118.9375 C32.173125 119.22625 31.53375 119.515 30.875 119.8125 C28.66043921 120.76573451 28.66043921 120.76573451 27.8125 122.9375 C28.04815067 129.77136936 29.86642833 135.76332787 32.08447266 142.17626953 C34.02238169 147.94193762 34.79100936 152.12418123 32.23828125 157.71484375 C31.54175768 159.10554908 30.83689411 160.49209972 30.125 161.875 C17.72664468 187.27797383 13.25379518 216.17956951 18.375 244.1328125 C18.83922764 247.10884329 18.88388635 249.93034991 18.8125 252.9375 C14.24726946 251.45826329 11.004095 248.83640507 7.375 245.8125 C-10.69717232 231.28053205 -33.47925394 222.05838027 -56.54296875 219.52734375 C-59.54152079 218.8585382 -60.26113268 218.24960313 -62.1875 215.9375 C-62.99951172 214.09765625 -62.99951172 214.09765625 -63.6171875 212 C-63.97043091 210.80250122 -63.97043091 210.80250122 -64.33081055 209.58081055 C-64.57226807 208.70851807 -64.81372559 207.83622559 -65.0625 206.9375 C-65.3200708 206.01686768 -65.5776416 205.09623535 -65.84301758 204.14770508 C-73.15491244 177.05703342 -76.56576077 148.9437718 -77.1875 120.9375 C-77.23197266 119.0503125 -77.23197266 119.0503125 -77.27734375 117.125 C-77.67751451 79.4200217 -70.94700195 42.09920032 -45.1875 12.9375 C-33.6651586 1.34082091 -16.3350042 -8.41752768 0 0 Z " fill="#FEF4CB" transform="translate(222.1875,25.0625)"/>
<path d="M0 0 C0.70005157 0.00465271 1.40010315 0.00930542 2.12136841 0.01409912 C36.36577815 0.28066097 65.32803048 14.35657399 91.0625 36.375 C91.0625 36.705 91.0625 37.035 91.0625 37.375 C89.91201172 37.41367187 89.91201172 37.41367187 88.73828125 37.453125 C55.69454625 39.14177116 22.71739022 50.77114822 -3.9375 70.375 C-4.50452637 70.78266602 -5.07155273 71.19033203 -5.65576172 71.61035156 C-27.78006762 87.61945649 -49.10328366 110.45967518 -58.9375 136.375 C-58.72464133 140.13550325 -58.61416871 141.69833129 -55.9375 144.375 C-56.33232894 147.62368019 -57.797982 150.23135493 -59.375 153.0625 C-59.80683594 153.85011719 -60.23867187 154.63773438 -60.68359375 155.44921875 C-61.9375 157.375 -61.9375 157.375 -63.9375 158.375 C-64.88625 158.313125 -65.835 158.25125 -66.8125 158.1875 C-69.94121934 158.07424879 -69.94121934 158.07424879 -71.87109375 159.91796875 C-74.47640097 163.01577261 -76.23926949 166.3089489 -78.125 169.875 C-84.09072586 180.76591813 -91.42489495 193.61869748 -102.9375 199.375 C-106.0625 200 -106.0625 200 -109.9375 199.375 C-121.18438436 191.61244452 -124.89274307 174.54069408 -127.375 161.9375 C-133.99230553 124.15546917 -125.82557708 84.78676506 -103.9375 53.375 C-86.28901369 29.19120659 -60.38199491 10.14787975 -30.9375 3.375 C-29.86395264 3.11895996 -28.79040527 2.86291992 -27.68432617 2.59912109 C-18.40529686 0.5435976 -9.52641249 -0.1135028 0 0 Z " fill="#FEE376" transform="translate(143.9375,256.625)"/>
<path d="M0 0 C5.39860657 2.19059188 9.49116847 3.19402457 15.21264648 1.28686523 C15.54264648 0.29686523 15.87264648 -0.69313477 16.21264648 -1.71313477 C18.19762699 -0.7880081 20.17550666 0.15236761 22.15014648 1.09936523 C23.25229492 1.62143555 24.35444336 2.14350586 25.48999023 2.68139648 C28.21264648 4.28686523 28.21264648 4.28686523 29.21264648 7.28686523 C29.28612305 8.41350586 29.35959961 9.54014648 29.43530273 10.70092773 C30.42529798 15.26784046 31.81641881 16.11255842 35.65014648 18.66186523 C36.74934881 19.4233955 37.84565887 20.18911548 38.93920898 20.95874023 C39.48996094 21.34223633 40.04071289 21.72573242 40.6081543 22.12084961 C44.77434504 25.14850131 48.46792025 28.76395205 52.21264648 32.28686523 C52.84944336 32.85920898 53.48624023 33.43155273 54.14233398 34.02124023 C60.31953514 39.78662798 67.49034468 48.62883444 68.58764648 57.22436523 C68.09228956 61.26978009 67.24700695 62.54149148 64.21264648 65.28686523 C52.53784884 71.87674125 38.35221378 71.57777533 25.32997131 71.40662956 C22.9200232 71.37576281 20.51032778 71.35945745 18.10021973 71.34657288 C11.25794319 71.30741208 4.41597478 71.24256322 -2.42602539 71.17041016 C-30.23885641 70.80593545 -30.23885641 70.80593545 -57.78735352 74.28686523 C-59.44903564 74.60796265 -59.44903564 74.60796265 -61.14428711 74.93554688 C-63.70532704 75.49002879 -66.20677358 76.12669932 -68.72485352 76.84936523 C-69.60979492 77.0976709 -70.49473633 77.34597656 -71.40649414 77.60180664 C-113.56016244 90.04823186 -145.97086869 116.79773767 -170.78735352 152.28686523 C-180.02625783 138.42850876 -177.04304197 111.02687858 -174.16235352 95.41186523 C-170.3712241 76.81040076 -162.48690131 58.30419524 -150.78735352 43.28686523 C-150.1105957 42.40772461 -149.43383789 41.52858398 -148.73657227 40.62280273 C-127.53788924 13.88911721 -99.01270601 -2.08108151 -65.64282227 -8.29907227 C-43.04753781 -10.72571882 -21.03705541 -8.62246063 0 0 Z " fill="#FEE376" transform="translate(428.787353515625,127.713134765625)"/>
<path d="M0 0 C-0.73734375 0.57878906 -1.4746875 1.15757813 -2.234375 1.75390625 C-28.50945877 23.09313389 -41.57452888 59.22861206 -45 92 C-45.24129747 97.31664377 -45.24102871 102.61790956 -45.1875 107.9375 C-45.1792632 109.39412289 -45.1712916 110.85074731 -45.16357422 112.30737305 C-44.89682344 150.90347901 -40.43684398 187.99844595 -29 225 C-31 226 -31 226 -32.92578125 225.51171875 C-33.71339844 225.23972656 -34.50101563 224.96773437 -35.3125 224.6875 C-40.56442123 222.99555453 -45.74288267 222.25111235 -51.21484375 221.625 C-54.3088088 220.93070209 -55.02636817 220.38047848 -57 218 C-57.81201172 216.16015625 -57.81201172 216.16015625 -58.4296875 214.0625 C-58.78293091 212.86500122 -58.78293091 212.86500122 -59.14331055 211.64331055 C-59.38476807 210.77101807 -59.62622559 209.89872559 -59.875 209 C-60.1325708 208.07936768 -60.3901416 207.15873535 -60.65551758 206.21020508 C-67.96741244 179.11953342 -71.37826077 151.0062718 -72 123 C-72.04447266 121.1128125 -72.04447266 121.1128125 -72.08984375 119.1875 C-72.49001451 81.4825217 -65.75950195 44.16170032 -40 15 C-27.40980669 2.32857964 -17.22063912 -0.52836052 0 0 Z " fill="#FDE998" transform="translate(217,23)"/>
<path d="M0 0 C0.70005157 0.00465271 1.40010315 0.00930542 2.12136841 0.01409912 C36.86039923 0.28451115 64.68483966 14.69619414 91.0625 36.375 C87.74237153 37.4680427 87.24823038 37.46030508 83.84765625 35.8984375 C82.60178224 35.19100593 81.36116059 34.47427099 80.125 33.75 C52.58650836 18.46006101 18.69701296 13.87133868 -11.9375 21.375 C-13.19949219 21.63023437 -14.46148437 21.88546875 -15.76171875 22.1484375 C-36.95082603 26.59494558 -55.47847751 37.62479696 -71.9375 51.375 C-72.78699219 52.03757812 -73.63648438 52.70015625 -74.51171875 53.3828125 C-78.11726271 56.34388725 -80.94404556 59.81164942 -83.9375 63.375 C-84.65292969 64.20257813 -85.36835937 65.03015625 -86.10546875 65.8828125 C-109.1850738 93.13343051 -118.80396519 126.40995339 -118.25 161.625 C-118.23846174 163.53775055 -118.22869065 165.45051258 -118.22070312 167.36328125 C-118.20730171 169.20574128 -118.19238507 171.04819105 -118.17578125 172.890625 C-118.16470085 174.14543671 -118.16470085 174.14543671 -118.15339661 175.42559814 C-118.07184301 180.48160138 -117.6503774 185.36799597 -116.9375 190.375 C-128.5753245 178.7371755 -129.19950072 152.32526051 -129.3125 137 C-129.07461611 97.19040797 -115.44767048 62.3085323 -87.0690918 34.14428711 C-71.77125 19.43322385 -51.64516752 8.13821779 -30.9375 3.375 C-29.86395264 3.11895996 -28.79040527 2.86291992 -27.68432617 2.59912109 C-18.40529686 0.5435976 -9.52641249 -0.1135028 0 0 Z " fill="#FCDB54" transform="translate(143.9375,256.625)"/>
<path d="M0 0 C5.39860657 2.19059188 9.49116847 3.19402457 15.21264648 1.28686523 C15.54264648 0.29686523 15.87264648 -0.69313477 16.21264648 -1.71313477 C18.19762699 -0.7880081 20.17550666 0.15236761 22.15014648 1.09936523 C23.25229492 1.62143555 24.35444336 2.14350586 25.48999023 2.68139648 C28.21264648 4.28686523 28.21264648 4.28686523 29.21264648 7.28686523 C29.28612305 8.41350586 29.35959961 9.54014648 29.43530273 10.70092773 C30.42529798 15.26784046 31.81641881 16.11255842 35.65014648 18.66186523 C36.74671366 19.42214084 37.84041826 20.18655988 38.93139648 20.95483398 C39.48182617 21.33816895 40.03225586 21.72150391 40.59936523 22.11645508 C46.87978148 26.67279822 52.48858177 32.14558111 57.21264648 38.28686523 C52.58019668 36.65293914 48.63188786 34.20516937 44.46264648 31.66186523 C32.02951168 24.23730729 19.12797759 17.80829498 5.15258789 13.83813477 C3.86146486 13.47123874 2.57449327 13.08939957 1.29223633 12.69262695 C-30.14853161 3.18185298 -67.04013556 8.48143109 -95.78735352 23.28686523 C-96.82891602 23.80249023 -97.87047852 24.31811523 -98.94360352 24.84936523 C-111.75721081 31.47212855 -122.87939366 40.87080488 -132.78735352 51.28686523 C-133.7502832 52.2575293 -133.7502832 52.2575293 -134.73266602 53.24780273 C-156.72443773 76.3123438 -168.10341464 109.31819236 -169.34985352 140.72436523 C-169.39303711 141.74208008 -169.4362207 142.75979492 -169.48071289 143.80834961 C-169.58603934 146.30107552 -169.68817023 148.79388861 -169.78735352 151.28686523 C-170.44735352 151.61686523 -171.10735352 151.94686523 -171.78735352 152.28686523 C-181.66937117 120.10802624 -175.06340429 86.07692439 -159.78735352 56.90795898 C-157.16801367 52.06945622 -154.16786479 47.62602895 -150.78735352 43.28686523 C-150.1105957 42.40772461 -149.43383789 41.52858398 -148.73657227 40.62280273 C-127.53788924 13.88911721 -99.01270601 -2.08108151 -65.64282227 -8.29907227 C-43.04753781 -10.72571882 -21.03705541 -8.62246063 0 0 Z " fill="#FBDB54" transform="translate(428.787353515625,127.713134765625)"/>
<path d="M0 0 C2.265625 0.578125 2.265625 0.578125 4.484375 3.6640625 C5.25985561 5.08563546 6.01914647 6.51611085 6.765625 7.953125 C14.94371097 22.72462674 25.14068494 35.92057569 36.265625 48.578125 C36.86503906 49.27679688 37.46445313 49.97546875 38.08203125 50.6953125 C39.78814449 52.67687053 41.52008227 54.6311735 43.265625 56.578125 C43.69456055 57.05749512 44.12349609 57.53686523 44.56542969 58.03076172 C51.11722176 65.32556339 57.82134602 72.17713184 65.265625 78.578125 C66.33530984 79.52137114 67.40427896 80.46542936 68.47265625 81.41015625 C85.62482587 96.47232484 104.55312191 109.12581877 124.265625 120.578125 C124.91241211 120.95904297 125.55919922 121.33996094 126.22558594 121.73242188 C147.49191689 134.20783906 170.18615846 143.99599765 193.265625 152.578125 C193.265625 152.908125 193.265625 153.238125 193.265625 153.578125 C192.30140625 153.52011719 191.3371875 153.46210938 190.34375 153.40234375 C189.08046875 153.35722656 187.8171875 153.31210937 186.515625 153.265625 C185.26265625 153.20761719 184.0096875 153.14960938 182.71875 153.08984375 C179.09079069 153.24372823 179.09079069 153.24372823 176.8125 156.09765625 C176.30203125 156.91621094 175.7915625 157.73476563 175.265625 158.578125 C173.49450656 158.10001323 171.72374017 157.6205972 169.953125 157.140625 C168.96699219 156.87378906 167.98085938 156.60695313 166.96484375 156.33203125 C165.05044974 155.79733075 163.15128885 155.20667962 161.265625 154.578125 C160.89770508 152.67651367 160.89770508 152.67651367 160.72265625 150.30859375 C160.13048176 147.29653839 159.81636417 145.9907974 157.32958984 144.12744141 C154.5771881 142.88537896 151.81034269 141.8682732 148.953125 140.890625 C146.76391853 140.06128401 144.57784106 139.22364866 142.39453125 138.37890625 C141.2358252 137.93498535 140.07711914 137.49106445 138.88330078 137.03369141 C132.58467983 134.49945075 126.48988485 131.55481111 120.390625 128.578125 C119.77101898 128.27629303 119.15141296 127.97446106 118.51303101 127.66348267 C77.32925903 107.54834949 36.21820934 79.63232523 7.453125 43.31640625 C6.0117526 41.51211686 4.53278462 39.73713978 3.015625 37.99609375 C-5.50719667 28.19765239 -12.54580413 17.37106547 -19.734375 6.578125 C-19.404375 5.918125 -19.074375 5.258125 -18.734375 4.578125 C-16.14653645 3.76868692 -13.61663679 3.0787506 -10.984375 2.453125 C-10.26765625 2.27136719 -9.5509375 2.08960938 -8.8125 1.90234375 C-5.89090608 1.188057 -2.94225902 0.62207762 0 0 Z " fill="#EBBC00" transform="translate(213.734375,310.421875)"/>
<path d="M0 0 C4.8093471 0.60465679 8.50384408 2.64480786 12.6875 4.9375 C13.36361328 5.29779297 14.03972656 5.65808594 14.73632812 6.02929688 C17.45618644 7.49883226 19.80233948 8.80233948 22 11 C22.69878984 15.20898999 22.67076045 18.85411756 20.5 22.5625 C17.00078023 24.57455137 13.9007619 24.55731028 10 24 C6.5162668 22.78314179 3.28186756 21.17874331 0 19.5 C-0.87011719 19.07074219 -1.74023438 18.64148438 -2.63671875 18.19921875 C-4.76522426 17.14666108 -6.88545577 16.08025629 -9 15 C-8 12 -8 12 -5.625 9.75 C-2.58232205 6.56243263 -1.52191679 4.08514506 0 0 Z " fill="#A65E00" transform="translate(470,465)"/>
</svg>
