<svg version="1.1" id="Layer_1" xmlns="http://www.w3.org/2000/svg" xmlns:xlink="http://www.w3.org/1999/xlink" x="0px" y="0px"
	 width="100%" viewBox="0 0 512 512" enable-background="new 0 0 512 512" xml:space="preserve">
<path fill="#FFFFFF" opacity="1.000000" stroke="none" 
	d="
M273.000000,1.000001 
	C352.964630,1.000000 432.929291,1.000000 512.946960,1.000000 
	C512.946960,171.555832 512.946960,342.111694 512.946960,513.000000 
	C435.312225,513.000000 357.623962,513.000000 279.675415,512.629211 
	C286.100952,511.505829 292.813629,510.936829 299.466919,509.962189 
	C313.114594,507.963074 326.211212,504.098694 338.543274,497.802185 
	C347.361603,493.299713 352.282562,486.513702 352.075653,476.246063 
	C351.986542,471.823944 352.641235,467.376556 353.102020,462.955627 
	C354.360413,450.882599 355.752594,438.823425 356.979553,426.747314 
	C357.777496,418.893677 358.300171,411.012177 359.086731,403.157257 
	C360.329224,390.749420 361.730042,378.357483 362.985382,365.950897 
	C363.763428,358.261230 364.334351,350.550629 365.111084,342.860809 
	C365.949219,334.563141 366.918823,326.278748 367.898834,317.553284 
	C369.015350,306.758881 370.064117,296.399750 371.419556,285.899109 
	C372.508148,285.165558 373.263092,284.533325 374.076263,283.987915 
	C380.475616,279.695557 386.441559,274.762024 387.816254,266.795654 
	C389.126312,259.203766 389.319611,251.418961 389.999725,243.718597 
	C390.694397,235.853485 391.288879,227.978134 392.098022,220.124847 
	C393.325012,208.216125 394.871704,196.337616 395.912231,184.413956 
	C396.247101,180.576645 395.413361,176.637375 395.115417,172.351990 
	C395.365631,171.351395 395.802277,170.753799 395.836151,170.134171 
	C396.583435,156.470840 398.077179,142.783585 397.706970,129.147659 
	C397.476990,120.677933 396.904938,111.674767 391.916229,103.615097 
	C391.652863,101.254623 391.547272,99.255669 390.974792,97.400826 
	C386.812775,83.916000 380.466248,71.487244 372.256989,60.044750 
	C362.945374,47.065758 352.038177,35.645622 338.801239,26.541325 
	C324.164368,16.474174 308.531372,8.673843 290.803467,4.664286 
	C284.719727,3.224984 278.859863,2.112493 273.000000,1.000001 
z"/>
<path fill="#FFFFFF" opacity="1.000000" stroke="none" 
	d="
M233.000000,513.000000 
	C155.700974,513.000000 78.401939,513.000000 1.051455,513.000000 
	C1.051455,342.443359 1.051455,171.886688 1.051455,1.000000 
	C80.354462,1.000000 159.709381,1.000000 239.357956,1.378429 
	C232.447983,3.205175 225.144226,4.278583 218.059082,6.170592 
	C194.799423,12.381837 174.633331,24.368879 157.774704,41.313984 
	C149.489029,49.642174 142.044479,59.144226 135.869949,69.135201 
	C130.371216,78.032707 127.147575,88.336250 122.613411,98.228668 
	C114.656700,123.296051 114.005966,148.449188 118.962051,174.247757 
	C118.529198,176.236038 117.914406,177.852631 118.050079,179.403564 
	C118.937775,189.551346 120.005646,199.683197 120.980919,209.823502 
	C122.664795,227.331543 124.661072,244.819138 125.849113,262.361176 
	C126.428314,270.913361 130.136307,276.830566 136.888412,281.545013 
	C139.203552,283.161499 142.420959,285.368439 142.738892,287.651917 
	C144.572433,300.821350 145.696716,314.091064 146.987946,327.333923 
	C147.754669,335.197205 148.293747,343.083221 149.100952,350.941956 
	C150.325241,362.861023 151.763657,374.758179 152.976562,386.678314 
	C153.793030,394.702606 154.255066,402.763306 155.094894,410.784729 
	C156.290787,422.207153 157.821014,433.595154 158.961990,445.022491 
	C160.139160,456.812714 160.870850,468.648041 162.096664,480.432526 
	C162.696045,486.194824 165.279327,491.343506 170.215515,494.541016 
	C182.615906,502.573578 196.369888,507.069397 211.192215,509.445282 
	C218.617767,510.851593 225.808884,511.925812 233.000000,513.000000 
z"/>
<path fill="#FFD41D" opacity="1.000000" stroke="none" 
	d="
M233.468658,513.000000 
	C225.808884,511.925812 218.617767,510.851593 211.206909,508.969055 
	C210.659927,491.222626 210.260361,474.285583 210.021698,457.346252 
	C209.625931,429.255310 209.345337,401.162750 208.974548,373.071411 
	C208.946320,370.932587 208.423599,368.799072 208.410934,366.661438 
	C208.349289,356.261108 208.383087,345.860168 208.383087,335.125580 
	C210.766113,335.125580 212.742844,334.990967 214.696198,335.147797 
	C226.060287,336.060150 237.429886,337.933136 248.776749,337.792877 
	C266.470459,337.574188 284.169891,336.295044 301.825165,334.926910 
	C319.376251,333.566864 336.477753,329.771759 352.989929,323.532196 
	C357.929871,321.665527 362.883636,319.835419 367.831055,317.988556 
	C366.918823,326.278748 365.949219,334.563141 365.111084,342.860809 
	C364.334351,350.550629 363.763428,358.261230 362.985382,365.950897 
	C361.730042,378.357483 360.329224,390.749420 359.086731,403.157257 
	C358.300171,411.012177 357.777496,418.893677 356.979553,426.747314 
	C355.752594,438.823425 354.360413,450.882599 353.102020,462.955627 
	C352.641235,467.376556 351.986542,471.823944 352.075653,476.246063 
	C352.282562,486.513702 347.361603,493.299713 338.543274,497.802185 
	C326.211212,504.098694 313.114594,507.963074 299.466919,509.962189 
	C292.813629,510.936829 286.100952,511.505829 279.207581,512.629211 
	C263.979095,513.000000 248.958206,513.000000 233.468658,513.000000 
z"/>
<path fill="#C05E1B" opacity="1.000000" stroke="none" 
	d="
M122.919861,98.019264 
	C127.147575,88.336250 130.371216,78.032707 135.869949,69.135201 
	C142.044479,59.144226 149.489029,49.642174 157.774704,41.313984 
	C174.633331,24.368879 194.799423,12.381837 218.059082,6.170592 
	C225.144226,4.278583 232.447983,3.205175 239.825806,1.378429 
	C250.687561,1.000000 261.375122,1.000000 272.531342,1.000001 
	C278.859863,2.112493 284.719727,3.224984 290.563354,4.941000 
	C280.673065,9.381035 270.277863,12.251731 261.027130,17.243376 
	C237.543350,29.915087 218.430054,47.590702 205.130249,70.982780 
	C201.890610,76.680779 199.664810,82.955200 196.985275,88.983612 
	C196.997711,89.002655 196.959122,88.977791 196.740234,89.079025 
	C196.250793,89.380363 196.076523,89.644073 195.887360,90.254570 
	C195.199585,91.360336 194.623001,92.182945 193.776764,93.152039 
	C193.284302,93.845261 193.061493,94.391998 192.885468,94.934448 
	C192.932251,94.930153 192.872559,94.857590 192.550720,94.965248 
	C188.890259,99.826752 185.580414,104.601105 182.206619,109.329842 
	C176.524155,117.294495 171.550735,125.928925 164.933945,133.027847 
	C152.414047,146.460022 132.218414,141.897797 126.853065,124.405464 
	C124.274529,115.998825 124.153679,106.838356 122.919861,98.019264 
z"/>
<path fill="#EFC71D" opacity="1.000000" stroke="none" 
	d="
M367.898834,317.553284 
	C362.883636,319.835419 357.929871,321.665527 352.989929,323.532196 
	C336.477753,329.771759 319.376251,333.566864 301.825165,334.926910 
	C284.169891,336.295044 266.470459,337.574188 248.776749,337.792877 
	C237.429886,337.933136 226.060287,336.060150 214.696198,335.147797 
	C212.742844,334.990967 210.766113,335.125580 208.383087,335.125580 
	C208.383087,345.860168 208.349289,356.261108 208.410934,366.661438 
	C208.423599,368.799072 208.946320,370.932587 208.974548,373.071411 
	C209.345337,401.162750 209.625931,429.255310 210.021698,457.346252 
	C210.260361,474.285583 210.659927,491.222626 210.972473,508.636932 
	C196.369888,507.069397 182.615906,502.573578 170.215515,494.541016 
	C165.279327,491.343506 162.696045,486.194824 162.096664,480.432526 
	C160.870850,468.648041 160.139160,456.812714 158.961990,445.022491 
	C157.821014,433.595154 156.290787,422.207153 155.094894,410.784729 
	C154.255066,402.763306 153.793030,394.702606 152.976562,386.678314 
	C151.763657,374.758179 150.325241,362.861023 149.100952,350.941956 
	C148.293747,343.083221 147.754669,335.197205 146.987946,327.333923 
	C145.696716,314.091064 144.572433,300.821350 142.738892,287.651917 
	C142.420959,285.368439 139.203552,283.161499 136.888412,281.545013 
	C130.136307,276.830566 126.428314,270.913361 125.849113,262.361176 
	C124.661072,244.819138 122.664795,227.331543 120.980919,209.823502 
	C120.005646,199.683197 118.937775,189.551346 118.050079,179.403564 
	C117.914406,177.852631 118.529198,176.236038 119.243332,174.499252 
	C121.156601,183.370926 124.479675,191.339676 133.218811,195.591034 
	C142.120316,199.921402 151.013794,204.407455 160.287781,207.792435 
	C168.936249,210.949081 178.080200,212.748245 187.004486,215.604523 
	C187.001938,242.545792 187.115677,269.028473 186.890320,295.508240 
	C186.851456,300.075592 188.492920,301.605408 192.713364,302.053894 
	C204.045364,303.258118 215.321732,305.033569 226.668304,306.039398 
	C237.877655,307.033142 249.158340,308.022217 260.384979,307.809967 
	C273.261841,307.566528 286.219116,306.711792 298.949738,304.827393 
	C314.934998,302.461243 330.849609,299.289124 346.550476,295.462738 
	C355.001434,293.403198 362.942017,289.249451 371.112885,286.040649 
	C370.064117,296.399750 369.015350,306.758881 367.898834,317.553284 
z"/>
<path fill="#76DDCD" opacity="1.000000" stroke="none" 
	d="
M194.046402,93.005539 
	C194.623001,92.182945 195.199585,91.360336 196.115189,90.163780 
	C196.748001,89.597198 196.916306,89.326515 196.959122,88.977791 
	C196.959122,88.977791 196.997711,89.002655 197.308167,88.873291 
	C208.403046,79.634827 220.629150,79.375618 230.943832,88.798393 
	C234.916412,92.427467 238.424133,97.021797 240.815643,101.836037 
	C246.954681,114.194298 252.253265,126.966988 258.075165,139.486893 
	C262.185669,148.326431 267.265198,156.495346 275.811951,161.867981 
	C292.546173,172.387360 312.199310,165.410614 317.839417,146.624863 
	C319.544922,140.944260 320.270203,134.913727 320.927673,128.986145 
	C322.137970,118.074600 322.481476,107.050240 324.058960,96.199783 
	C326.822144,77.193283 344.057983,67.849976 361.216736,76.285332 
	C367.648376,79.447174 373.432495,84.288132 378.796814,89.152107 
	C383.656128,93.558205 387.542511,99.037323 391.857880,104.043335 
	C396.904938,111.674767 397.476990,120.677933 397.706970,129.147659 
	C398.077179,142.783585 396.583435,156.470840 395.836151,170.134171 
	C395.802277,170.753799 395.365631,171.351395 394.811493,172.603485 
	C393.087891,186.267212 385.585571,194.247894 374.054565,199.825867 
	C357.097870,208.028442 339.205383,212.736557 320.837372,216.073288 
	C292.180267,221.279114 263.252930,221.914124 234.264954,220.736145 
	C225.491821,220.379623 216.761429,218.971100 207.878052,217.722656 
	C207.503067,216.963425 207.276474,216.516907 207.017715,216.089859 
	C187.764160,184.314255 181.556976,150.221481 188.874283,113.741249 
	C190.139572,107.433167 191.536469,101.151474 192.872559,94.857590 
	C192.872559,94.857590 192.932251,94.930153 193.179276,94.825325 
	C193.632996,94.148842 193.839691,93.577187 194.046402,93.005539 
z"/>
<path fill="#FFD41D" opacity="1.000000" stroke="none" 
	d="
M208.011459,218.044464 
	C216.761429,218.971100 225.491821,220.379623 234.264954,220.736145 
	C263.252930,221.914124 292.180267,221.279114 320.837372,216.073288 
	C339.205383,212.736557 357.097870,208.028442 374.054565,199.825867 
	C385.585571,194.247894 393.087891,186.267212 394.810333,172.996231 
	C395.413361,176.637375 396.247101,180.576645 395.912231,184.413956 
	C394.871704,196.337616 393.325012,208.216125 392.098022,220.124847 
	C391.288879,227.978134 390.694397,235.853485 389.999725,243.718597 
	C389.319611,251.418961 389.126312,259.203766 387.816254,266.795654 
	C386.441559,274.762024 380.475616,279.695557 374.076263,283.987915 
	C373.263092,284.533325 372.508148,285.165558 371.419556,285.899109 
	C362.942017,289.249451 355.001434,293.403198 346.550476,295.462738 
	C330.849609,299.289124 314.934998,302.461243 298.949738,304.827393 
	C286.219116,306.711792 273.261841,307.566528 260.384979,307.809967 
	C249.158340,308.022217 237.877655,307.033142 226.668304,306.039398 
	C215.321732,305.033569 204.045364,303.258118 192.713364,302.053894 
	C188.492920,301.605408 186.851456,300.075592 186.890320,295.508240 
	C187.115677,269.028473 187.001938,242.545792 187.407745,215.581329 
	C194.545547,216.080521 201.278503,217.062485 208.011459,218.044464 
z"/>
<path fill="#CC732F" opacity="1.000000" stroke="none" 
	d="
M391.916229,103.615097 
	C387.542511,99.037323 383.656128,93.558205 378.796814,89.152107 
	C373.432495,84.288132 367.648376,79.447174 361.216736,76.285332 
	C344.057983,67.849976 326.822144,77.193283 324.058960,96.199783 
	C322.481476,107.050240 322.137970,118.074600 320.927673,128.986145 
	C320.270203,134.913727 319.544922,140.944260 317.839417,146.624863 
	C312.199310,165.410614 292.546173,172.387360 275.811951,161.867981 
	C267.265198,156.495346 262.185669,148.326431 258.075165,139.486893 
	C252.253265,126.966988 246.954681,114.194298 240.815643,101.836037 
	C238.424133,97.021797 234.916412,92.427467 230.943832,88.798393 
	C220.629150,79.375618 208.403046,79.634827 197.295715,88.854256 
	C199.664810,82.955200 201.890610,76.680779 205.130249,70.982780 
	C218.430054,47.590702 237.543350,29.915087 261.027130,17.243376 
	C270.277863,12.251731 280.673065,9.381035 290.787231,5.267812 
	C308.531372,8.673843 324.164368,16.474174 338.801239,26.541325 
	C352.038177,35.645622 362.945374,47.065758 372.256989,60.044750 
	C380.466248,71.487244 386.812775,83.916000 390.974792,97.400826 
	C391.547272,99.255669 391.652863,101.254623 391.916229,103.615097 
z"/>
<path fill="#45B9B1" opacity="1.000000" stroke="none" 
	d="
M207.878052,217.722656 
	C201.278503,217.062485 194.545547,216.080521 187.409317,215.121765 
	C178.080200,212.748245 168.936249,210.949081 160.287781,207.792435 
	C151.013794,204.407455 142.120316,199.921402 133.218811,195.591034 
	C124.479675,191.339676 121.156601,183.370926 119.408508,174.097198 
	C114.005966,148.449188 114.656700,123.296051 122.613403,98.228668 
	C124.153679,106.838356 124.274529,115.998825 126.853065,124.405464 
	C132.218414,141.897797 152.414047,146.460022 164.933945,133.027847 
	C171.550735,125.928925 176.524155,117.294495 182.206619,109.329842 
	C185.580414,104.601105 188.890259,99.826752 192.550720,94.965248 
	C191.536469,101.151474 190.139572,107.433167 188.874283,113.741249 
	C181.556976,150.221481 187.764160,184.314255 207.017715,216.089859 
	C207.276474,216.516907 207.503067,216.963425 207.878052,217.722656 
z"/>
<path fill="#45B9B1" opacity="1.000000" stroke="none" 
	d="
M193.776749,93.152023 
	C193.839691,93.577187 193.632996,94.148842 193.132492,94.829620 
	C193.061493,94.391998 193.284302,93.845261 193.776749,93.152023 
z"/>
<path fill="#CC732F" opacity="1.000000" stroke="none" 
	d="
M196.740234,89.079025 
	C196.916306,89.326515 196.748001,89.597198 196.226349,89.880615 
	C196.076523,89.644073 196.250793,89.380363 196.740234,89.079025 
z"/>
</svg>