<svg version="1.1" id="Layer_1" xmlns="http://www.w3.org/2000/svg" xmlns:xlink="http://www.w3.org/1999/xlink" x="0px" y="0px"
	 width="100%" viewBox="0 0 512 512" enable-background="new 0 0 512 512" xml:space="preserve">
<path fill="#FFFFFF" opacity="1.000000" stroke="none" 
	d="
M1.000000,210.000000 
	C1.000000,140.365997 1.000000,70.732002 1.000000,1.049001 
	C171.553970,1.049001 342.107941,1.049001 513.000000,1.049001 
	C513.000000,70.354401 513.000000,139.709351 512.688477,209.328003 
	C508.783325,202.426010 506.325134,194.309555 501.316864,188.328400 
	C494.623260,180.334534 485.951324,173.997162 478.073944,166.546432 
	C474.632050,152.228256 471.245209,138.312073 467.629425,123.455162 
	C465.979065,125.656334 464.909363,127.052574 463.871643,128.472214 
	C458.596313,135.689270 453.329315,142.912415 447.685547,150.060486 
	C443.038361,148.386139 438.764984,146.784698 434.307129,144.903595 
	C433.401733,143.362198 432.759583,142.047256 431.948151,140.846725 
	C420.720093,124.234009 405.944336,112.550995 385.869629,107.607643 
	C384.489990,107.163803 383.298553,107.207771 382.190399,106.925079 
	C371.140442,104.106163 359.935059,103.877373 349.129089,107.168678 
	C339.878082,109.986359 331.085693,114.309616 322.055786,117.521820 
	C321.501709,112.688263 321.798645,107.998642 320.311188,103.967453 
	C315.680511,91.417915 310.269501,79.158691 305.389435,66.697472 
	C303.819397,62.688358 301.810577,62.440666 298.284088,64.254547 
	C290.254974,68.384422 282.070160,72.211563 273.647614,75.993210 
	C261.278290,57.562340 242.333313,48.466293 224.132401,38.153572 
	C219.879105,45.471958 215.912384,52.249905 211.991714,59.054390 
	C206.116364,69.251350 202.845749,80.331070 200.561096,91.927368 
	C181.121948,96.055565 166.977966,106.602425 157.609085,123.822830 
	C149.756531,118.850540 141.893494,114.757759 132.591919,112.969849 
	C124.392921,112.180023 116.538284,111.027206 108.696991,111.111809 
	C89.299500,111.321106 72.964279,119.395576 59.127533,132.505585 
	C49.636345,141.498260 43.238777,152.661819 38.591351,165.135025 
	C32.551674,169.667480 26.555016,173.754288 21.126949,178.492462 
	C11.399161,186.983887 4.962953,197.742249 1.000000,210.000000 
z"/>
<path fill="#FFFFFF" opacity="1.000000" stroke="none" 
	d="
M513.000000,251.000000 
	C513.000000,338.296722 513.000000,425.593475 513.000000,512.945068 
	C342.441498,512.945068 171.882980,512.945068 1.000000,512.945068 
	C1.000000,425.978241 1.000000,338.956116 1.402570,251.503723 
	C2.862027,255.972809 4.116054,260.839081 4.944148,265.776794 
	C10.793438,300.654633 24.264894,332.536743 43.682846,361.839905 
	C56.799999,381.634674 72.802444,399.021118 90.924072,414.517914 
	C111.012489,431.696503 133.112762,445.507904 157.461334,455.591125 
	C192.132324,469.949097 228.184250,477.236267 265.852234,474.933716 
	C277.227020,474.238403 288.566040,472.958069 300.333344,471.958679 
	C307.856995,470.467865 315.068298,469.325165 322.063232,467.397491 
	C351.738037,459.219696 379.427063,446.804688 404.682159,428.961700 
	C423.662537,415.551880 440.412140,399.780243 455.193542,382.026184 
	C469.990692,364.253204 482.061615,344.677246 491.406860,323.384369 
	C501.201202,301.068268 507.906036,277.991089 511.072784,253.846924 
	C511.205994,252.831177 512.334961,251.945999 513.000000,251.000000 
z"/>
<path fill="#E6E6E6" opacity="1.000000" stroke="none" 
	d="
M513.000000,250.531357 
	C512.334961,251.945999 511.205994,252.831177 511.072784,253.846924 
	C507.906036,277.991089 501.201202,301.068268 491.406860,323.384369 
	C482.061615,344.677246 469.990692,364.253204 455.193542,382.026184 
	C440.412140,399.780243 423.662537,415.551880 404.682159,428.961700 
	C379.427063,446.804688 351.738037,459.219696 322.063232,467.397491 
	C315.068298,469.325165 307.856995,470.467865 300.102142,471.681641 
	C298.204987,470.961670 296.982086,470.351807 295.692261,470.128510 
	C272.801300,466.165802 251.310486,458.182617 230.581635,447.856812 
	C204.201294,434.715759 181.053391,417.383881 160.513901,396.216156 
	C140.278122,375.361542 124.387558,351.707214 112.310295,325.436188 
	C108.661285,317.498657 106.076050,309.072083 103.401413,300.892273 
	C117.232422,304.168793 130.665573,307.422577 144.491730,310.780609 
	C155.579895,312.561218 166.275070,314.237640 177.387360,315.972046 
	C199.529724,317.646820 221.254959,319.263672 243.445679,320.949402 
	C261.248016,320.622803 278.584869,320.227264 296.378235,319.879700 
	C306.498047,319.087067 316.161377,318.246429 326.228943,317.470428 
	C330.260101,317.050415 333.885559,316.554260 337.514221,316.082886 
	C375.948547,311.090088 413.420441,302.373108 448.959503,286.555420 
	C462.623749,280.473724 475.961304,273.664886 487.400391,263.209717 
	C491.273590,259.766052 494.806549,256.403351 498.598938,252.848236 
	C505.898438,245.004684 509.876801,235.729187 513.000000,226.000000 
	C513.000000,234.020905 513.000000,242.041809 513.000000,250.531357 
z"/>
<path fill="#CCCCCC" opacity="1.000000" stroke="none" 
	d="
M103.003540,300.869537 
	C106.076050,309.072083 108.661285,317.498657 112.310295,325.436188 
	C124.387558,351.707214 140.278122,375.361542 160.513901,396.216156 
	C181.053391,417.383881 204.201294,434.715759 230.581635,447.856812 
	C251.310486,458.182617 272.801300,466.165802 295.692261,470.128510 
	C296.982086,470.351807 298.204987,470.961670 299.690247,471.668640 
	C288.566040,472.958069 277.227020,474.238403 265.852234,474.933716 
	C228.184250,477.236267 192.132324,469.949097 157.461334,455.591125 
	C133.112762,445.507904 111.012489,431.696503 90.924072,414.517914 
	C72.802444,399.021118 56.799999,381.634674 43.682846,361.839905 
	C24.264894,332.536743 10.793438,300.654633 4.944148,265.776794 
	C4.116054,260.839081 2.862027,255.972809 1.402570,251.036743 
	C1.000000,249.611115 1.000000,248.222214 1.298669,246.217041 
	C1.398225,244.067184 1.199112,242.533585 1.000000,241.000000 
	C1.000000,237.638718 1.000000,234.277420 1.358401,230.502594 
	C2.895068,232.566132 4.075098,235.042374 5.251308,237.520432 
	C12.396577,252.574203 24.656858,262.774567 38.194252,272.233612 
	C45.621017,276.320221 52.809010,280.163116 60.230598,284.262543 
	C72.547997,289.085785 84.631805,293.652466 96.967728,298.467468 
	C99.147743,299.433716 101.075638,300.151611 103.003540,300.869537 
z"/>
<path fill="#B3B3B3" opacity="1.000000" stroke="none" 
	d="
M37.955486,271.989899 
	C24.656858,262.774567 12.396577,252.574203 5.251308,237.520432 
	C4.075098,235.042374 2.895068,232.566132 1.358401,230.044525 
	C1.000000,223.645599 1.000000,217.291214 1.000000,210.468414 
	C4.962953,197.742249 11.399161,186.983887 21.126949,178.492462 
	C26.555016,173.754288 32.551674,169.667480 38.667519,165.542984 
	C38.798523,167.092163 38.593094,168.394318 38.303940,169.677582 
	C32.589527,195.038116 37.416603,217.963852 53.948433,238.450378 
	C43.069004,247.228729 37.150177,258.007111 37.955486,271.989899 
z"/>
<path fill="#B4B2B2" opacity="1.000000" stroke="none" 
	d="
M513.000000,225.533142 
	C509.876801,235.729187 505.898438,245.004684 498.503845,252.445404 
	C493.955872,234.797394 489.707520,217.372772 485.588989,199.917526 
	C483.001617,188.951599 480.608978,177.939697 478.128998,166.948425 
	C485.951324,173.997162 494.623260,180.334534 501.316864,188.328400 
	C506.325134,194.309555 508.783325,202.426010 512.688477,209.795837 
	C513.000000,215.022095 513.000000,220.044189 513.000000,225.533142 
z"/>
<path fill="#FFFFFF" opacity="1.000000" stroke="none" 
	d="
M1.000000,241.416656 
	C1.199112,242.533585 1.398225,244.067184 1.298669,245.800385 
	C1.000000,244.611115 1.000000,243.222214 1.000000,241.416656 
z"/>
<path fill="#FFA91F" opacity="1.000000" stroke="none" 
	d="
M132.942368,113.169968 
	C141.893494,114.757759 149.756531,118.850540 157.757263,124.132927 
	C159.292389,125.572037 160.246933,126.743034 161.411148,127.642677 
	C173.088669,136.666489 181.319016,148.185043 186.505432,161.956970 
	C187.538589,164.700424 188.801300,167.357468 189.962830,170.438766 
	C189.987122,172.111740 190.006744,173.400284 189.716400,174.872116 
	C178.890274,180.320419 173.467926,188.710571 174.068024,200.587540 
	C174.482193,208.784851 179.466766,214.527100 184.636734,219.963470 
	C182.794968,220.370926 181.366470,220.806961 179.907120,220.974564 
	C169.751389,222.140915 160.035873,224.944550 151.971039,231.249573 
	C148.779282,233.744873 147.229630,238.340607 144.653015,242.288025 
	C144.232681,248.421799 144.091644,254.247528 143.606781,260.178253 
	C140.190643,261.227356 137.118347,262.171478 133.645462,263.074707 
	C129.338943,261.776093 125.310822,260.802887 121.557198,259.190613 
	C116.576439,257.051208 111.809982,254.412903 106.690475,251.787567 
	C101.620750,246.734161 96.811981,241.882172 91.895439,236.799622 
	C91.506332,236.392715 91.225006,236.216370 90.941345,236.057480 
	C90.939011,236.074936 90.905960,236.096436 90.906433,235.738174 
	C81.487167,220.531036 75.259277,204.801041 75.928658,186.738678 
	C76.901871,160.477463 88.056549,139.751099 109.510803,124.950424 
	C116.638214,120.033417 125.093925,117.041824 132.942368,113.169968 
z"/>
<path fill="#FFD41D" opacity="1.000000" stroke="none" 
	d="
M386.096466,107.943855 
	C405.944336,112.550995 420.720093,124.234009 431.948151,140.846725 
	C432.759583,142.047256 433.401733,143.362198 434.425781,145.265015 
	C436.865051,151.146194 439.001129,156.386292 441.018372,161.972229 
	C435.946838,169.590530 430.994171,176.863007 425.715302,184.013519 
	C418.061371,174.947250 410.733612,166.002975 403.129700,156.721634 
	C402.063141,158.149918 401.207397,159.131195 400.532654,160.224228 
	C390.484558,176.501022 380.513916,192.825882 370.411041,209.068512 
	C364.095978,219.221298 357.590118,229.255417 351.024963,239.013702 
	C348.189484,235.329361 345.262787,232.134949 342.848572,228.591400 
	C331.543610,211.997894 326.138550,194.006348 328.857758,173.650589 
	C331.139282,156.571152 338.047455,142.085831 349.806305,129.630737 
	C359.894928,118.944763 372.275879,112.286980 386.096466,107.943855 
z"/>
<path fill="#A3E261" opacity="1.000000" stroke="none" 
	d="
M273.948608,76.161728 
	C282.070160,72.211563 290.254974,68.384422 298.284088,64.254547 
	C301.810577,62.440666 303.819397,62.688358 305.389435,66.697472 
	C310.269501,79.158691 315.680511,91.417915 320.311188,103.967453 
	C321.798645,107.998642 321.501709,112.688263 322.010864,117.946945 
	C321.536560,123.438026 321.339813,128.104263 320.562988,132.671844 
	C316.888611,154.277695 306.322906,171.805344 288.685730,185.346893 
	C286.308197,186.681000 284.230560,187.902222 282.005615,188.722534 
	C281.679352,179.256058 277.390900,172.232285 270.909424,165.843063 
	C271.116608,157.618988 272.224579,149.745773 271.356659,142.096786 
	C269.498322,125.719963 260.569702,113.091476 248.145020,102.562378 
	C250.738647,99.136879 252.872925,95.696053 255.681381,92.942978 
	C261.582855,87.157867 267.838409,81.733925 273.948608,76.161728 
z"/>
<path fill="#E2901A" opacity="1.000000" stroke="none" 
	d="
M132.591919,112.969856 
	C125.093925,117.041824 116.638214,120.033417 109.510803,124.950424 
	C88.056549,139.751099 76.901871,160.477463 75.928658,186.738678 
	C75.259277,204.801041 81.487167,220.531036 90.532677,235.720734 
	C87.765930,235.384827 85.373405,234.708115 82.609695,233.841080 
	C72.268730,231.472183 63.007587,233.718445 54.097633,238.157532 
	C37.416603,217.963852 32.589527,195.038116 38.303940,169.677582 
	C38.593094,168.394318 38.798523,167.092163 38.966766,165.390854 
	C43.238777,152.661819 49.636345,141.498260 59.127533,132.505585 
	C72.964279,119.395576 89.299500,111.321106 108.696991,111.111809 
	C116.538284,111.027206 124.392921,112.180023 132.591919,112.969856 
z"/>
<path fill="#F94848" opacity="1.000000" stroke="none" 
	d="
M426.041473,184.135468 
	C430.994171,176.863007 435.946838,169.590530 441.277649,161.819962 
	C443.790314,157.592377 445.924866,153.862900 448.059418,150.133423 
	C453.329315,142.912415 458.596313,135.689270 463.871643,128.472214 
	C464.909363,127.052574 465.979065,125.656334 467.629425,123.455162 
	C471.245209,138.312073 474.632050,152.228256 478.073944,166.546432 
	C480.608978,177.939697 483.001617,188.951599 485.588989,199.917526 
	C489.707520,217.372772 493.955872,234.797394 498.244415,252.637802 
	C494.806549,256.403351 491.273590,259.766052 487.367340,262.836884 
	C485.651825,260.678253 484.378693,258.757080 482.956635,256.953308 
	C469.826080,240.297897 456.632324,223.692200 443.537872,207.008514 
	C437.611694,199.457962 431.867981,191.764236 426.041473,184.135468 
z"/>
<path fill="#EFC71E" opacity="1.000000" stroke="none" 
	d="
M288.985596,185.234009 
	C306.322906,171.805344 316.888611,154.277695 320.562988,132.671844 
	C321.339813,128.104263 321.536560,123.438026 322.045532,118.392120 
	C331.085693,114.309616 339.878082,109.986359 349.129089,107.168678 
	C359.935059,103.877373 371.140442,104.106163 382.190399,106.925079 
	C383.298553,107.207771 384.489990,107.163803 385.869629,107.607643 
	C372.275879,112.286980 359.894928,118.944763 349.806305,129.630737 
	C338.047455,142.085831 331.139282,156.571152 328.857758,173.650589 
	C326.138550,194.006348 331.543610,211.997894 342.848572,228.591400 
	C345.262787,232.134949 348.189484,235.329361 350.958313,239.339203 
	C348.980438,243.383789 346.924347,246.773804 344.588531,249.982117 
	C340.863098,245.183029 336.854980,241.328583 330.716858,239.728302 
	C325.699127,239.460785 320.953156,239.301529 316.223419,239.510086 
	C314.156342,239.601242 312.122498,240.445114 310.148987,240.617462 
	C322.611145,226.313477 317.703217,205.818588 300.189941,199.449036 
	C296.583344,198.749649 293.290833,198.297638 289.987488,197.437347 
	C289.646301,193.097397 289.315948,189.165695 288.985596,185.234009 
z"/>
<path fill="#93CC52" opacity="1.000000" stroke="none" 
	d="
M273.647614,75.993210 
	C267.838409,81.733925 261.582855,87.157867 255.681381,92.942978 
	C252.872925,95.696053 250.738647,99.136879 247.831635,102.448746 
	C236.511642,94.820419 224.275192,91.405884 210.608856,91.139008 
	C207.111984,91.346474 204.036652,91.609810 200.961334,91.873154 
	C202.845749,80.331070 206.116364,69.251350 211.991714,59.054390 
	C215.912384,52.249905 219.879105,45.471958 224.132401,38.153572 
	C242.333313,48.466293 261.278290,57.562340 273.647614,75.993210 
z"/>
<path fill="#EFC71D" opacity="1.000000" stroke="none" 
	d="
M200.561096,91.927368 
	C204.036652,91.609810 207.111984,91.346474 210.594025,91.495392 
	C210.634995,92.997757 210.437408,94.183708 209.878830,95.163956 
	C196.649796,118.379463 189.968185,143.327255 189.958160,170.054352 
	C188.801300,167.357468 187.538589,164.700424 186.505432,161.956970 
	C181.319016,148.185043 173.088669,136.666489 161.411148,127.642677 
	C160.246933,126.743034 159.292389,125.572037 158.092346,124.216881 
	C166.977966,106.602425 181.121948,96.055565 200.561096,91.927368 
z"/>
<path fill="#B4B2B2" opacity="1.000000" stroke="none" 
	d="
M447.685547,150.060501 
	C445.924866,153.862900 443.790314,157.592377 441.396484,161.474121 
	C439.001129,156.386292 436.865051,151.146194 434.610321,145.544678 
	C438.764984,146.784698 443.038361,148.386139 447.685547,150.060501 
z"/>
<path fill="#F96B6A" opacity="1.000000" stroke="none" 
	d="
M344.868256,250.163818 
	C346.924347,246.773804 348.980438,243.383789 351.103210,239.668274 
	C357.590118,229.255417 364.095978,219.221298 370.411041,209.068512 
	C380.513916,192.825882 390.484558,176.501022 400.532654,160.224228 
	C401.207397,159.131195 402.063141,158.149918 403.129700,156.721634 
	C410.733612,166.002975 418.061371,174.947250 425.715302,184.013504 
	C431.867981,191.764236 437.611694,199.457962 443.537872,207.008514 
	C456.632324,223.692200 469.826080,240.297897 482.956635,256.953308 
	C484.378693,258.757080 485.651825,260.678253 487.027100,262.917816 
	C475.961304,273.664886 462.623749,280.473724 448.959503,286.555420 
	C413.420441,302.373108 375.948547,311.090088 337.514221,316.082886 
	C333.885559,316.554260 330.260101,317.050415 326.255005,317.100220 
	C326.114319,313.384277 326.730286,310.078003 326.514130,306.827026 
	C325.985840,298.880920 321.433350,293.058472 316.159912,288.002014 
	C321.724152,287.680695 326.855560,287.337494 332.340515,286.956787 
	C336.760803,283.464386 341.744781,280.650085 344.699951,276.418823 
	C350.525696,268.077484 349.129272,258.956543 344.868256,250.163818 
z"/>
<path fill="#378DC1" opacity="1.000000" stroke="none" 
	d="
M331.986938,286.994263 
	C326.855560,287.337494 321.724152,287.680695 315.812744,287.956787 
	C311.622955,286.504486 308.638153,285.627411 304.946747,288.260437 
	C294.841827,295.468231 291.145386,307.473267 295.921722,319.831726 
	C278.584869,320.227264 261.248016,320.622803 243.446060,320.492645 
	C242.971252,295.864960 242.696243,271.758606 243.090759,247.663208 
	C243.235672,238.812973 239.540146,232.751572 232.175766,229.190887 
	C225.374756,225.902557 217.986389,223.828995 211.051132,220.921906 
	C213.575684,218.602188 216.020905,216.697845 218.214249,214.537766 
	C224.664047,208.185822 224.284027,200.026779 224.330292,191.732269 
	C226.760178,191.146103 228.834702,190.743179 230.836777,190.354324 
	C232.346634,169.395950 246.133804,158.459793 263.945251,163.989960 
	C253.775070,168.663864 248.441162,176.674164 248.252747,187.169662 
	C248.083527,196.595749 252.603058,204.267120 260.942169,209.404831 
	C263.881836,211.215958 266.465820,211.394409 269.153656,209.259201 
	C272.124268,206.899384 275.067047,204.504532 278.177307,201.826233 
	C278.225647,201.330261 278.118561,201.132980 277.993896,200.957428 
	C277.976379,200.979187 277.952423,201.029648 278.318176,201.199402 
	C282.455414,200.194626 286.226868,199.020111 289.998352,197.845612 
	C293.290833,198.297638 296.583344,198.749649 299.804169,199.550293 
	C281.709747,207.560608 278.327423,230.361450 293.364014,242.830002 
	C299.335968,247.782028 305.971344,247.034378 310.073547,240.947189 
	C312.122498,240.445114 314.156342,239.601242 316.223419,239.510086 
	C320.953156,239.301529 325.699127,239.460785 330.522949,240.004547 
	C328.919250,241.589600 327.213257,242.613419 325.545898,243.696625 
	C317.599396,248.859146 314.529510,256.869781 315.343719,265.566895 
	C316.291443,275.690247 321.488281,283.701202 331.986938,286.994263 
M282.900482,291.483154 
	C285.585754,288.831177 288.705719,286.492371 290.880920,283.472931 
	C300.164154,270.586517 295.495758,255.968369 283.863892,247.945480 
	C281.175293,246.091064 278.375702,245.621780 275.520386,247.364655 
	C270.319031,250.539520 266.098175,254.511032 263.943115,260.512604 
	C259.787872,272.084442 264.190979,284.787903 274.149811,290.898987 
	C277.012054,292.655365 279.202667,294.454407 282.900482,291.483154 
z"/>
<path fill="#FBE275" opacity="1.000000" stroke="none" 
	d="
M210.856720,221.220413 
	C217.986389,223.828995 225.374756,225.902557 232.175766,229.190887 
	C239.540146,232.751572 243.235672,238.812973 243.090759,247.663208 
	C242.696243,271.758606 242.971252,295.864960 242.980560,320.423767 
	C221.254959,319.263672 199.529724,317.646820 177.397247,315.511444 
	C176.992645,300.034912 176.940018,285.076569 177.043167,270.119263 
	C177.064529,267.018951 176.286636,265.565460 172.913147,264.655334 
	C167.039352,263.070648 161.179398,260.988220 155.779572,258.209137 
	C149.423615,254.937973 144.196732,250.285950 144.932312,241.979980 
	C147.229630,238.340607 148.779282,233.744873 151.971039,231.249573 
	C160.035873,224.944550 169.751389,222.140915 179.907120,220.974564 
	C181.366470,220.806961 182.794968,220.370926 185.098938,220.038696 
	C191.617828,220.056519 197.275558,220.094772 202.944031,220.097809 
	C202.954803,220.062592 202.881485,220.057495 202.981781,220.225204 
	C203.082092,220.392914 203.445175,220.529938 203.445175,220.529938 
	C203.445175,220.529938 203.801544,220.376709 204.223068,220.534058 
	C206.715302,220.867737 208.786011,221.044067 210.856720,221.220413 
M200.169266,240.014664 
	C190.933716,239.885895 181.687851,239.673340 171.938751,243.455643 
	C186.943237,248.417465 200.964233,248.147324 216.150543,243.479782 
	C212.835052,242.539810 210.647141,241.810501 208.407623,241.314102 
	C205.994141,240.779144 203.532288,240.462326 200.169266,240.014664 
z"/>
<path fill="#DCC560" opacity="1.000000" stroke="none" 
	d="
M144.653015,242.288010 
	C144.196732,250.285950 149.423615,254.937973 155.779572,258.209137 
	C161.179398,260.988220 167.039352,263.070648 172.913147,264.655334 
	C176.286636,265.565460 177.064529,267.018951 177.043167,270.119263 
	C176.940018,285.076569 176.992645,300.034912 176.980133,315.453491 
	C166.275070,314.237640 155.579895,312.561218 144.511292,310.341492 
	C144.075424,293.223206 144.013016,276.648224 143.950592,260.073273 
	C144.091644,254.247528 144.232681,248.421799 144.653015,242.288010 
z"/>
<path fill="#388CC1" opacity="1.000000" stroke="none" 
	d="
M143.606781,260.178253 
	C144.013016,276.648224 144.075424,293.223206 144.118271,310.237274 
	C130.665573,307.422577 117.232422,304.168793 103.401413,300.892273 
	C101.075638,300.151611 99.147743,299.433716 97.200577,298.180542 
	C106.898705,289.423523 111.445930,278.910461 111.563255,266.229370 
	C119.363930,265.190704 126.704994,264.153168 134.046051,263.115601 
	C137.118347,262.171478 140.190643,261.227356 143.606781,260.178253 
z"/>
<path fill="#4DA1DF" opacity="1.000000" stroke="none" 
	d="
M296.378235,319.879730 
	C291.145386,307.473267 294.841827,295.468231 304.946747,288.260437 
	C308.638153,285.627411 311.622955,286.504486 315.379852,287.934937 
	C321.433350,293.058472 325.985840,298.880920 326.514130,306.827026 
	C326.730286,310.078003 326.114319,313.384277 325.850800,317.035614 
	C316.161377,318.246429 306.498047,319.087067 296.378235,319.879730 
z"/>
<path fill="#F94949" opacity="1.000000" stroke="none" 
	d="
M111.103645,266.230469 
	C111.445930,278.910461 106.898705,289.423523 96.948456,297.932220 
	C84.631805,293.652466 72.547997,289.085785 60.224865,283.866547 
	C55.375881,270.756042 56.531841,258.931763 64.070824,247.913696 
	C68.728302,241.106903 75.704254,237.334839 82.980888,234.031403 
	C85.373405,234.708115 87.765930,235.384827 90.532211,236.078979 
	C90.905960,236.096436 90.939011,236.074936 91.038895,236.293732 
	C91.426926,236.685089 91.715073,236.857635 92.003220,237.030182 
	C96.811981,241.882172 101.620750,246.734161 106.742752,252.163284 
	C108.405212,257.237091 109.754433,261.733795 111.103645,266.230469 
z"/>
<path fill="#E23E3E" opacity="1.000000" stroke="none" 
	d="
M82.609695,233.841080 
	C75.704254,237.334839 68.728302,241.106903 64.070824,247.913696 
	C56.531841,258.931763 55.375881,270.756042 59.991268,283.610016 
	C52.809010,280.163116 45.621017,276.320221 38.194252,272.233612 
	C37.150177,258.007111 43.069004,247.228729 53.948433,238.450378 
	C63.007587,233.718445 72.268730,231.472183 82.609695,233.841080 
z"/>
<path fill="#FED41D" opacity="1.000000" stroke="none" 
	d="
M264.139313,163.683182 
	C246.133804,158.459793 232.346634,169.395950 230.836777,190.354324 
	C228.834702,190.743179 226.760178,191.146103 224.062973,191.517426 
	C220.474442,182.873779 214.988556,176.801407 205.639389,174.100250 
	C200.168442,174.217010 195.097397,174.452927 190.026352,174.688843 
	C190.006744,173.400284 189.987122,172.111740 189.962830,170.438766 
	C189.968185,143.327255 196.649796,118.379463 209.878830,95.163956 
	C210.437408,94.183708 210.634995,92.997757 211.015564,91.551254 
	C224.275192,91.405884 236.511642,94.820419 247.677673,102.744957 
	C260.569702,113.091476 269.498322,125.719963 271.356659,142.096786 
	C272.224579,149.745773 271.116608,157.618988 270.556915,165.757812 
	C268.186157,165.311096 266.162750,164.497147 264.139313,163.683182 
z"/>
<path fill="#388DC0" opacity="1.000000" stroke="none" 
	d="
M189.716400,174.872131 
	C195.097397,174.452927 200.168442,174.217010 205.564270,174.424408 
	C204.992264,175.550217 204.140900,176.304581 203.191635,176.903961 
	C194.543564,182.364151 189.506439,193.364182 191.243408,202.372177 
	C192.708862,209.972107 197.158768,215.450165 202.933273,220.133026 
	C197.275558,220.094772 191.617828,220.056519 185.497925,219.943054 
	C179.466766,214.527100 174.482193,208.784851 174.068024,200.587540 
	C173.467926,188.710571 178.890274,180.320419 189.716400,174.872131 
z"/>
<path fill="#E2901A" opacity="1.000000" stroke="none" 
	d="
M111.563255,266.229370 
	C109.754433,261.733795 108.405212,257.237091 107.003723,252.364700 
	C111.809982,254.412903 116.576439,257.051208 121.557198,259.190613 
	C125.310822,260.802887 129.338943,261.776093 133.645462,263.074707 
	C126.704994,264.153168 119.363930,265.190704 111.563255,266.229370 
z"/>
<path fill="#E2901A" opacity="1.000000" stroke="none" 
	d="
M91.895432,236.799622 
	C91.715073,236.857635 91.426926,236.685089 91.041229,236.276276 
	C91.225006,236.216370 91.506332,236.392715 91.895432,236.799622 
z"/>
<path fill="#4DA1DF" opacity="1.000000" stroke="none" 
	d="
M263.945251,163.989960 
	C266.162750,164.497147 268.186157,165.311096 270.562103,166.210297 
	C277.390900,172.232285 281.679352,179.256058 281.769348,189.022980 
	C280.437744,193.492767 279.195068,197.261215 277.952423,201.029648 
	C277.952423,201.029648 277.976379,200.979187 277.873596,201.095032 
	C277.854523,201.515579 277.938202,201.820267 278.021912,202.124939 
	C275.067047,204.504532 272.124268,206.899384 269.153656,209.259201 
	C266.465820,211.394409 263.881836,211.215958 260.942169,209.404831 
	C252.603058,204.267120 248.083527,196.595749 248.252747,187.169662 
	C248.441162,176.674164 253.775070,168.663864 263.945251,163.989960 
z"/>
<path fill="#FAD223" opacity="1.000000" stroke="none" 
	d="
M278.318176,201.199402 
	C279.195068,197.261215 280.437744,193.492767 281.916626,189.423889 
	C284.230560,187.902222 286.308197,186.681000 288.685730,185.346893 
	C289.315948,189.165695 289.646301,193.097397 289.987488,197.437347 
	C286.226868,199.020111 282.455414,200.194626 278.318176,201.199402 
z"/>
<path fill="#4DA1DF" opacity="1.000000" stroke="none" 
	d="
M310.148987,240.617462 
	C305.971344,247.034378 299.335968,247.782028 293.364014,242.830002 
	C278.327423,230.361450 281.709747,207.560608 300.118286,199.797668 
	C317.703217,205.818588 322.611145,226.313477 310.148987,240.617462 
z"/>
<path fill="#4CA1DF" opacity="1.000000" stroke="none" 
	d="
M332.340515,286.956787 
	C321.488281,283.701202 316.291443,275.690247 315.343719,265.566895 
	C314.529510,256.869781 317.599396,248.859146 325.545898,243.696625 
	C327.213257,242.613419 328.919250,241.589600 330.801331,240.262161 
	C336.854980,241.328583 340.863098,245.183029 344.588531,249.982117 
	C349.129272,258.956543 350.525696,268.077484 344.699951,276.418823 
	C341.744781,280.650085 336.760803,283.464386 332.340515,286.956787 
z"/>
<path fill="#4CA1DF" opacity="1.000000" stroke="none" 
	d="
M282.594421,291.676056 
	C279.202667,294.454407 277.012054,292.655365 274.149811,290.898987 
	C264.190979,284.787903 259.787872,272.084442 263.943115,260.512604 
	C266.098175,254.511032 270.319031,250.539520 275.520386,247.364655 
	C278.375702,245.621780 281.175293,246.091064 283.863892,247.945480 
	C295.495758,255.968369 300.164154,270.586517 290.880920,283.472931 
	C288.705719,286.492371 285.585754,288.831177 282.594421,291.676056 
z"/>
<path fill="#4DA1DF" opacity="1.000000" stroke="none" 
	d="
M202.944031,220.097809 
	C197.158768,215.450165 192.708862,209.972107 191.243408,202.372177 
	C189.506439,193.364182 194.543564,182.364151 203.191635,176.903961 
	C204.140900,176.304581 204.992264,175.550217 205.964172,174.543549 
	C214.988556,176.801407 220.474442,182.873779 223.707581,191.700684 
	C224.284027,200.026779 224.664047,208.185822 218.214249,214.537766 
	C216.020905,216.697845 213.575684,218.602188 211.051132,220.921906 
	C208.786011,221.044067 206.715302,220.867737 204.081329,220.455734 
	C203.315674,220.127563 203.103470,220.073380 202.881485,220.057495 
	C202.881485,220.057495 202.954803,220.062592 202.944031,220.097809 
z"/>
<path fill="#FAD223" opacity="1.000000" stroke="none" 
	d="
M278.177307,201.826233 
	C277.938202,201.820267 277.854523,201.515579 277.891113,201.073288 
	C278.118561,201.132980 278.225647,201.330261 278.177307,201.826233 
z"/>
<path fill="#DEC65F" opacity="1.000000" stroke="none" 
	d="
M200.630402,240.032486 
	C203.532288,240.462326 205.994141,240.779144 208.407623,241.314102 
	C210.647141,241.810501 212.835052,242.539810 216.150543,243.479782 
	C200.964233,248.147324 186.943237,248.417465 171.938751,243.455643 
	C181.687851,239.673340 190.933716,239.885895 200.630402,240.032486 
z"/>
<path fill="#388DC0" opacity="1.000000" stroke="none" 
	d="
M202.981781,220.225204 
	C203.103470,220.073380 203.315674,220.127563 203.659821,220.298386 
	C203.801544,220.376709 203.445175,220.529938 203.445175,220.529938 
	C203.445175,220.529938 203.082092,220.392914 202.981781,220.225204 
z"/>
</svg>