<svg version="1.1" id="Layer_1" xmlns="http://www.w3.org/2000/svg" xmlns:xlink="http://www.w3.org/1999/xlink" x="0px" y="0px"
	 width="100%" viewBox="0 0 512 512" enable-background="new 0 0 512 512" xml:space="preserve">
<path fill="#FFFFFF" opacity="1.000000" stroke="none" 
	d="
M513.000000,155.000000 
	C513.000000,274.291504 513.000000,393.583008 513.000000,512.937256 
	C342.434998,512.937256 171.869949,512.937256 1.000000,512.937256 
	C1.000000,393.976837 1.000000,274.953430 1.360608,155.573822 
	C4.365087,167.002213 16.420229,176.145859 27.055002,174.869339 
	C34.199932,174.011703 41.237999,172.067383 48.245586,170.298996 
	C68.974625,165.067947 89.664795,159.682877 110.016663,154.448959 
	C99.887939,164.589066 89.470757,174.098282 80.164734,184.592819 
	C70.839737,195.108765 63.699253,207.250122 58.862835,220.571915 
	C57.183270,225.198212 58.533527,228.054810 62.834770,230.538544 
	C61.400299,235.220871 60.150890,239.590042 58.496521,243.977203 
	C53.278042,243.567841 50.176132,245.758728 49.272415,250.422226 
	C48.283932,255.523132 47.152573,260.705872 47.119377,265.859589 
	C47.050148,276.606476 47.430897,287.371124 48.049168,298.104156 
	C49.027008,315.079346 54.365772,330.963837 61.687744,346.103882 
	C70.466667,364.256561 82.292290,380.140411 97.739998,393.419281 
	C111.115814,404.917175 123.698692,417.333435 136.753021,429.210846 
	C145.006134,436.719971 153.311569,444.189575 161.895554,451.312988 
	C175.680054,462.751953 189.887436,473.684296 203.590012,485.218170 
	C214.987152,494.811493 227.461090,501.124268 242.471878,503.207153 
	C256.751923,505.188629 270.285065,503.244415 282.484253,496.486237 
	C291.888580,491.276428 299.890869,483.542542 308.540771,476.962799 
	C329.450623,461.057098 350.383636,445.181824 371.290283,429.271851 
	C390.360077,414.759735 409.507355,400.375671 425.929535,382.706543 
	C434.735992,373.231323 442.116486,362.881561 448.051575,351.457458 
	C451.137909,345.516632 450.798370,344.132507 445.996033,339.383820 
	C447.705719,334.728546 449.367401,330.431274 451.390808,326.181824 
	C455.687256,327.033264 460.068604,324.325592 460.927887,320.003418 
	C462.785126,310.661285 465.153595,301.314941 465.819489,291.865082 
	C466.998871,275.127472 465.622833,258.442474 461.575470,242.063156 
	C457.726929,226.488495 451.157867,211.980896 442.664459,198.548615 
	C435.007080,186.438614 426.228912,175.003464 414.665100,166.081924 
	C410.333588,162.740128 406.325897,158.978561 401.435059,154.776459 
	C412.825195,157.072235 423.347412,158.709473 433.601837,161.376297 
	C448.019958,165.125946 462.144531,170.019257 476.593292,173.628250 
	C481.905182,174.955048 487.916260,174.835526 493.373077,173.940689 
	C503.946014,172.206940 509.144592,164.116714 513.000000,155.000000 
z"/>
<path fill="#FFFFFF" opacity="1.000000" stroke="none" 
	d="
M1.000000,141.000000 
	C1.000000,94.359108 1.000000,47.718216 1.000000,1.038661 
	C171.546616,1.038661 342.093262,1.038661 513.000000,1.038661 
	C513.000000,47.353607 513.000000,93.708145 512.640320,140.423523 
	C511.859375,139.577118 511.732239,138.127274 510.969116,137.201981 
	C505.992462,131.167618 501.034088,125.104164 495.758148,119.335182 
	C491.669403,114.864372 487.679474,114.729713 482.136963,117.831535 
	C478.209839,115.194870 474.475769,112.880966 470.834656,110.199295 
	C472.729431,104.467010 471.604980,101.516449 466.354340,98.836548 
	C460.489594,95.843216 454.623444,92.810478 448.570374,90.235794 
	C425.346161,80.357384 400.854187,76.290237 375.825134,75.081123 
	C370.769440,74.836899 365.630676,75.414970 360.584839,76.048820 
	C349.637177,77.424057 338.528809,78.265755 327.849335,80.835037 
	C315.463928,83.814743 303.467804,88.412544 291.002380,92.404129 
	C291.002380,89.854233 290.798767,86.896431 291.046112,83.976830 
	C291.514557,78.448074 290.038971,74.324173 284.049133,72.480453 
	C284.029449,67.725342 284.036865,63.430492 284.417542,59.073647 
	C288.772552,57.825481 291.225250,55.540550 291.035278,51.003563 
	C290.875305,47.183754 291.047943,43.351280 290.993805,39.525539 
	C290.830811,28.007565 284.617798,20.019974 275.417572,14.214151 
	C267.925537,9.486309 259.228180,9.119137 250.804871,10.158013 
	C242.241852,11.214122 234.879761,14.993981 229.172165,22.118891 
	C223.851318,28.761003 222.299942,36.345360 222.101135,44.252544 
	C221.737442,58.717583 222.004593,73.198318 221.986526,87.672478 
	C221.984772,89.078156 221.828293,90.483643 221.740097,91.947891 
	C220.878128,91.947891 220.341156,92.078377 219.898895,91.928818 
	C208.553070,88.091988 197.262634,84.084335 185.861725,80.420204 
	C179.442810,78.357231 175.694366,79.874023 171.590820,85.077591 
	C166.808762,84.653885 162.460251,84.297531 158.060944,83.544861 
	C157.267258,77.434746 154.358322,74.890831 147.615768,75.051399 
	C131.794067,75.428162 116.128677,76.677177 100.472679,79.763443 
	C77.445717,84.302742 56.077343,92.618645 36.584534,105.301422 
	C22.338223,114.570618 8.593587,124.858490 1.000000,141.000000 
z"/>
<path fill="#020101" opacity="1.000000" stroke="none" 
	d="
M482.330048,118.154297 
	C487.679474,114.729713 491.669403,114.864372 495.758148,119.335182 
	C501.034088,125.104164 505.992462,131.167618 510.969116,137.201981 
	C511.732239,138.127274 511.859375,139.577118 512.640320,140.892181 
	C513.000000,145.356903 513.000000,149.713806 513.000000,154.535355 
	C509.144592,164.116714 503.946014,172.206940 493.373077,173.940689 
	C487.916260,174.835526 481.905182,174.955048 476.593292,173.628250 
	C462.144531,170.019257 448.019958,165.125946 433.601837,161.376297 
	C423.347412,158.709473 412.825195,157.072235 401.435059,154.776459 
	C406.325897,158.978561 410.333588,162.740128 414.665100,166.081924 
	C426.228912,175.003464 435.007080,186.438614 442.664459,198.548615 
	C451.157867,211.980896 457.726929,226.488495 461.575470,242.063156 
	C465.622833,258.442474 466.998871,275.127472 465.819489,291.865082 
	C465.153595,301.314941 462.785126,310.661285 460.927887,320.003418 
	C460.068604,324.325592 455.687256,327.033264 451.079102,326.023682 
	C445.125061,322.363556 444.643250,320.781830 446.549194,313.034058 
	C455.296478,277.475220 450.614594,243.788742 432.502258,211.958237 
	C403.618103,161.197281 342.862030,133.746460 286.645782,146.229645 
	C282.870850,147.102570 279.477692,147.994797 275.143646,149.134430 
	C278.389923,151.238373 280.631958,152.645294 282.827423,154.121475 
	C303.932770,168.312195 320.401733,186.571228 330.066620,210.231552 
	C347.996918,254.126297 354.783478,299.856598 351.233124,347.123413 
	C350.700775,354.210907 349.693268,355.305328 342.684418,356.779053 
	C336.943024,355.080688 335.888550,351.041931 336.268524,346.101807 
	C339.426422,305.045105 333.869995,265.157745 320.334106,226.306427 
	C308.525085,192.411697 285.640320,168.764893 252.968246,154.862717 
	C212.768387,137.757401 172.874527,139.579926 134.114120,159.694931 
	C115.400558,169.406479 99.815941,183.019104 87.569916,200.693268 
	C87.184631,201.233002 87.057304,201.610382 86.958771,201.985443 
	C86.987579,201.983154 86.959648,201.932220 86.664207,202.101959 
	C82.239037,209.591461 77.891853,216.799637 74.058151,224.271286 
	C71.614708,229.033401 68.386017,231.359039 63.019836,230.225357 
	C58.533527,228.054810 57.183270,225.198212 58.862835,220.571915 
	C63.699253,207.250122 70.839737,195.108765 80.164734,184.592819 
	C89.470757,174.098282 99.887939,164.589066 110.016663,154.448959 
	C89.664795,159.682877 68.974625,165.067947 48.245586,170.298996 
	C41.237999,172.067383 34.199932,174.011703 27.055002,174.869339 
	C16.420229,176.145859 4.365087,167.002213 1.360608,155.108810 
	C1.000000,150.643097 1.000000,146.286194 1.000000,141.464645 
	C8.593587,124.858490 22.338223,114.570618 36.584534,105.301422 
	C56.077343,92.618645 77.445717,84.302742 100.472679,79.763443 
	C116.128677,76.677177 131.794067,75.428162 147.615768,75.051399 
	C154.358322,74.890831 157.267258,77.434746 157.913452,83.876633 
	C156.368591,90.023468 152.352173,91.169327 147.412064,91.010719 
	C128.145630,90.392174 109.217903,92.678680 90.715546,98.089828 
	C68.801682,104.498703 48.343273,113.775887 30.747501,129.231033 
	C26.647966,133.090118 22.654205,136.655090 19.127523,140.634079 
	C15.291070,144.962570 15.096972,150.037109 17.989199,154.447784 
	C20.896708,158.881760 24.849852,160.350739 30.524698,159.055359 
	C32.306091,158.648712 34.076931,158.183578 35.830990,157.671234 
	C66.343918,148.758698 97.032509,140.624161 128.688538,136.809036 
	C139.909317,135.456757 151.363174,135.178604 162.325134,132.703079 
	C192.567383,125.873520 222.082001,127.311531 251.188187,137.919037 
	C252.958023,138.564056 254.840927,138.898804 257.057281,139.478973 
	C257.390198,133.737839 254.928406,129.930084 251.012543,127.592209 
	C238.762924,120.278862 226.277649,113.360207 213.556808,106.121452 
	C203.566467,102.667229 194.040985,98.851601 184.190598,96.280746 
	C177.728531,94.594215 172.712250,92.569794 172.024368,85.144936 
	C175.694366,79.874023 179.442810,78.357231 185.861725,80.420204 
	C197.262634,84.084335 208.553070,88.091988 219.898895,91.928818 
	C220.341156,92.078377 220.878128,91.947891 221.740097,91.947891 
	C221.828293,90.483643 221.984772,89.078156 221.986526,87.672478 
	C222.004593,73.198318 221.737442,58.717583 222.101135,44.252544 
	C222.299942,36.345360 223.851318,28.761003 229.172165,22.118891 
	C234.879761,14.993981 242.241852,11.214122 250.804871,10.158013 
	C259.228180,9.119137 267.925537,9.486309 275.417572,14.214151 
	C284.617798,20.019974 290.830811,28.007565 290.993805,39.525539 
	C291.047943,43.351280 290.875305,47.183754 291.035278,51.003563 
	C291.225250,55.540550 288.772552,57.825481 284.061646,58.970272 
	C277.827057,57.923916 275.533936,54.533272 275.844269,49.063114 
	C275.984497,46.590858 275.964386,44.097504 275.829926,41.623886 
	C275.402008,33.751350 271.565247,28.867884 263.618103,26.225838 
	C260.262787,25.988464 257.271118,25.792477 254.283249,25.839285 
	C244.352783,25.994854 238.073318,32.193913 238.026810,42.101124 
	C237.940155,60.564568 237.978760,79.028778 238.044586,97.492386 
	C238.049591,98.888313 238.219818,100.967590 239.101990,101.565544 
	C244.867050,105.473251 250.511856,110.032227 256.931091,112.262619 
	C259.422668,113.128326 263.821533,108.489853 267.358154,106.369713 
	C268.783325,105.515358 270.161102,104.541374 271.673798,103.881729 
	C275.277618,102.310188 276.663361,99.749100 275.716278,95.472351 
	C275.825317,92.184799 276.140656,89.317307 275.809937,86.526367 
	C275.004547,79.730049 277.065094,74.882782 284.076202,72.940720 
	C290.038971,74.324173 291.514557,78.448074 291.046112,83.976830 
	C290.798767,86.896431 291.002380,89.854233 291.002380,92.404129 
	C303.467804,88.412544 315.463928,83.814743 327.849335,80.835037 
	C338.528809,78.265755 349.637177,77.424057 360.584839,76.048820 
	C365.630676,75.414970 370.769440,74.836899 375.825134,75.081123 
	C400.854187,76.290237 425.346161,80.357384 448.570374,90.235794 
	C454.623444,92.810478 460.489594,95.843216 466.354340,98.836548 
	C471.604980,101.516449 472.729431,104.467010 470.486633,110.308777 
	C466.314148,114.742378 462.283264,114.358719 457.873840,111.896698 
	C436.491089,99.957573 413.445923,93.365417 389.125702,91.445946 
	C360.172699,89.160835 332.080109,93.178154 304.740662,104.237289 
	C294.476990,109.353447 284.465393,114.231255 274.703735,119.566345 
	C270.092712,122.086441 268.985535,126.421844 270.987915,130.642273 
	C273.087158,135.066864 276.602875,132.999451 279.655701,132.331116 
	C297.516388,128.421097 315.499481,127.128548 333.647461,129.801773 
	C342.338226,131.081940 350.959534,132.843475 359.658295,134.057190 
	C376.267670,136.374695 393.122223,137.443619 409.488281,140.875214 
	C433.357117,145.879959 456.896729,152.464920 480.550598,158.478790 
	C488.400208,160.474472 493.203674,159.254196 496.312622,154.009109 
	C499.284302,148.995651 498.175690,143.891830 492.826813,138.354782 
	C489.016479,134.410446 485.141083,130.528931 481.244141,126.225677 
	C481.572388,123.272751 481.951202,120.713524 482.330048,118.154297 
z"/>
<path fill="#FE6243" opacity="1.000000" stroke="none" 
	d="
M287.027557,146.248901 
	C342.862030,133.746460 403.618103,161.197281 432.502258,211.958237 
	C450.614594,243.788742 455.296478,277.475220 446.549194,313.034058 
	C444.643250,320.781830 445.125061,322.363556 450.717346,325.975830 
	C449.367401,330.431274 447.705719,334.728546 445.619995,339.408478 
	C440.224091,337.950989 436.960876,340.062744 434.407288,344.248383 
	C431.211578,349.486603 428.088440,354.794708 424.517639,359.774078 
	C407.973969,382.843903 384.693085,398.598297 363.009399,415.680176 
	C371.180450,391.554657 376.340942,367.135437 377.796875,342.130524 
	C379.177063,318.426056 378.355072,294.616150 373.397858,271.343292 
	C369.684967,253.912033 364.877319,236.618591 359.176270,219.729889 
	C351.736633,197.690948 338.502594,179.235703 319.316162,165.794006 
	C309.035095,158.591248 297.820740,152.720657 287.027557,146.248901 
z"/>
<path fill="#020101" opacity="1.000000" stroke="none" 
	d="
M363.003784,416.074219 
	C384.693085,398.598297 407.973969,382.843903 424.517639,359.774078 
	C428.088440,354.794708 431.211578,349.486603 434.407288,344.248383 
	C436.960876,340.062744 440.224091,337.950989 445.571960,339.766510 
	C450.798370,344.132507 451.137909,345.516632 448.051575,351.457458 
	C442.116486,362.881561 434.735992,373.231323 425.929535,382.706543 
	C409.507355,400.375671 390.360077,414.759735 371.290283,429.271851 
	C350.383636,445.181824 329.450623,461.057098 308.540771,476.962799 
	C299.890869,483.542542 291.888580,491.276428 282.484253,496.486237 
	C270.285065,503.244415 256.751923,505.188629 242.471878,503.207153 
	C227.461090,501.124268 214.987152,494.811493 203.590012,485.218170 
	C189.887436,473.684296 175.680054,462.751953 161.895554,451.312988 
	C153.311569,444.189575 145.006134,436.719971 136.753021,429.210846 
	C123.698692,417.333435 111.115814,404.917175 97.739998,393.419281 
	C82.292290,380.140411 70.466667,364.256561 61.687744,346.103882 
	C54.365772,330.963837 49.027008,315.079346 48.049168,298.104156 
	C47.430897,287.371124 47.050148,276.606476 47.119377,265.859589 
	C47.152573,260.705872 48.283932,255.523132 49.272415,250.422226 
	C50.176132,245.758728 53.278042,243.567841 58.697151,244.266144 
	C63.999912,246.643677 65.118286,250.146194 64.313637,255.137939 
	C56.842995,301.483246 69.065079,341.925812 101.727493,375.706451 
	C112.712845,387.067963 124.580246,397.638489 136.587646,407.937317 
	C164.024902,431.470490 191.286102,455.257080 219.588791,477.718475 
	C244.113571,497.181671 282.086273,489.292938 297.062378,463.058838 
	C297.037018,463.046326 297.045929,463.101898 297.285583,463.014282 
	C297.647308,462.623077 297.769409,462.319489 298.157471,461.797241 
	C299.877441,459.353729 301.427612,457.185211 302.770630,454.895203 
	C316.166534,432.054047 325.317169,407.566254 331.047516,381.757904 
	C332.903656,373.398224 334.056244,372.212341 341.203674,371.738312 
	C346.356903,373.971283 347.380585,377.487457 346.298676,382.456604 
	C342.010895,402.149872 336.044403,421.265686 327.529175,439.558655 
	C326.915405,440.877258 326.434052,442.257477 325.891113,443.609039 
	C326.292328,443.880280 326.693542,444.151520 327.094757,444.422760 
	C339.064423,434.973236 351.034119,425.523743 363.003784,416.074219 
z"/>
<path fill="#FE7856" opacity="1.000000" stroke="none" 
	d="
M297.087769,463.071381 
	C282.086273,489.292938 244.113571,497.181671 219.588791,477.718475 
	C191.286102,455.257080 164.024902,431.470490 136.587646,407.937317 
	C124.580246,397.638489 112.712845,387.067963 101.727493,375.706451 
	C69.065079,341.925812 56.842995,301.483246 64.313637,255.137939 
	C65.118286,250.146194 63.999912,246.643677 59.102119,244.248138 
	C60.150890,239.590042 61.400299,235.220871 62.834770,230.538544 
	C68.386017,231.359039 71.614708,229.033401 74.058151,224.271286 
	C77.891853,216.799637 82.239037,209.591461 86.689186,202.513275 
	C86.816513,203.892670 86.753098,205.071121 86.411217,206.162338 
	C79.283569,228.912125 77.862946,252.059387 82.038307,275.475433 
	C87.162041,304.210114 99.613251,329.422577 120.537155,349.857269 
	C137.403976,366.329681 155.037216,382.024048 172.501663,397.874908 
	C180.599823,405.224915 189.042816,412.200958 197.441010,419.213043 
	C209.402405,429.200165 221.531967,438.986267 233.468735,449.002411 
	C246.089386,459.592377 260.343140,466.115143 276.989380,465.848145 
	C283.701965,465.740479 290.389069,464.044525 297.087769,463.071381 
z"/>
<path fill="#7DD43D" opacity="1.000000" stroke="none" 
	d="
M31.059048,129.119324 
	C48.343273,113.775887 68.801682,104.498703 90.715546,98.089828 
	C109.217903,92.678680 128.145630,90.392174 147.412064,91.010719 
	C152.352173,91.169327 156.368591,90.023468 157.964218,84.272949 
	C162.460251,84.297531 166.808762,84.653885 171.590820,85.077591 
	C172.712250,92.569794 177.728531,94.594215 184.190598,96.280746 
	C194.040985,98.851601 203.566467,102.667229 213.262390,106.348404 
	C211.987091,106.715675 210.668716,106.786591 209.373276,106.646042 
	C201.504135,105.792290 193.657578,104.369667 185.771133,104.106483 
	C165.714645,103.437164 145.782440,104.973404 125.895370,107.876114 
	C100.329842,111.607651 75.230675,117.261917 50.401207,124.292114 
	C44.010551,126.101555 37.509422,127.520813 31.059048,129.119324 
z"/>
<path fill="#6CC62A" opacity="1.000000" stroke="none" 
	d="
M305.095276,104.186478 
	C332.080109,93.178154 360.172699,89.160835 389.125702,91.445946 
	C413.445923,93.365417 436.491089,99.957573 457.873840,111.896698 
	C462.283264,114.358719 466.314148,114.742378 470.393677,110.676544 
	C474.475769,112.880966 478.209839,115.194870 482.136963,117.831535 
	C481.951202,120.713524 481.572388,123.272751 481.010681,126.548004 
	C479.900696,127.350845 478.897949,127.712967 478.058228,127.482117 
	C469.105743,125.020966 460.285126,121.969933 451.224670,120.033539 
	C428.108307,115.093140 404.930511,110.409454 381.688202,106.104271 
	C372.612427,104.423172 363.315277,103.483513 354.087891,103.193130 
	C343.315094,102.854103 332.508545,103.604805 321.716187,103.861687 
	C316.176422,103.993546 310.635620,104.079681 305.095276,104.186478 
z"/>
<path fill="#5DAA24" opacity="1.000000" stroke="none" 
	d="
M284.049133,72.480453 
	C277.065094,74.882782 275.004547,79.730049 275.809937,86.526367 
	C276.140656,89.317307 275.825317,92.184799 275.364624,95.476303 
	C266.872620,93.728859 264.009125,90.034729 264.001526,81.745377 
	C263.984619,63.289742 263.988251,44.834091 263.983521,26.378450 
	C271.565247,28.867884 275.402008,33.751350 275.829926,41.623886 
	C275.964386,44.097504 275.984497,46.590858 275.844269,49.063114 
	C275.533936,54.533272 277.827057,57.923916 283.688385,59.032269 
	C284.036865,63.430492 284.029449,67.725342 284.049133,72.480453 
z"/>
<path fill="#FF9478" opacity="1.000000" stroke="none" 
	d="
M297.062378,463.058838 
	C290.389069,464.044525 283.701965,465.740479 276.989380,465.848145 
	C260.343140,466.115143 246.089386,459.592377 233.468735,449.002411 
	C221.531967,438.986267 209.402405,429.200165 197.441010,419.213043 
	C189.042816,412.200958 180.599823,405.224915 172.501663,397.874908 
	C155.037216,382.024048 137.403976,366.329681 120.537155,349.857269 
	C99.613251,329.422577 87.162041,304.210114 82.038307,275.475433 
	C77.862946,252.059387 79.283569,228.912125 86.411217,206.162338 
	C86.753098,205.071121 86.816513,203.892670 86.984627,202.343536 
	C86.959648,201.932220 86.987579,201.983154 87.221756,201.826141 
	C87.579918,201.289734 87.703903,200.910309 87.827881,200.530899 
	C99.815941,183.019104 115.400558,169.406479 134.114120,159.694931 
	C172.874527,139.579926 212.768387,137.757401 252.968246,154.862717 
	C285.640320,168.764893 308.525085,192.411697 320.334106,226.306427 
	C333.869995,265.157745 339.426422,305.045105 336.268524,346.101807 
	C335.888550,351.041931 336.943024,355.080688 342.672668,357.200684 
	C342.258942,362.398193 341.563110,366.982513 340.867249,371.566803 
	C334.056244,372.212341 332.903656,373.398224 331.047516,381.757904 
	C325.317169,407.566254 316.166534,432.054047 302.770630,454.895203 
	C301.427612,457.185211 299.877441,459.353729 297.941345,461.910950 
	C297.188721,462.465515 297.050934,462.751740 297.045929,463.101898 
	C297.045929,463.101898 297.037018,463.046326 297.062378,463.058838 
z"/>
<path fill="#FD5023" opacity="1.000000" stroke="none" 
	d="
M341.203674,371.738312 
	C341.563110,366.982513 342.258942,362.398193 342.966553,357.392242 
	C349.693268,355.305328 350.700775,354.210907 351.233124,347.123413 
	C354.783478,299.856598 347.996918,254.126297 330.066620,210.231552 
	C320.401733,186.571228 303.932770,168.312195 282.827423,154.121475 
	C280.631958,152.645294 278.389923,151.238373 275.143646,149.134430 
	C279.477692,147.994797 282.870850,147.102570 286.645782,146.229630 
	C297.820740,152.720657 309.035095,158.591248 319.316162,165.794006 
	C338.502594,179.235703 351.736633,197.690948 359.176270,219.729889 
	C364.877319,236.618591 369.684967,253.912033 373.397858,271.343292 
	C378.355072,294.616150 379.177063,318.426056 377.796875,342.130524 
	C376.340942,367.135437 371.180450,391.554657 363.009399,415.680176 
	C351.034119,425.523743 339.064423,434.973236 327.094757,444.422760 
	C326.693542,444.151520 326.292328,443.880280 325.891113,443.609039 
	C326.434052,442.257477 326.915405,440.877258 327.529175,439.558655 
	C336.044403,421.265686 342.010895,402.149872 346.298676,382.456604 
	C347.380585,377.487457 346.356903,373.971283 341.203674,371.738312 
z"/>
<path fill="#5DAB24" opacity="1.000000" stroke="none" 
	d="
M304.740662,104.237289 
	C310.635620,104.079681 316.176422,103.993546 321.716187,103.861687 
	C332.508545,103.604805 343.315094,102.854103 354.087891,103.193130 
	C363.315277,103.483513 372.612427,104.423172 381.688202,106.104271 
	C404.930511,110.409454 428.108307,115.093140 451.224670,120.033539 
	C460.285126,121.969933 469.105743,125.020966 478.058228,127.482117 
	C478.897949,127.712967 479.900696,127.350845 481.061249,126.941711 
	C485.141083,130.528931 489.016479,134.410446 492.826813,138.354782 
	C498.175690,143.891830 499.284302,148.995651 496.312622,154.009109 
	C493.203674,159.254196 488.400208,160.474472 480.550598,158.478790 
	C456.896729,152.464920 433.357117,145.879959 409.488281,140.875214 
	C393.122223,137.443619 376.267670,136.374695 359.658295,134.057190 
	C350.959534,132.843475 342.338226,131.081940 333.647461,129.801773 
	C315.499481,127.128548 297.516388,128.421097 279.655701,132.331116 
	C276.602875,132.999451 273.087158,135.066864 270.987915,130.642273 
	C268.985535,126.421844 270.092712,122.086441 274.703735,119.566345 
	C284.465393,114.231255 294.476990,109.353447 304.740662,104.237289 
z"/>
<path fill="#6CC72A" opacity="1.000000" stroke="none" 
	d="
M30.747501,129.231018 
	C37.509422,127.520813 44.010551,126.101555 50.401207,124.292114 
	C75.230675,117.261917 100.329842,111.607651 125.895370,107.876114 
	C145.782440,104.973404 165.714645,103.437164 185.771133,104.106483 
	C193.657578,104.369667 201.504135,105.792290 209.373276,106.646042 
	C210.668716,106.786591 211.987091,106.715675 213.589294,106.515549 
	C226.277649,113.360207 238.762924,120.278862 251.012543,127.592209 
	C254.928406,129.930084 257.390198,133.737839 257.057281,139.478973 
	C254.840927,138.898804 252.958023,138.564056 251.188187,137.919037 
	C222.082001,127.311531 192.567383,125.873520 162.325134,132.703079 
	C151.363174,135.178604 139.909317,135.456757 128.688538,136.809036 
	C97.032509,140.624161 66.343918,148.758698 35.830990,157.671234 
	C34.076931,158.183578 32.306091,158.648712 30.524698,159.055359 
	C24.849852,160.350739 20.896708,158.881760 17.989199,154.447784 
	C15.096972,150.037109 15.291070,144.962570 19.127523,140.634079 
	C22.654205,136.655090 26.647966,133.090118 30.747501,129.231018 
z"/>
<path fill="#4E8F1E" opacity="1.000000" stroke="none" 
	d="
M263.618103,26.225838 
	C263.988251,44.834091 263.984619,63.289742 264.001526,81.745377 
	C264.009125,90.034729 266.872620,93.728859 275.277039,95.931183 
	C276.663361,99.749100 275.277618,102.310188 271.673798,103.881729 
	C270.161102,104.541374 268.783325,105.515358 267.358154,106.369713 
	C263.821533,108.489853 259.422668,113.128326 256.931091,112.262619 
	C250.511856,110.032227 244.867050,105.473251 239.101990,101.565544 
	C238.219818,100.967590 238.049591,98.888313 238.044586,97.492386 
	C237.978760,79.028778 237.940155,60.564568 238.026810,42.101124 
	C238.073318,32.193913 244.352783,25.994854 254.283249,25.839285 
	C257.271118,25.792477 260.262787,25.988464 263.618103,26.225838 
z"/>
<path fill="#FE7856" opacity="1.000000" stroke="none" 
	d="
M87.569916,200.693268 
	C87.703903,200.910309 87.579918,201.289734 87.192955,201.828445 
	C87.057304,201.610382 87.184631,201.233002 87.569916,200.693268 
z"/>
<path fill="#FE7856" opacity="1.000000" stroke="none" 
	d="
M297.285583,463.014282 
	C297.050934,462.751740 297.188721,462.465515 297.675385,462.129547 
	C297.769409,462.319489 297.647308,462.623077 297.285583,463.014282 
z"/>
</svg>