<svg version="1.1" id="Layer_1" xmlns="http://www.w3.org/2000/svg" xmlns:xlink="http://www.w3.org/1999/xlink" x="0px" y="0px"
	 width="100%" viewBox="0 0 512 512" enable-background="new 0 0 512 512" xml:space="preserve">
<path fill="#FFFFFF" opacity="1.000000" stroke="none" 
	d="
M386.000000,513.000000 
	C257.711884,513.000000 129.423752,513.000000 1.067811,513.000000 
	C1.067811,342.438690 1.067811,171.877335 1.067811,1.000000 
	C108.689789,1.000000 216.379883,1.000000 324.425903,1.361207 
	C309.605774,7.667197 296.070251,16.296263 283.683044,26.812143 
	C278.291656,31.389082 272.872894,35.933773 267.700470,40.295856 
	C264.878998,35.990452 260.984680,29.947393 256.989685,23.971643 
	C247.092728,9.167688 229.013351,9.641090 219.847336,20.778400 
	C210.303360,32.374943 201.938507,44.847263 196.073166,58.757679 
	C190.639954,71.643166 186.862259,84.977798 186.992325,99.154808 
	C187.030014,103.263870 186.998108,107.373566 186.998108,113.063072 
	C182.101578,106.192741 178.054718,100.490379 173.982346,94.806297 
	C167.767593,86.131996 161.740051,77.312485 155.229767,68.865410 
	C151.608398,64.166695 147.697006,63.960304 143.748825,66.664017 
	C139.775162,69.385193 140.280441,75.800827 142.317215,78.703796 
	C149.926819,89.549591 157.758087,100.239746 165.489761,111.000076 
	C167.732635,114.121552 169.920609,117.282463 172.133743,120.425301 
	C159.070969,115.859573 146.179779,113.381264 132.812347,112.961182 
	C113.654999,112.359161 95.444717,116.829002 77.639717,123.176224 
	C60.578957,129.258118 57.967739,147.125305 66.489624,158.056900 
	C71.277481,164.198593 75.822647,170.529480 80.124771,176.302277 
	C71.896698,180.751511 62.962326,184.828903 54.841995,190.148849 
	C42.398903,198.300781 30.436337,207.265579 22.343754,220.186371 
	C17.438894,228.017563 20.106705,240.910172 27.270123,245.909485 
	C33.714462,250.406937 40.609859,254.395767 47.694519,257.801331 
	C55.591930,261.597565 56.216923,260.864868 62.350471,255.912903 
	C66.831604,257.012573 70.916519,258.045929 75.008499,259.485718 
	C74.447578,265.051788 77.093849,268.140503 81.853226,268.844635 
	C88.942184,269.893433 96.111938,270.588287 103.270699,270.905304 
	C108.033401,271.116211 112.836891,270.405914 116.433441,270.181946 
	C115.276276,282.317352 113.885063,294.246887 113.112831,306.216339 
	C112.767517,311.568726 113.598267,317.006409 114.015152,322.396118 
	C114.496300,328.616547 116.692215,330.694489 122.897781,331.405304 
	C123.708572,335.885742 124.437080,339.944672 125.022415,344.326904 
	C120.759247,347.653656 119.462555,351.607819 121.153786,356.398132 
	C122.217537,359.411133 123.489021,362.355164 124.759674,365.290131 
	C137.082428,393.753510 156.040955,416.747162 181.850266,433.961151 
	C204.061234,448.775085 227.413910,461.592072 251.564682,472.953979 
	C272.163055,482.644623 293.291199,490.956757 315.088226,497.589142 
	C334.839600,503.599060 354.774567,508.668030 375.333435,511.040100 
	C378.916626,511.453552 382.445862,512.334839 386.000000,513.000000 
z"/>
<path fill="#FFFFFF" opacity="1.000000" stroke="none" 
	d="
M338.000000,1.000000 
	C396.300934,1.000000 454.601898,1.000000 512.940857,1.000000 
	C512.940857,171.666672 512.940857,342.333344 512.940857,513.000000 
	C479.566925,513.000000 446.252106,513.000000 412.599060,512.619995 
	C414.146942,511.827148 416.046844,511.468628 417.917023,510.993164 
	C440.334137,505.293732 457.557587,492.343903 467.732300,471.758759 
	C473.849762,459.382172 478.019043,445.858704 481.589722,432.457855 
	C485.316223,418.472137 487.447754,404.045227 489.926147,389.750427 
	C491.066132,383.175110 491.000305,376.390594 492.143066,369.815979 
	C493.690277,360.914642 493.600525,360.118164 486.056122,355.470398 
	C486.030853,350.710419 486.041138,346.409210 486.438477,342.058838 
	C491.412445,341.389252 494.058624,338.593597 493.955322,333.828186 
	C493.801727,326.742310 493.408630,319.658844 492.984192,312.582336 
	C492.384369,302.581421 492.381531,292.475220 490.836304,282.615753 
	C488.062927,264.920380 484.409332,247.360001 480.979980,229.771210 
	C477.058899,209.660355 469.148651,191.116165 457.948822,174.046066 
	C447.743683,158.491959 434.981659,145.173096 419.793427,134.448227 
	C405.963135,124.682213 391.129486,116.647598 374.423767,112.826607 
	C364.743439,110.612495 354.970062,108.805191 346.036530,106.978020 
	C348.819885,98.220879 351.977142,89.003082 354.660187,79.649261 
	C357.477966,69.825684 356.355713,67.041260 349.028625,62.477211 
	C349.030487,57.710869 349.055664,53.404766 349.465210,49.053680 
	C354.490173,48.510353 356.250031,45.669537 355.988678,41.307926 
	C355.714264,36.728355 355.543671,32.128300 354.960693,27.584282 
	C353.487823,16.104790 350.539246,5.463885 338.000000,1.000000 
z"/>
<path fill="#010101" opacity="1.000000" stroke="none" 
	d="
M337.536804,1.000000 
	C350.539246,5.463885 353.487823,16.104790 354.960693,27.584282 
	C355.543671,32.128300 355.714264,36.728355 355.988678,41.307926 
	C356.250031,45.669537 354.490173,48.510353 349.108582,48.950310 
	C343.357666,47.997898 341.253906,44.949631 340.788757,39.926006 
	C340.225677,33.844986 339.173370,27.786304 337.948303,21.796593 
	C336.909424,16.717232 333.421570,14.852461 328.677124,16.977133 
	C323.563965,19.266911 318.726471,22.172333 313.437866,24.901411 
	C300.048706,32.591866 288.827576,42.269192 279.545654,54.232082 
	C277.076813,57.414040 276.294739,60.281071 277.958221,64.216118 
	C279.816284,68.611511 280.935822,73.335625 282.182892,77.968857 
	C283.999359,84.717369 283.075928,86.702347 276.619812,89.954498 
	C269.631775,89.785660 268.370819,84.758270 267.145844,79.842926 
	C262.732635,62.134438 254.148819,46.507015 243.355469,31.986889 
	C239.554230,26.873112 235.450974,26.644806 231.539673,31.644146 
	C227.155136,37.248363 223.209229,43.195759 218.839249,49.250473 
	C191.096527,92.852310 201.747940,137.542938 223.461227,162.892609 
	C225.282776,161.489044 227.115219,160.077103 229.193787,158.599487 
	C229.758713,158.160126 230.077530,157.786423 230.417053,157.403259 
	C230.437790,157.393799 230.481201,157.409882 230.804764,157.308426 
	C236.430634,153.467636 241.438614,149.190292 247.093979,146.096298 
	C260.583923,138.716156 268.850006,128.215851 269.775787,112.451973 
	C270.058929,107.630478 273.045868,104.994949 278.312622,104.859482 
	C283.269073,106.250183 284.952759,109.543083 284.730774,114.360764 
	C284.338928,116.591805 284.121033,118.491035 284.048859,119.120140 
	C297.518372,115.712723 310.948853,112.394165 324.312042,108.823792 
	C325.799927,108.426254 327.258423,106.813087 328.130035,105.394661 
	C333.650482,96.410675 337.511658,86.730438 339.082275,76.280067 
	C340.039124,69.913513 341.697662,64.380356 349.051971,62.937450 
	C356.355713,67.041260 357.477966,69.825684 354.660187,79.649261 
	C351.977142,89.003082 348.819885,98.220879 346.036530,106.978020 
	C354.970062,108.805191 364.743439,110.612495 374.423767,112.826607 
	C391.129486,116.647598 405.963135,124.682213 419.793427,134.448227 
	C434.981659,145.173096 447.743683,158.491959 457.948822,174.046066 
	C469.148651,191.116165 477.058899,209.660355 480.979980,229.771210 
	C484.409332,247.360001 488.062927,264.920380 490.836304,282.615753 
	C492.381531,292.475220 492.384369,302.581421 492.984192,312.582336 
	C493.408630,319.658844 493.801727,326.742310 493.955322,333.828186 
	C494.058624,338.593597 491.412445,341.389252 486.123657,341.880676 
	C478.691956,340.357147 478.324768,335.102081 478.277771,329.777313 
	C477.989990,297.164001 473.352539,265.131256 465.949829,233.412079 
	C454.368286,183.787735 426.005676,148.195648 377.862579,130.372238 
	C342.598175,117.316742 308.418457,120.807434 277.188690,142.961090 
	C242.006851,167.918243 206.957733,193.063873 171.995331,218.327408 
	C166.925278,221.990967 162.659775,226.767914 157.699158,231.125977 
	C148.412704,240.345383 141.795197,251.015167 136.938538,262.772369 
	C129.575974,280.596069 127.136879,299.191986 129.056015,318.322235 
	C129.633316,324.076904 128.109451,328.344269 122.815491,330.983795 
	C116.692215,330.694489 114.496300,328.616547 114.015152,322.396118 
	C113.598267,317.006409 112.767517,311.568726 113.112831,306.216339 
	C113.885063,294.246887 115.276276,282.317352 116.433441,270.181946 
	C112.836891,270.405914 108.033401,271.116211 103.270699,270.905304 
	C96.111938,270.588287 88.942184,269.893433 81.853226,268.844635 
	C77.093849,268.140503 74.447578,265.051788 75.311798,259.319885 
	C77.904099,254.437088 81.091888,252.819717 86.232170,253.717407 
	C98.059563,255.782883 109.988464,256.156525 121.736702,253.009796 
	C123.379395,252.569809 125.146400,251.217224 126.091911,249.783325 
	C130.827667,242.601379 135.309021,235.251709 140.150116,227.764465 
	C143.646927,223.925385 146.873398,220.282822 150.448441,216.246735 
	C147.091263,215.534637 144.494980,215.034424 141.923111,214.430267 
	C125.101036,210.478546 110.427780,202.356430 97.134315,191.482834 
	C95.908173,190.479904 93.813805,189.442444 92.505089,189.804337 
	C77.916756,193.838379 64.770950,200.659607 53.174976,210.950012 
	C47.978939,215.482574 42.912445,219.755112 38.268833,224.446243 
	C34.158627,228.598511 34.862560,233.032684 39.867737,235.949722 
	C44.292324,238.528397 48.770561,241.124695 53.494980,243.051544 
	C59.445126,245.478317 62.745846,249.188278 61.954247,255.846558 
	C56.216923,260.864868 55.591930,261.597565 47.694519,257.801331 
	C40.609859,254.395767 33.714462,250.406937 27.270123,245.909485 
	C20.106705,240.910172 17.438894,228.017563 22.343754,220.186371 
	C30.436337,207.265579 42.398903,198.300781 54.841995,190.148849 
	C62.962326,184.828903 71.896698,180.751511 80.124771,176.302277 
	C75.822647,170.529480 71.277481,164.198593 66.489624,158.056900 
	C57.967739,147.125305 60.578957,129.258118 77.639717,123.176224 
	C95.444717,116.829002 113.654999,112.359161 132.812347,112.961182 
	C146.179779,113.381264 159.070969,115.859573 172.133743,120.425301 
	C169.920609,117.282463 167.732635,114.121552 165.489761,111.000076 
	C157.758087,100.239746 149.926819,89.549591 142.317215,78.703796 
	C140.280441,75.800827 139.775162,69.385193 143.748825,66.664017 
	C147.697006,63.960304 151.608398,64.166695 155.229767,68.865410 
	C161.740051,77.312485 167.767593,86.131996 173.982346,94.806297 
	C178.054718,100.490379 182.101578,106.192741 186.998108,113.063072 
	C186.998108,107.373566 187.030014,103.263870 186.992325,99.154808 
	C186.862259,84.977798 190.639954,71.643166 196.073166,58.757679 
	C201.938507,44.847263 210.303360,32.374943 219.847336,20.778400 
	C229.013351,9.641090 247.092728,9.167688 256.989685,23.971643 
	C260.984680,29.947393 264.878998,35.990452 267.700470,40.295856 
	C272.872894,35.933773 278.291656,31.389082 283.683044,26.812143 
	C296.070251,16.296263 309.605774,7.667197 324.890900,1.361207 
	C329.024536,1.000000 333.049103,1.000000 337.536804,1.000000 
M101.281281,132.162170 
	C95.418159,133.994736 89.513237,135.705032 83.702805,137.691681 
	C76.899803,140.017731 75.290642,144.343140 79.804993,149.786697 
	C87.749718,159.366760 95.499878,169.282715 104.587029,177.703094 
	C121.489777,193.365662 141.575546,202.304794 165.138992,201.772568 
	C167.057312,201.729218 169.330124,201.476196 170.809418,200.430817 
	C182.074432,192.470169 193.182938,184.288055 204.972992,175.982849 
	C206.598373,174.856308 208.223770,173.729752 209.835739,172.612488 
	C187.921722,136.877884 144.492172,120.324745 101.281281,132.162170 
z"/>
<path fill="#020000" opacity="1.000000" stroke="none" 
	d="
M486.091675,355.929169 
	C493.600525,360.118164 493.690277,360.914642 492.143066,369.815979 
	C491.000305,376.390594 491.066132,383.175110 489.926147,389.750427 
	C487.447754,404.045227 485.316223,418.472137 481.589722,432.457855 
	C478.019043,445.858704 473.849762,459.382172 467.732300,471.758759 
	C457.557587,492.343903 440.334137,505.293732 417.917023,510.993164 
	C416.046844,511.468628 414.146942,511.827148 412.130432,512.619995 
	C403.645782,513.000000 395.291534,513.000000 386.468658,513.000000 
	C382.445862,512.334839 378.916626,511.453552 375.333435,511.040100 
	C354.774567,508.668030 334.839600,503.599060 315.088226,497.589142 
	C293.291199,490.956757 272.163055,482.644623 251.564682,472.953979 
	C227.413910,461.592072 204.061234,448.775085 181.850266,433.961151 
	C156.040955,416.747162 137.082428,393.753510 124.759674,365.290131 
	C123.489021,362.355164 122.217537,359.411133 121.153786,356.398132 
	C119.462555,351.607819 120.759247,347.653656 125.366028,344.480347 
	C132.483887,344.237885 135.637146,348.176147 137.138412,354.056671 
	C137.342712,354.856903 137.714630,355.616089 138.028397,356.386353 
	C147.602783,379.891113 161.968903,399.995514 182.530670,414.893860 
	C219.302704,441.537628 259.689209,461.505524 302.314484,476.936371 
	C331.197266,487.392273 360.858002,494.743317 391.542633,497.442688 
	C414.379547,499.451721 433.358582,492.039368 448.110229,473.738495 
	C451.641022,467.618591 455.685913,461.981445 458.001556,455.706207 
	C468.327271,427.723694 474.371216,398.716187 476.815460,369.015411 
	C477.361542,362.379730 479.104004,357.543365 486.091675,355.929169 
z"/>
<path fill="#C60024" opacity="1.000000" stroke="none" 
	d="
M447.828217,473.927429 
	C433.358582,492.039368 414.379547,499.451721 391.542633,497.442688 
	C360.858002,494.743317 331.197266,487.392273 302.314484,476.936371 
	C259.689209,461.505524 219.302704,441.537628 182.530670,414.893860 
	C161.968903,399.995514 147.602783,379.891113 138.028397,356.386353 
	C137.714630,355.616089 137.342712,354.856903 137.138412,354.056671 
	C135.637146,348.176147 132.483887,344.237885 125.509201,344.157043 
	C124.437080,339.944672 123.708572,335.885742 122.897781,331.405304 
	C128.109451,328.344269 129.633316,324.076904 129.056015,318.322235 
	C127.136879,299.191986 129.575974,280.596069 136.938538,262.772369 
	C141.795197,251.015167 148.412704,240.345383 157.715637,231.528091 
	C157.464462,234.069153 156.971085,236.335419 156.268234,238.534775 
	C150.323090,257.138428 148.396545,276.161316 151.171570,295.473663 
	C154.155746,316.241608 160.978470,335.792419 172.384171,353.471649 
	C179.667007,364.760284 187.656540,375.578613 198.395996,384.027069 
	C204.755585,389.029938 210.895401,394.312225 217.118561,399.887482 
	C215.721771,408.952484 219.605057,415.524506 225.660400,421.003845 
	C228.762878,423.811249 232.583252,426.437317 236.949265,424.607727 
	C241.488113,422.705719 239.957581,418.151733 240.064743,414.453735 
	C240.069550,414.287842 240.097168,414.122559 240.478378,413.965454 
	C241.478012,414.145233 242.169907,414.207672 242.740555,414.503723 
	C257.335876,422.075897 271.735291,430.053070 286.542816,437.182983 
	C314.590820,450.688293 343.782135,461.100586 374.176727,468.043182 
	C392.930023,472.326691 411.772003,476.049469 431.100464,475.902893 
	C436.681061,475.860565 442.252563,474.619141 447.828217,473.927429 
z"/>
<path fill="#368A4C" opacity="1.000000" stroke="none" 
	d="
M139.879807,227.960983 
	C135.309021,235.251709 130.827667,242.601379 126.091911,249.783325 
	C125.146400,251.217224 123.379395,252.569809 121.736702,253.009796 
	C109.988464,256.156525 98.059563,255.782883 86.232170,253.717407 
	C81.091888,252.819717 77.904099,254.437088 75.304718,258.913422 
	C70.916519,258.045929 66.831604,257.012573 62.350471,255.912903 
	C62.745846,249.188278 59.445126,245.478317 53.494980,243.051544 
	C48.770561,241.124695 44.292324,238.528397 39.867737,235.949722 
	C34.862560,233.032684 34.158627,228.598511 38.268833,224.446243 
	C42.912445,219.755112 47.978939,215.482574 53.550865,211.067932 
	C58.525597,213.255707 62.754829,215.525406 67.105766,217.531128 
	C90.318993,228.232025 114.353569,233.336746 139.879807,227.960983 
z"/>
<path fill="#FE0C38" opacity="1.000000" stroke="none" 
	d="
M448.110229,473.738464 
	C442.252563,474.619141 436.681061,475.860565 431.100464,475.902893 
	C411.772003,476.049469 392.930023,472.326691 374.176727,468.043182 
	C343.782135,461.100586 314.590820,450.688293 286.542816,437.182983 
	C271.735291,430.053070 257.335876,422.075897 242.740555,414.503723 
	C242.169907,414.207672 241.478012,414.145233 240.295349,413.663696 
	C237.299438,407.466492 234.032883,402.218475 228.354218,398.879486 
	C224.493439,396.609406 220.693039,395.830475 217.134018,399.468872 
	C210.895401,394.312225 204.755585,389.029938 198.395996,384.027069 
	C187.656540,375.578613 179.667007,364.760284 172.384171,353.471649 
	C160.978470,335.792419 154.155746,316.241608 151.171570,295.473663 
	C148.396545,276.161316 150.323090,257.138428 156.268234,238.534775 
	C156.971085,236.335419 157.464462,234.069153 158.038452,231.431763 
	C162.659775,226.767914 166.925278,221.990967 171.995331,218.327408 
	C206.957733,193.063873 242.006851,167.918243 277.188690,142.961090 
	C308.418457,120.807434 342.598175,117.316742 377.862579,130.372238 
	C426.005676,148.195648 454.368286,183.787735 465.949829,233.412079 
	C473.352539,265.131256 477.989990,297.164001 478.277771,329.777313 
	C478.324768,335.102081 478.691956,340.357147 485.736572,341.929810 
	C486.041138,346.409210 486.030853,350.710419 486.056122,355.470398 
	C479.104004,357.543365 477.361542,362.379730 476.815460,369.015411 
	C474.371216,398.716187 468.327271,427.723694 458.001556,455.706207 
	C455.685913,461.981445 451.641022,467.618591 448.110229,473.738464 
M395.996063,271.465515 
	C394.138489,270.083038 392.460083,268.080292 390.376984,267.478546 
	C387.896271,266.761932 384.306274,266.226166 382.603210,267.496857 
	C380.870270,268.789886 379.864014,272.535706 380.254913,274.927124 
	C381.579437,283.030579 385.955017,289.504486 393.486725,293.073975 
	C395.674377,294.110748 399.555939,294.251221 401.227753,292.954620 
	C402.941956,291.625153 404.099396,287.626801 403.384064,285.512573 
	C401.780731,280.773621 398.864105,276.478943 395.996063,271.465515 
M297.606110,312.975708 
	C299.439911,314.087372 301.164337,315.472015 303.128235,316.259033 
	C308.813721,318.537384 312.204620,316.272095 312.484741,310.239288 
	C312.851501,302.340668 304.402191,291.097046 296.712891,289.251465 
	C292.105743,288.145660 289.227722,290.199982 289.002716,294.971069 
	C288.663239,302.169739 292.406372,307.556671 297.606110,312.975708 
M439.674194,351.484985 
	C433.018005,350.277466 430.040070,352.735382 431.027069,359.369202 
	C432.271820,367.735291 436.852814,374.187408 444.496521,377.835602 
	C446.649017,378.862976 450.576721,378.894257 452.194550,377.563782 
	C453.861572,376.192871 454.595825,372.452728 454.182892,370.012421 
	C452.778290,361.711548 448.127197,355.484558 439.674194,351.484985 
M330.231140,421.477753 
	C331.078064,421.994354 331.892303,422.880066 332.778015,422.958466 
	C335.448395,423.194916 338.911163,424.144592 340.618896,422.873413 
	C342.327209,421.601929 343.204315,417.856384 342.854218,415.424438 
	C341.676636,407.244629 337.112061,400.941528 329.696198,397.305420 
	C327.541809,396.249084 323.635742,396.136810 321.974304,397.435730 
	C320.280212,398.760193 319.560974,402.436096 319.817749,404.938507 
	C320.511139,411.696228 324.436829,416.839478 330.231140,421.477753 
M331.489441,198.635544 
	C331.248047,197.500870 331.117615,196.328522 330.747131,195.237701 
	C328.417694,188.379059 324.370880,182.812698 317.726379,179.681580 
	C311.745972,176.863419 307.606903,179.530975 307.976898,185.963150 
	C308.472839,194.585876 313.168945,200.856903 320.371460,205.151779 
	C326.741913,208.950455 330.551239,206.826599 331.489441,198.635544 
M420.931702,171.552780 
	C418.658722,169.930450 416.574005,167.886322 414.074799,166.770782 
	C408.293671,164.190338 404.630127,166.720764 404.522522,172.972198 
	C404.383209,181.066391 412.835663,191.982681 420.589752,193.722870 
	C424.901123,194.690414 427.684265,192.661285 428.006012,188.167053 
	C428.465973,181.743271 425.435516,176.704300 420.931702,171.552780 
M229.224945,262.667236 
	C233.326492,256.457642 230.729370,250.842728 227.319214,245.602768 
	C223.894943,240.341125 219.611542,235.535950 212.635376,236.075546 
	C210.932220,236.207275 208.393845,239.281952 208.082855,241.289124 
	C206.745743,249.919006 214.720520,261.217682 223.313705,263.398376 
	C224.931168,263.808838 226.797272,263.239594 229.224945,262.667236 
M404.083099,459.391968 
	C407.498474,461.583557 410.700073,464.299622 414.394928,465.805481 
	C417.508240,467.074280 420.224792,465.336670 421.031006,461.732178 
	C423.008453,452.891571 413.542572,439.221069 404.618439,438.065796 
	C400.603424,437.546021 398.302734,439.317963 397.913025,443.443207 
	C397.340973,449.499023 400.031769,454.333771 404.083099,459.391968 
M174.831116,327.279205 
	C176.785355,336.279663 181.246399,343.325531 190.404724,346.338013 
	C194.947342,347.832214 197.952301,345.627014 198.077454,340.827942 
	C198.319382,331.550110 193.334900,325.096008 185.977020,320.371704 
	C180.293747,316.722595 173.689804,318.665558 174.831116,327.279205 
z"/>
<path fill="#368A4B" opacity="1.000000" stroke="none" 
	d="
M349.028625,62.477211 
	C341.697662,64.380356 340.039124,69.913513 339.082275,76.280067 
	C337.511658,86.730438 333.650482,96.410675 328.130035,105.394661 
	C327.258423,106.813087 325.799927,108.426254 324.312042,108.823792 
	C310.948853,112.394165 297.518372,115.712723 284.048859,119.120140 
	C284.121033,118.491035 284.338928,116.591805 285.084473,114.324417 
	C296.100922,105.774269 302.579590,94.721603 307.921478,82.844620 
	C312.951538,71.660973 315.050079,59.716499 315.759979,47.680824 
	C316.206299,40.113224 317.856812,32.114647 313.768738,24.809177 
	C318.726471,22.172333 323.563965,19.266911 328.677124,16.977133 
	C333.421570,14.852461 336.909424,16.717232 337.948303,21.796593 
	C339.173370,27.786304 340.225677,33.844986 340.788757,39.926006 
	C341.253906,44.949631 343.357666,47.997898 348.724213,48.995293 
	C349.055664,53.404766 349.030487,57.710869 349.028625,62.477211 
z"/>
<path fill="#4CB967" opacity="1.000000" stroke="none" 
	d="
M277.961243,104.749153 
	C273.045868,104.994949 270.058929,107.630478 269.775787,112.451973 
	C268.850006,128.215851 260.583923,138.716156 247.093979,146.096298 
	C241.438614,149.190292 236.430634,153.467636 230.688843,156.933273 
	C230.826462,155.127045 231.227859,153.498154 232.007538,152.076752 
	C240.785797,136.073471 242.703430,118.701515 240.779099,101.064522 
	C238.964172,84.430336 232.635956,69.032066 224.046722,54.665047 
	C222.777542,52.542133 220.749451,50.872944 219.072479,48.993832 
	C223.209229,43.195759 227.155136,37.248363 231.539673,31.644146 
	C235.450974,26.644806 239.554230,26.873112 243.355469,31.986889 
	C254.148819,46.507015 262.732635,62.134438 267.145844,79.842926 
	C268.370819,84.758270 269.631775,89.785660 276.674194,90.366348 
	C277.391510,95.475227 277.676361,100.112190 277.961243,104.749153 
z"/>
<path fill="#4CB967" opacity="1.000000" stroke="none" 
	d="
M204.340179,176.174896 
	C193.182938,184.288055 182.074432,192.470169 170.809418,200.430817 
	C169.330124,201.476196 167.057312,201.729218 165.138992,201.772568 
	C141.575546,202.304794 121.489777,193.365662 104.587029,177.703094 
	C95.499878,169.282715 87.749718,159.366760 79.804993,149.786697 
	C75.290642,144.343140 76.899803,140.017731 83.702805,137.691681 
	C89.513237,135.705032 95.418159,133.994736 101.822891,132.452179 
	C109.937302,140.359375 117.053474,148.508392 125.177528,155.483490 
	C142.327164,170.207718 162.412186,177.999786 185.175003,177.911514 
	C191.565552,177.886719 197.951904,176.783463 204.340179,176.174896 
z"/>
<path fill="#63C27C" opacity="1.000000" stroke="none" 
	d="
M218.839249,49.250473 
	C220.749451,50.872944 222.777542,52.542133 224.046722,54.665047 
	C232.635956,69.032066 238.964172,84.430336 240.779099,101.064522 
	C242.703430,118.701515 240.785797,136.073471 232.007538,152.076752 
	C231.227859,153.498154 230.826462,155.127045 230.365295,157.034729 
	C230.481201,157.409882 230.437790,157.393799 230.128525,157.350937 
	C229.528732,157.760437 229.238190,158.212814 228.947662,158.665161 
	C227.115219,160.077103 225.282776,161.489044 223.461227,162.892609 
	C201.747940,137.542938 191.096527,92.852310 218.839249,49.250473 
z"/>
<path fill="#63C27C" opacity="1.000000" stroke="none" 
	d="
M204.656586,176.078873 
	C197.951904,176.783463 191.565552,177.886719 185.175003,177.911514 
	C162.412186,177.999786 142.327164,170.207718 125.177528,155.483490 
	C117.053474,148.508392 109.937302,140.359375 102.208824,132.458496 
	C144.492172,120.324745 187.921722,136.877884 209.835739,172.612488 
	C208.223770,173.729752 206.598373,174.856308 204.656586,176.078873 
z"/>
<path fill="#3FA359" opacity="1.000000" stroke="none" 
	d="
M278.312592,104.859482 
	C277.676361,100.112190 277.391510,95.475227 277.052307,90.426407 
	C283.075928,86.702347 283.999359,84.717369 282.182892,77.968857 
	C280.935822,73.335625 279.816284,68.611511 277.958221,64.216118 
	C276.294739,60.281071 277.076813,57.414040 279.545654,54.232082 
	C288.827576,42.269192 300.048706,32.591866 313.437866,24.901413 
	C317.856812,32.114647 316.206299,40.113224 315.759979,47.680824 
	C315.050079,59.716499 312.951538,71.660973 307.921478,82.844620 
	C302.579590,94.721603 296.100922,105.774269 285.258423,113.992607 
	C284.952759,109.543083 283.269073,106.250183 278.312592,104.859482 
z"/>
<path fill="#3FA359" opacity="1.000000" stroke="none" 
	d="
M140.150116,227.764465 
	C114.353569,233.336746 90.318993,228.232025 67.105766,217.531128 
	C62.754829,215.525406 58.525597,213.255707 53.864307,210.989914 
	C64.770950,200.659607 77.916756,193.838379 92.505089,189.804337 
	C93.813805,189.442444 95.908173,190.479904 97.134315,191.482834 
	C110.427780,202.356430 125.101036,210.478546 141.923111,214.430267 
	C144.494980,215.034424 147.091263,215.534637 150.448441,216.246735 
	C146.873398,220.282822 143.646927,223.925385 140.150116,227.764465 
z"/>
<path fill="#4CB967" opacity="1.000000" stroke="none" 
	d="
M229.193787,158.599503 
	C229.238190,158.212814 229.528732,157.760437 230.107788,157.360382 
	C230.077530,157.786423 229.758713,158.160126 229.193787,158.599503 
z"/>
<path fill="#040001" opacity="1.000000" stroke="none" 
	d="
M217.118561,399.887482 
	C220.693039,395.830475 224.493439,396.609406 228.354218,398.879486 
	C234.032883,402.218475 237.299438,407.466492 239.931122,413.655243 
	C240.097168,414.122559 240.069550,414.287842 240.064743,414.453735 
	C239.957581,418.151733 241.488113,422.705719 236.949265,424.607727 
	C232.583252,426.437317 228.762878,423.811249 225.660400,421.003845 
	C219.605057,415.524506 215.721771,408.952484 217.118561,399.887482 
z"/>
<path fill="#060001" opacity="1.000000" stroke="none" 
	d="
M396.239136,271.734436 
	C398.864105,276.478943 401.780731,280.773621 403.384064,285.512573 
	C404.099396,287.626801 402.941956,291.625153 401.227753,292.954620 
	C399.555939,294.251221 395.674377,294.110748 393.486725,293.073975 
	C385.955017,289.504486 381.579437,283.030579 380.254913,274.927124 
	C379.864014,272.535706 380.870270,268.789886 382.603210,267.496857 
	C384.306274,266.226166 387.896271,266.761932 390.376984,267.478546 
	C392.460083,268.080292 394.138489,270.083038 396.239136,271.734436 
z"/>
<path fill="#050001" opacity="1.000000" stroke="none" 
	d="
M297.340240,312.730042 
	C292.406372,307.556671 288.663239,302.169739 289.002716,294.971069 
	C289.227722,290.199982 292.105743,288.145660 296.712891,289.251465 
	C304.402191,291.097046 312.851501,302.340668 312.484741,310.239288 
	C312.204620,316.272095 308.813721,318.537384 303.128235,316.259033 
	C301.164337,315.472015 299.439911,314.087372 297.340240,312.730042 
z"/>
<path fill="#050001" opacity="1.000000" stroke="none" 
	d="
M440.041138,351.622406 
	C448.127197,355.484558 452.778290,361.711548 454.182892,370.012421 
	C454.595825,372.452728 453.861572,376.192871 452.194550,377.563782 
	C450.576721,378.894257 446.649017,378.862976 444.496521,377.835602 
	C436.852814,374.187408 432.271820,367.735291 431.027069,359.369202 
	C430.040070,352.735382 433.018005,350.277466 440.041138,351.622406 
z"/>
<path fill="#040001" opacity="1.000000" stroke="none" 
	d="
M329.926086,421.264648 
	C324.436829,416.839478 320.511139,411.696228 319.817749,404.938507 
	C319.560974,402.436096 320.280212,398.760193 321.974304,397.435730 
	C323.635742,396.136810 327.541809,396.249084 329.696198,397.305420 
	C337.112061,400.941528 341.676636,407.244629 342.854218,415.424438 
	C343.204315,417.856384 342.327209,421.601929 340.618896,422.873413 
	C338.911163,424.144592 335.448395,423.194916 332.778015,422.958466 
	C331.892303,422.880066 331.078064,421.994354 329.926086,421.264648 
z"/>
<path fill="#050001" opacity="1.000000" stroke="none" 
	d="
M331.477142,199.019211 
	C330.551239,206.826599 326.741913,208.950455 320.371460,205.151779 
	C313.168945,200.856903 308.472839,194.585876 307.976898,185.963150 
	C307.606903,179.530975 311.745972,176.863419 317.726379,179.681580 
	C324.370880,182.812698 328.417694,188.379059 330.747131,195.237701 
	C331.117615,196.328522 331.248047,197.500870 331.477142,199.019211 
z"/>
<path fill="#050001" opacity="1.000000" stroke="none" 
	d="
M421.173584,171.822937 
	C425.435516,176.704300 428.465973,181.743271 428.006012,188.167053 
	C427.684265,192.661285 424.901123,194.690414 420.589752,193.722870 
	C412.835663,191.982681 404.383209,181.066391 404.522522,172.972198 
	C404.630127,166.720764 408.293671,164.190338 414.074799,166.770782 
	C416.574005,167.886322 418.658722,169.930450 421.173584,171.822937 
z"/>
<path fill="#050001" opacity="1.000000" stroke="none" 
	d="
M228.886780,262.894836 
	C226.797272,263.239594 224.931168,263.808838 223.313705,263.398376 
	C214.720520,261.217682 206.745743,249.919006 208.082855,241.289124 
	C208.393845,239.281952 210.932220,236.207275 212.635376,236.075546 
	C219.611542,235.535950 223.894943,240.341125 227.319214,245.602768 
	C230.729370,250.842728 233.326492,256.457642 228.886780,262.894836 
z"/>
<path fill="#050001" opacity="1.000000" stroke="none" 
	d="
M403.840027,459.123169 
	C400.031769,454.333771 397.340973,449.499023 397.913025,443.443207 
	C398.302734,439.317963 400.603424,437.546021 404.618439,438.065796 
	C413.542572,439.221069 423.008453,452.891571 421.031006,461.732178 
	C420.224792,465.336670 417.508240,467.074280 414.394928,465.805481 
	C410.700073,464.299622 407.498474,461.583557 403.840027,459.123169 
z"/>
<path fill="#040001" opacity="1.000000" stroke="none" 
	d="
M174.806580,326.848450 
	C173.689804,318.665558 180.293747,316.722595 185.977020,320.371704 
	C193.334900,325.096008 198.319382,331.550110 198.077454,340.827942 
	C197.952301,345.627014 194.947342,347.832214 190.404724,346.338013 
	C181.246399,343.325531 176.785355,336.279663 174.806580,326.848450 
z"/>
</svg>