<svg version="1.1" id="Layer_1" xmlns="http://www.w3.org/2000/svg" xmlns:xlink="http://www.w3.org/1999/xlink" x="0px" y="0px"
	 width="100%" viewBox="0 0 512 512" enable-background="new 0 0 512 512" xml:space="preserve">
<path fill="#FFFFFF" opacity="1.000000" stroke="none" 
	d="
M231.000000,513.000000 
	C154.368042,513.000000 77.736092,513.000000 1.052067,513.000000 
	C1.052067,342.445343 1.052067,171.890640 1.052067,1.000000 
	C74.354424,1.000000 147.709366,1.000000 221.534332,1.468654 
	C221.996094,46.950550 221.987839,91.963791 221.554901,136.980515 
	C210.636292,135.637787 200.095337,134.577545 189.662231,132.861542 
	C180.042450,131.279312 170.538483,128.992981 160.655609,126.850632 
	C152.786087,124.139641 145.091812,121.970360 137.731567,118.979172 
	C116.129219,110.200043 95.172081,100.455818 85.202278,76.219658 
	C85.120476,77.608009 84.998680,78.254509 85.057587,78.884102 
	C86.365234,92.859688 87.708015,106.831985 89.010803,120.808006 
	C89.762505,128.872086 90.419373,136.945068 91.183563,145.007919 
	C92.429832,158.157242 93.779572,171.296890 94.987915,184.449600 
	C95.789627,193.176300 96.326202,201.927567 97.150620,210.651871 
	C98.393295,223.802322 99.783760,236.938797 101.100525,250.512817 
	C101.535332,254.933029 101.981010,258.921631 102.371841,263.276428 
	C102.380043,264.128174 102.443085,264.613678 102.432549,265.289185 
	C102.474617,265.746704 102.670853,265.926392 102.976952,266.475983 
	C103.396431,272.387146 103.731163,277.845154 104.188087,283.292938 
	C105.211777,295.498016 106.234207,307.703766 107.371162,319.898621 
	C108.904236,336.342163 110.596710,352.770874 112.121803,369.215149 
	C113.283852,381.744904 114.230392,394.294617 115.383675,406.825226 
	C116.915207,423.465668 118.903954,440.072723 120.022118,456.739349 
	C120.741463,467.461639 125.489441,475.671143 133.403595,482.224945 
	C144.162445,491.134552 156.863190,496.437775 170.320160,501.009827 
	C186.505661,504.438873 202.333069,507.743469 218.182175,510.940582 
	C222.420776,511.795593 226.725586,512.322449 231.000000,513.000000 
z"/>
<path fill="#50A5E1" opacity="1.000000" stroke="none" 
	d="
M102.426689,262.910217 
	C101.981010,258.921631 101.535332,254.933029 101.331635,250.211456 
	C102.245239,246.952454 102.651352,244.317474 103.635361,241.919632 
	C107.491493,232.523087 114.553230,225.925034 122.849289,220.451187 
	C135.214371,212.292542 148.403488,206.025192 162.968750,203.325531 
	C163.007629,210.559738 163.028000,217.310333 162.995850,224.406525 
	C159.014435,230.816040 155.085571,236.879990 150.891205,243.353714 
	C155.353821,245.076126 159.360825,247.045105 163.591904,248.174911 
	C175.338821,251.311600 187.178970,254.099182 199.385834,257.098572 
	C207.319885,258.119293 214.855743,259.889038 222.379745,259.840057 
	C237.594055,259.740997 252.801926,258.655060 267.870605,258.308014 
	C266.335510,261.929138 264.942261,265.218353 263.270782,269.164429 
	C270.984467,269.810303 278.150452,270.644684 285.338135,270.926910 
	C289.869751,271.104889 294.433838,270.456848 299.449738,270.166260 
	C325.917847,269.776520 350.431732,263.448273 374.849182,252.229172 
	C359.324951,241.707031 344.938293,231.843658 330.404633,222.201935 
	C327.566833,220.319321 324.158295,219.297089 320.742188,217.608841 
	C311.010925,214.322845 301.997040,216.119873 292.988708,219.588715 
	C282.918335,209.576508 273.023804,199.848465 263.588043,190.090469 
	C280.433014,191.400757 296.912476,192.049850 313.183563,194.243896 
	C337.347351,197.502213 360.833069,203.704025 382.455597,215.421188 
	C397.130829,223.373642 409.851440,233.265717 412.791626,251.659882 
	C411.805725,261.434265 410.820618,270.804810 409.936554,280.184906 
	C408.246124,298.119965 406.607880,316.059937 404.957794,333.998779 
	C402.945740,355.872833 400.898163,377.743774 398.950897,399.623596 
	C397.175629,419.571533 395.702148,439.548950 393.652008,459.467712 
	C393.212982,463.733276 391.327759,468.043610 389.306824,471.914673 
	C384.230469,481.638489 375.101807,486.995300 365.826843,491.777924 
	C344.224182,502.917358 320.837372,507.895172 296.935883,510.909698 
	C291.948700,511.538696 286.978180,512.299805 282.000000,513.000000 
	C265.312439,513.000000 248.624878,513.000000 231.468658,513.000000 
	C226.725586,512.322449 222.420776,511.795593 218.182175,510.940582 
	C202.333069,507.743469 186.505661,504.438873 170.332245,500.552063 
	C169.994705,489.286163 169.995041,478.642822 169.997711,467.530884 
	C170.000641,463.583252 170.124863,460.098724 169.971191,456.626434 
	C169.770050,452.082062 169.349365,447.547394 169.017334,442.547485 
	C169.005722,438.392883 168.999847,434.699280 168.996994,430.536560 
	C169.000824,427.251007 169.114029,424.429138 168.977554,421.619446 
	C168.740753,416.744965 168.349472,411.878021 168.017273,406.549866 
	C167.676849,399.651642 167.316299,393.212646 167.019775,386.770691 
	C166.895065,384.061737 166.990295,382.198395 171.015030,382.514465 
	C175.733093,382.884979 179.289566,379.258270 179.861938,374.763916 
	C180.425323,370.339935 178.047394,367.340698 174.238922,365.794739 
	C172.259949,364.991425 169.815140,365.335724 166.993835,365.115906 
	C166.993835,363.247925 166.993835,361.125702 166.996918,358.534485 
	C167.000732,355.249268 167.113922,352.427490 166.977325,349.617889 
	C166.740356,344.743622 166.348846,339.876831 166.016739,334.545898 
	C165.676483,324.834930 165.154388,315.585968 165.104141,306.334473 
	C165.085495,302.904633 163.876556,301.489746 160.756409,300.292084 
	C151.038391,296.561737 141.285828,292.818359 131.918320,288.308136 
	C123.279335,284.148651 115.440697,278.602234 109.370499,270.906464 
	C107.186737,268.137848 104.748695,265.569794 102.426689,262.910217 
M273.412567,424.052002 
	C277.383057,421.188568 278.374725,417.134766 276.215942,413.137177 
	C274.538483,410.030884 271.701721,407.268433 267.270386,408.386932 
	C262.034607,409.708466 258.914429,414.433044 260.207458,419.178406 
	C261.704987,424.674164 266.440582,426.684418 273.412567,424.052002 
M326.285431,373.626648 
	C330.222229,374.651123 334.180511,374.004547 335.621307,370.194031 
	C336.706909,367.322968 336.825256,362.954285 335.306488,360.568481 
	C333.956055,358.447144 329.803650,357.367188 326.815369,357.210205 
	C322.652985,356.991486 320.935516,360.722382 320.218872,364.159393 
	C319.313507,368.501648 321.979828,371.298676 326.285431,373.626648 
M241.213242,313.991302 
	C252.789536,313.991302 264.365814,313.991302 275.942108,313.991302 
	C275.939880,313.748749 275.937653,313.506226 275.935455,313.263672 
	C263.633850,313.263672 251.332260,313.263672 237.580963,313.263672 
	C239.479034,313.746826 239.946518,313.865814 241.213242,313.991302 
z"/>
<path fill="#FFFFFF" opacity="1.000000" stroke="none" 
	d="
M282.468658,513.000000 
	C286.978180,512.299805 291.948700,511.538696 296.935883,510.909698 
	C320.837372,507.895172 344.224182,502.917358 365.826843,491.777924 
	C375.101807,486.995300 384.230469,481.638489 389.306824,471.914673 
	C391.327759,468.043610 393.212982,463.733276 393.652008,459.467712 
	C395.702148,439.548950 397.175629,419.571533 398.950897,399.623596 
	C400.898163,377.743774 402.945740,355.872833 404.957794,333.998779 
	C406.607880,316.059937 408.246124,298.119965 409.936554,280.184906 
	C410.820618,270.804810 411.805725,261.434265 412.852417,251.194336 
	C413.010590,248.665543 412.970886,246.993271 413.126678,245.339386 
	C414.397400,231.850983 415.731842,218.368561 416.990631,204.879074 
	C417.759003,196.645203 418.387085,188.398285 419.151123,180.164001 
	C420.402832,166.673538 421.747375,153.191666 422.987854,139.700195 
	C423.775452,131.134659 424.382019,122.552376 425.182831,113.988174 
	C426.397705,100.995766 427.710938,88.012550 428.989349,74.560196 
	C428.948395,68.140938 429.238892,62.320656 426.411713,56.571987 
	C419.961151,43.455780 408.846741,35.457531 396.621124,28.944427 
	C366.883789,13.102090 334.532196,6.452528 301.365356,2.929198 
	C300.188538,2.804183 299.119354,1.665989 298.000000,1.000002 
	C369.633942,1.000000 441.267853,1.000000 512.950928,1.000000 
	C512.950928,171.555984 512.950928,342.111969 512.950928,513.000000 
	C436.312744,513.000000 359.625031,513.000000 282.468658,513.000000 
z"/>
<path fill="#F2F2F2" opacity="1.000000" stroke="none" 
	d="
M297.531342,1.000002 
	C299.119354,1.665989 300.188538,2.804183 301.365356,2.929198 
	C334.532196,6.452528 366.883789,13.102090 396.621124,28.944427 
	C408.846741,35.457531 419.961151,43.455780 426.411713,56.571987 
	C429.238892,62.320656 428.948395,68.140938 428.716614,74.785416 
	C426.375122,82.418312 423.051605,88.518837 417.848663,93.754211 
	C405.466034,106.214058 390.284760,113.935509 374.089050,119.766335 
	C356.605774,126.060684 338.728973,131.157166 320.164673,133.090408 
	C302.244904,134.956543 284.306915,137.021179 266.324982,137.800507 
	C251.582779,138.439453 236.764282,137.318100 221.979599,136.977051 
	C221.987839,91.963791 221.996094,46.950550 222.002167,1.468654 
	C247.020889,1.000000 272.041779,1.000000 297.531342,1.000002 
z"/>
<path fill="#E6E6E6" opacity="1.000000" stroke="none" 
	d="
M221.554901,136.980530 
	C236.764282,137.318100 251.582779,138.439453 266.324982,137.800507 
	C284.306915,137.021179 302.244904,134.956543 320.164673,133.090408 
	C338.728973,131.157166 356.605774,126.060684 374.089050,119.766335 
	C390.284760,113.935509 405.466034,106.214058 417.848663,93.754211 
	C423.051605,88.518837 426.375122,82.418312 428.709656,75.250656 
	C427.710938,88.012550 426.397705,100.995766 425.182831,113.988174 
	C424.382019,122.552376 423.775452,131.134659 422.987854,139.700195 
	C421.747375,153.191666 420.402832,166.673538 419.151123,180.164001 
	C418.387085,188.398285 417.759003,196.645203 416.990631,204.879074 
	C415.731842,218.368561 414.397400,231.850983 413.126678,245.339386 
	C412.970886,246.993271 413.010590,248.665543 412.898895,250.794846 
	C409.851440,233.265717 397.130829,223.373642 382.455597,215.421188 
	C360.833069,203.704025 337.347351,197.502213 313.183563,194.243896 
	C296.912476,192.049850 280.433014,191.400757 263.280609,189.926666 
	C256.970398,184.640289 251.535950,179.362717 245.847229,174.375183 
	C241.381088,170.459549 236.617386,166.866882 229.910568,166.666809 
	C218.538071,162.930969 202.463623,168.069077 195.272034,177.682404 
	C190.315887,184.307510 185.738113,191.215652 180.593246,198.006653 
	C174.466415,199.362808 168.737579,200.709641 162.999680,201.613205 
	C162.321579,176.452225 161.652542,151.734512 160.983490,127.016785 
	C170.538483,128.992981 180.042450,131.279312 189.662231,132.861542 
	C200.095337,134.577545 210.636292,135.637787 221.554901,136.980530 
z"/>
<path fill="#378DC1" opacity="1.000000" stroke="none" 
	d="
M169.995361,467.999451 
	C169.995041,478.642822 169.994705,489.286163 169.982300,500.387268 
	C156.863190,496.437775 144.162445,491.134552 133.403595,482.224945 
	C125.489441,475.671143 120.741463,467.461639 120.022118,456.739349 
	C118.903954,440.072723 116.915207,423.465668 115.383675,406.825226 
	C114.230392,394.294617 113.283852,381.744904 112.121803,369.215149 
	C110.596710,352.770874 108.904236,336.342163 107.371162,319.898621 
	C106.234207,307.703766 105.211777,295.498016 104.188087,283.292938 
	C103.731163,277.845154 103.396431,272.387146 102.966736,266.296814 
	C102.867256,265.412628 102.726898,265.225708 102.506134,265.099182 
	C102.443085,264.613678 102.380043,264.128174 102.371841,263.276428 
	C104.748695,265.569794 107.186737,268.137848 109.370499,270.906464 
	C115.440697,278.602234 123.279335,284.148651 131.918320,288.308136 
	C141.285828,292.818359 151.038391,296.561737 160.756409,300.292084 
	C163.876556,301.489746 165.085495,302.904633 165.104141,306.334473 
	C165.154388,315.585968 165.676483,324.834930 166.007324,335.013489 
	C166.000336,338.759003 165.881332,341.581665 166.020035,344.391541 
	C166.260651,349.266327 166.660660,354.133240 166.993835,359.003448 
	C166.993835,361.125702 166.993835,363.247925 166.993835,365.115906 
	C169.815140,365.335724 172.259949,364.991425 174.238922,365.794739 
	C178.047394,367.340698 180.425323,370.339935 179.861938,374.763916 
	C179.289566,379.258270 175.733093,382.884979 171.015030,382.514465 
	C166.990295,382.198395 166.895065,384.061737 167.019775,386.770691 
	C167.316299,393.212646 167.676849,399.651642 168.007690,407.017334 
	C168.000717,410.759949 167.881546,413.582794 168.020203,416.392883 
	C168.260773,421.267975 168.660828,426.135193 168.993988,431.005707 
	C168.999847,434.699280 169.005722,438.392883 169.007843,443.014923 
	C169.001328,447.423218 168.871246,450.908783 169.027374,454.381439 
	C169.231689,458.926086 169.662170,463.460602 169.995361,467.999451 
z"/>
<path fill="#CCCCCC" opacity="1.000000" stroke="none" 
	d="
M160.655609,126.850632 
	C161.652542,151.734512 162.321579,176.452225 162.981659,201.809204 
	C162.972702,202.448471 162.950241,202.841934 162.950241,202.841934 
	C148.403488,206.025192 135.214371,212.292542 122.849289,220.451187 
	C114.553230,225.925034 107.491493,232.523087 103.635361,241.919632 
	C102.651352,244.317474 102.245239,246.952454 101.342514,249.779846 
	C99.783760,236.938797 98.393295,223.802322 97.150620,210.651871 
	C96.326202,201.927567 95.789627,193.176300 94.987915,184.449600 
	C93.779572,171.296890 92.429832,158.157242 91.183563,145.007919 
	C90.419373,136.945068 89.762505,128.872086 89.010803,120.808006 
	C87.708015,106.831985 86.365234,92.859688 85.057587,78.884102 
	C84.998680,78.254509 85.120476,77.608009 85.202278,76.219658 
	C95.172081,100.455818 116.129219,110.200043 137.731567,118.979172 
	C145.091812,121.970360 152.786087,124.139641 160.655609,126.850632 
z"/>
<path fill="#50A5E1" opacity="1.000000" stroke="none" 
	d="
M102.432549,265.289185 
	C102.726898,265.225708 102.867256,265.412628 102.937439,265.839050 
	C102.670853,265.926392 102.474617,265.746704 102.432549,265.289185 
z"/>
<path fill="#97F2E3" opacity="1.000000" stroke="none" 
	d="
M230.189575,166.945160 
	C236.617386,166.866882 241.381088,170.459549 245.847229,174.375183 
	C251.535950,179.362717 256.970398,184.640289 262.821869,189.956635 
	C273.023804,199.848465 282.918335,209.576508 292.809753,219.898026 
	C284.248047,225.986893 278.787140,233.849014 275.024597,243.164215 
	C272.982239,248.220657 270.368469,253.046295 268.012451,257.976074 
	C252.801926,258.655060 237.594055,259.740997 222.379745,259.840057 
	C214.855743,259.889038 207.319885,258.119293 199.396637,256.638519 
	C198.995941,244.384247 198.762344,232.658569 199.039948,220.944992 
	C199.352890,207.739761 203.434998,195.443451 210.512985,184.449066 
	C215.329605,176.967331 221.208160,170.046127 230.189575,166.945160 
z"/>
<path fill="#76DDCE" opacity="1.000000" stroke="none" 
	d="
M229.910568,166.666809 
	C221.208160,170.046127 215.329605,176.967331 210.512985,184.449066 
	C203.434998,195.443451 199.352890,207.739761 199.039948,220.944992 
	C198.762344,232.658569 198.995941,244.384247 198.993073,256.564636 
	C187.178970,254.099182 175.338821,251.311600 163.591904,248.174911 
	C159.360825,247.045105 155.353821,245.076126 150.891205,243.353714 
	C155.085571,236.879990 159.014435,230.816040 163.287354,224.234970 
	C169.417999,215.144333 175.204620,206.570816 180.991241,197.997314 
	C185.738113,191.215652 190.315887,184.307510 195.272034,177.682404 
	C202.463623,168.069077 218.538071,162.930969 229.910568,166.666809 
z"/>
<path fill="#96F1E3" opacity="1.000000" stroke="none" 
	d="
M321.013000,217.878021 
	C324.158295,219.297089 327.566833,220.319321 330.404633,222.201935 
	C344.938293,231.843658 359.324951,241.707031 374.849182,252.229172 
	C350.431732,263.448273 325.917847,269.776520 299.419983,269.757233 
	C294.106567,254.026840 297.317261,240.531097 308.510315,229.078796 
	C312.412720,225.086014 316.830566,221.597061 321.013000,217.878021 
z"/>
<path fill="#76DDCF" opacity="1.000000" stroke="none" 
	d="
M320.742188,217.608856 
	C316.830566,221.597061 312.412720,225.086014 308.510315,229.078796 
	C297.317261,240.531097 294.106567,254.026840 298.953613,269.770325 
	C294.433838,270.456848 289.869751,271.104889 285.338135,270.926910 
	C278.150452,270.644684 270.984467,269.810303 263.270782,269.164429 
	C264.942261,265.218353 266.335510,261.929138 267.870605,258.307983 
	C270.368469,253.046295 272.982239,248.220657 275.024597,243.164215 
	C278.787140,233.849014 284.248047,225.986893 292.985657,220.182190 
	C301.997040,216.119873 311.010925,214.322845 320.742188,217.608856 
z"/>
<path fill="#378DC2" opacity="1.000000" stroke="none" 
	d="
M273.104675,424.287262 
	C266.440582,426.684418 261.704987,424.674164 260.207458,419.178406 
	C258.914429,414.433044 262.034607,409.708466 267.270386,408.386932 
	C271.701721,407.268433 274.538483,410.030884 276.215942,413.137177 
	C278.374725,417.134766 277.383057,421.188568 273.104675,424.287262 
z"/>
<path fill="#368CC2" opacity="1.000000" stroke="none" 
	d="
M325.934082,373.454224 
	C321.979828,371.298676 319.313507,368.501648 320.218872,364.159393 
	C320.935516,360.722382 322.652985,356.991486 326.815369,357.210205 
	C329.803650,357.367188 333.956055,358.447144 335.306488,360.568481 
	C336.825256,362.954285 336.706909,367.322968 335.621307,370.194031 
	C334.180511,374.004547 330.222229,374.651123 325.934082,373.454224 
z"/>
<path fill="#5FB2E5" opacity="1.000000" stroke="none" 
	d="
M180.593246,198.006653 
	C175.204620,206.570816 169.417999,215.144333 163.339890,223.889374 
	C163.028000,217.310333 163.007629,210.559738 162.968750,203.325531 
	C162.950241,202.841934 162.972702,202.448471 162.990723,202.252472 
	C168.737579,200.709641 174.466415,199.362808 180.593246,198.006653 
z"/>
<path fill="#77B9E4" opacity="1.000000" stroke="none" 
	d="
M240.813629,313.988037 
	C239.946518,313.865814 239.479034,313.746826 237.580963,313.263672 
	C251.332260,313.263672 263.633850,313.263672 275.935455,313.263672 
	C275.937653,313.506226 275.939880,313.748749 275.942108,313.991302 
	C264.365814,313.991302 252.789536,313.991302 240.813629,313.988037 
z"/>
<path fill="#5C9FCC" opacity="1.000000" stroke="none" 
	d="
M169.997711,467.530884 
	C169.662170,463.460602 169.231689,458.926086 169.027374,454.381439 
	C168.871246,450.908783 169.001328,447.423218 169.013611,443.475952 
	C169.349365,447.547394 169.770050,452.082062 169.971191,456.626434 
	C170.124863,460.098724 170.000641,463.583252 169.997711,467.530884 
z"/>
<path fill="#5B9FCC" opacity="1.000000" stroke="none" 
	d="
M166.996918,358.534485 
	C166.660660,354.133240 166.260651,349.266327 166.020035,344.391541 
	C165.881332,341.581665 166.000336,338.759003 166.012756,335.474518 
	C166.348846,339.876831 166.740356,344.743622 166.977325,349.617889 
	C167.113922,352.427490 167.000732,355.249268 166.996918,358.534485 
z"/>
<path fill="#5B9FCD" opacity="1.000000" stroke="none" 
	d="
M168.997009,430.536560 
	C168.660828,426.135193 168.260773,421.267975 168.020203,416.392883 
	C167.881546,413.582794 168.000717,410.759949 168.013412,407.475372 
	C168.349472,411.878021 168.740753,416.744965 168.977554,421.619446 
	C169.114029,424.429138 169.000824,427.251007 168.997009,430.536560 
z"/>
</svg>