<svg version="1.1" id="Layer_1" xmlns="http://www.w3.org/2000/svg" xmlns:xlink="http://www.w3.org/1999/xlink" x="0px" y="0px"
	 width="100%" viewBox="0 0 512 512" enable-background="new 0 0 512 512" xml:space="preserve">
<path fill="#FFFFFF" opacity="1.000000" stroke="none" 
	d="
M171.000000,513.000000 
	C114.357109,513.000000 57.714222,513.000000 1.035667,513.000000 
	C1.035667,342.428741 1.035667,171.857452 1.035667,1.000000 
	C118.355194,1.000000 235.710617,1.000000 353.340759,1.340882 
	C349.891785,2.240448 346.062531,2.419240 342.461761,3.420084 
	C320.703064,9.467991 303.353302,22.090332 290.141083,40.164970 
	C283.874725,48.737537 278.743591,58.139969 272.724152,67.099777 
	C268.005890,68.236725 265.300720,71.150291 262.928314,74.932404 
	C255.980606,86.008514 248.686798,96.867538 241.385406,108.030556 
	C236.805222,97.212814 232.497025,86.757988 227.938858,76.413300 
	C226.185562,72.434235 223.138641,69.916565 218.382477,69.964836 
	C214.041168,70.008896 210.590118,72.081650 209.816635,75.966225 
	C209.144699,79.340843 209.683228,83.472771 211.082199,86.656960 
	C218.391830,103.294189 224.699844,120.243286 228.494003,137.966461 
	C218.471680,136.214981 208.772354,134.840103 199.285049,132.576477 
	C179.968018,127.967461 160.607224,125.510666 140.709381,127.923706 
	C121.895866,130.205246 105.446617,138.018417 90.098778,148.500519 
	C79.052773,156.044586 69.892609,165.631317 61.421375,175.985229 
	C51.818691,187.722015 44.608597,200.742615 38.996098,214.728561 
	C32.333515,231.331268 28.613844,248.560135 26.841700,266.391174 
	C24.995893,284.963409 25.455812,303.425385 29.494946,321.480438 
	C33.066998,337.447601 37.534370,353.411407 43.621811,368.567200 
	C50.645336,386.053528 59.370102,402.924927 68.292892,419.560913 
	C77.347130,436.441986 88.892662,451.699768 101.519188,466.179382 
	C114.492706,481.056946 128.687881,494.424255 146.301147,503.493256 
	C154.098526,507.508087 162.741104,509.881470 171.000000,513.000000 
z"/>
<path fill="#E23D3D" opacity="1.000000" stroke="none" 
	d="
M171.468658,513.000000 
	C162.741104,509.881470 154.098526,507.508087 146.301147,503.493256 
	C128.687881,494.424255 114.492706,481.056946 101.519188,466.179382 
	C88.892662,451.699768 77.347130,436.441986 68.292892,419.560913 
	C59.370102,402.924927 50.645336,386.053528 43.621811,368.567200 
	C37.534370,353.411407 33.066998,337.447601 29.494946,321.480438 
	C25.455812,303.425385 24.995893,284.963409 26.841700,266.391174 
	C28.613844,248.560135 32.333515,231.331268 38.996098,214.728561 
	C44.608597,200.742615 51.818691,187.722015 61.421375,175.985229 
	C69.892609,165.631317 79.052773,156.044586 90.098778,148.500519 
	C105.446617,138.018417 121.895866,130.205246 140.709381,127.923706 
	C160.607224,125.510666 179.968018,127.967461 199.285049,132.576477 
	C208.772354,134.840103 218.471680,136.214981 228.785446,138.216721 
	C231.332336,149.933807 233.204895,161.420639 234.988617,172.921249 
	C235.764481,177.923523 236.357849,182.954102 236.620209,187.973663 
	C225.569290,186.169556 214.971573,184.317810 205.914108,177.719925 
	C205.081390,177.113342 202.871368,177.467911 201.868103,178.177795 
	C195.921417,182.385559 189.775711,186.421875 184.375168,191.271164 
	C168.104416,205.881119 155.665573,223.333664 146.793228,243.373322 
	C137.425049,264.532867 132.237259,286.728210 131.177521,309.716217 
	C130.544296,323.452148 130.953705,337.333801 132.210068,351.029236 
	C133.275909,362.647858 135.136917,374.430786 138.571793,385.545929 
	C146.007156,409.606415 159.455719,430.068115 178.357422,447.010559 
	C191.413834,458.713593 206.023483,467.518921 222.352081,473.648010 
	C244.789536,482.070129 268.339294,484.608948 291.968658,485.799530 
	C306.362305,486.524750 320.856689,485.429535 335.297852,484.924683 
	C339.733459,484.769623 344.138458,483.825409 348.565033,483.307373 
	C358.079773,482.193909 367.599426,481.122589 376.973816,480.340424 
	C373.307831,483.839233 370.101318,487.501892 366.197235,490.127228 
	C357.778778,495.788177 349.224274,501.331604 340.291382,506.112091 
	C334.596527,509.159760 328.123901,510.754059 322.000000,513.000000 
	C313.312439,513.000000 304.624878,513.000000 295.289032,512.624084 
	C290.293060,511.582062 285.910919,511.086334 281.604736,510.215118 
	C271.904510,508.252716 262.308350,504.913116 252.545181,504.368256 
	C242.876892,503.828674 232.989105,505.614197 223.320953,507.154297 
	C214.461716,508.565582 205.767136,511.010529 197.000000,513.000000 
	C188.645767,513.000000 180.291534,513.000000 171.468658,513.000000 
z"/>
<path fill="#FFFFFF" opacity="1.000000" stroke="none" 
	d="
M322.468658,513.000000 
	C328.123901,510.754059 334.596527,509.159760 340.291382,506.112091 
	C349.224274,501.331604 357.778778,495.788177 366.197235,490.127228 
	C370.101318,487.501892 373.307831,483.839233 377.278564,480.212524 
	C385.674500,471.149078 394.358978,463.079315 401.422760,453.778687 
	C418.035980,431.904633 432.196259,408.459900 442.981537,383.097168 
	C457.453339,349.065277 468.694427,314.327393 465.981659,276.592194 
	C465.452087,269.226135 464.904724,261.849640 463.986420,254.525482 
	C461.363983,233.610123 454.590118,214.052032 444.286652,195.683655 
	C433.520660,176.490723 419.262207,160.479782 401.272675,147.742477 
	C384.961334,136.193451 366.894623,128.933044 347.092438,127.205826 
	C331.986359,125.888229 316.777679,127.006958 301.888000,130.551620 
	C292.582306,132.766953 283.271912,134.962692 273.520874,137.098114 
	C265.080109,137.659256 257.082123,138.289520 249.047882,138.531616 
	C249.068710,136.201431 248.506058,133.942627 249.304977,132.379898 
	C251.289520,128.498047 253.881256,124.924759 256.253998,121.243553 
	C264.476105,108.487305 272.708862,95.737877 281.097534,83.307343 
	C283.747742,84.866707 286.266937,86.049973 288.723602,87.351295 
	C305.222839,96.091141 321.539368,105.197792 338.260834,113.488297 
	C348.763123,118.695335 360.162720,122.043709 371.889252,122.855721 
	C386.651154,123.877914 401.122437,122.591637 415.035889,116.244659 
	C430.161682,109.344604 442.531372,99.319786 453.098785,86.749069 
	C463.304199,74.608986 471.199890,61.009781 476.729370,46.259422 
	C481.166473,34.423122 484.245789,22.075830 487.794220,9.916353 
	C487.922302,9.477429 486.632599,8.624747 485.616455,7.989366 
	C477.070984,11.124881 468.923584,14.322071 459.900024,13.019253 
	C449.579987,11.529243 439.250580,10.094992 428.951965,8.467385 
	C418.062378,6.746385 407.195526,4.875370 396.340851,2.945462 
	C394.503357,2.618758 392.777466,1.664382 391.000000,1.000000 
	C431.645111,1.000000 472.290192,1.000000 512.967651,1.000000 
	C512.967651,171.554596 512.967651,342.109222 512.967651,513.000000 
	C449.646179,513.000000 386.291748,513.000000 322.468658,513.000000 
z"/>
<path fill="#A3E261" opacity="1.000000" stroke="none" 
	d="
M390.531342,1.000000 
	C392.777466,1.664382 394.503357,2.618758 396.340851,2.945462 
	C407.195526,4.875370 418.062378,6.746385 428.951965,8.467385 
	C439.250580,10.094992 449.579987,11.529243 459.900024,13.019253 
	C468.923584,14.322071 477.070984,11.124881 485.476562,8.294049 
	C475.126648,20.742598 462.457306,30.463028 448.619659,38.495064 
	C430.847473,48.810925 411.700165,54.925510 390.877502,55.032909 
	C384.253967,55.067070 377.517059,55.021301 371.033875,56.160728 
	C353.283661,59.280350 335.547180,62.603523 317.987732,66.639954 
	C305.887421,69.421478 294.091156,73.525696 282.102173,76.645149 
	C282.478210,69.859756 277.195679,69.096626 273.098175,67.166443 
	C278.743591,58.139969 283.874725,48.737537 290.141083,40.164970 
	C303.353302,22.090332 320.703064,9.467991 342.461761,3.420084 
	C346.062531,2.419240 349.891785,2.240448 353.807739,1.340882 
	C366.020905,1.000000 378.041779,1.000000 390.531342,1.000000 
z"/>
<path fill="#FFFFFF" opacity="1.000000" stroke="none" 
	d="
M197.468658,513.000000 
	C205.767136,511.010529 214.461716,508.565582 223.320953,507.154297 
	C232.989105,505.614197 242.876892,503.828674 252.545181,504.368256 
	C262.308350,504.913116 271.904510,508.252716 281.604736,510.215118 
	C285.910919,511.086334 290.293060,511.582062 294.820374,512.624084 
	C262.645782,513.000000 230.291550,513.000000 197.468658,513.000000 
z"/>
<path fill="#B25719" opacity="1.000000" stroke="none" 
	d="
M272.724152,67.099777 
	C277.195679,69.096626 282.478210,69.859756 282.040161,77.027496 
	C281.669189,79.530937 281.303406,81.258400 280.937592,82.985870 
	C272.708862,95.737877 264.476105,108.487305 256.253998,121.243553 
	C253.881256,124.924759 251.289520,128.498047 249.304977,132.379898 
	C248.506058,133.942627 249.068710,136.201431 249.027069,138.945831 
	C251.015457,155.822556 252.988434,171.896866 254.532120,187.980957 
	C248.413254,187.984421 242.723679,187.978119 237.034119,187.971817 
	C236.357849,182.954102 235.764481,177.923523 234.988617,172.921249 
	C233.204895,161.420639 231.332336,149.933807 229.204391,138.191116 
	C224.699844,120.243286 218.391830,103.294189 211.082199,86.656960 
	C209.683228,83.472771 209.144699,79.340843 209.816635,75.966225 
	C210.590118,72.081650 214.041168,70.008896 218.382477,69.964836 
	C223.138641,69.916565 226.185562,72.434235 227.938858,76.413300 
	C232.497025,86.757988 236.805222,97.212814 241.385406,108.030556 
	C248.686798,96.867538 255.980606,86.008514 262.928314,74.932404 
	C265.300720,71.150291 268.005890,68.236725 272.724152,67.099777 
z"/>
<path fill="#F94848" opacity="1.000000" stroke="none" 
	d="
M236.620209,187.973663 
	C242.723679,187.978119 248.413254,187.984421 254.949829,187.983398 
	C257.415497,187.653549 259.020844,187.214401 260.654968,187.027817 
	C269.856995,185.977142 278.416656,183.179672 286.125153,177.942490 
	C289.787659,175.454178 291.647675,172.082397 291.992920,167.006943 
	C283.693390,167.006943 275.914581,167.007660 268.135773,167.006744 
	C260.836731,167.005890 259.545807,165.402069 261.130066,158.217361 
	C261.306427,157.417542 261.620270,156.603226 262.055573,155.912323 
	C266.001465,149.649185 269.988556,143.412003 273.963623,137.167236 
	C283.271912,134.962692 292.582306,132.766953 301.888000,130.551620 
	C316.777679,127.006958 331.986359,125.888229 347.092438,127.205826 
	C366.894623,128.933044 384.961334,136.193451 401.272675,147.742477 
	C419.262207,160.479782 433.520660,176.490723 444.286652,195.683655 
	C454.590118,214.052032 461.363983,233.610123 463.986420,254.525482 
	C464.904724,261.849640 465.452087,269.226135 465.981659,276.592194 
	C468.694427,314.327393 457.453339,349.065277 442.981537,383.097168 
	C432.196259,408.459900 418.035980,431.904633 401.422760,453.778687 
	C394.358978,463.079315 385.674500,471.149078 377.421814,479.906128 
	C367.599426,481.122589 358.079773,482.193909 348.565033,483.307373 
	C344.138458,483.825409 339.733459,484.769623 335.297852,484.924683 
	C320.856689,485.429535 306.362305,486.524750 291.968658,485.799530 
	C268.339294,484.608948 244.789536,482.070129 222.352081,473.648010 
	C206.023483,467.518921 191.413834,458.713593 178.357422,447.010559 
	C159.455719,430.068115 146.007156,409.606415 138.571793,385.545929 
	C135.136917,374.430786 133.275909,362.647858 132.210068,351.029236 
	C130.953705,337.333801 130.544296,323.452148 131.177521,309.716217 
	C132.237259,286.728210 137.425049,264.532867 146.793228,243.373322 
	C155.665573,223.333664 168.104416,205.881119 184.375168,191.271164 
	C189.775711,186.421875 195.921417,182.385559 201.868103,178.177795 
	C202.871368,177.467911 205.081390,177.113342 205.914108,177.719925 
	C214.971573,184.317810 225.569290,186.169556 236.620209,187.973663 
M408.428589,289.064789 
	C410.842072,286.610870 413.627045,284.421967 415.601440,281.654724 
	C422.294342,272.274109 423.332397,261.478729 423.043549,250.326233 
	C422.681366,236.341293 419.382721,223.702713 409.727112,212.857605 
	C399.237549,201.075851 381.929413,202.451126 373.506409,215.814011 
	C361.268616,235.228958 363.814728,265.526062 378.903809,282.942841 
	C387.557007,292.930939 395.968567,296.382172 408.428589,289.064789 
z"/>
<path fill="#C7F492" opacity="1.000000" stroke="none" 
	d="
M281.097534,83.307350 
	C281.303406,81.258400 281.669189,79.530937 282.096985,77.421127 
	C294.091156,73.525696 305.887421,69.421478 317.987732,66.639954 
	C335.547180,62.603523 353.283661,59.280350 371.033875,56.160728 
	C377.517059,55.021301 384.253967,55.067070 390.877502,55.032909 
	C411.700165,54.925510 430.847473,48.810925 448.619659,38.495064 
	C462.457306,30.463028 475.126648,20.742598 485.863770,8.269587 
	C486.632599,8.624747 487.922302,9.477429 487.794220,9.916353 
	C484.245789,22.075830 481.166473,34.423122 476.729370,46.259422 
	C471.199890,61.009781 463.304199,74.608986 453.098785,86.749069 
	C442.531372,99.319786 430.161682,109.344604 415.035889,116.244659 
	C401.122437,122.591637 386.651154,123.877914 371.889252,122.855721 
	C360.162720,122.043709 348.763123,118.695335 338.260834,113.488297 
	C321.539368,105.197792 305.222839,96.091141 288.723602,87.351295 
	C286.266937,86.049973 283.747742,84.866707 281.097534,83.307350 
z"/>
<path fill="#E23D3D" opacity="1.000000" stroke="none" 
	d="
M273.520874,137.098099 
	C269.988556,143.412003 266.001465,149.649185 262.055573,155.912323 
	C261.620270,156.603226 261.306427,157.417542 261.130066,158.217361 
	C259.545807,165.402069 260.836731,167.005890 268.135773,167.006744 
	C275.914581,167.007660 283.693390,167.006943 291.992920,167.006943 
	C291.647675,172.082397 289.787659,175.454178 286.125153,177.942490 
	C278.416656,183.179672 269.856995,185.977142 260.654968,187.027817 
	C259.020844,187.214401 257.415497,187.653549 255.379150,187.973633 
	C252.988434,171.896866 251.015457,155.822556 249.063293,139.334015 
	C257.082123,138.289520 265.080109,137.659256 273.520874,137.098099 
z"/>
<path fill="#FC8181" opacity="1.000000" stroke="none" 
	d="
M408.131409,289.285339 
	C395.968567,296.382172 387.557007,292.930939 378.903809,282.942841 
	C363.814728,265.526062 361.268616,235.228958 373.506409,215.814011 
	C381.929413,202.451126 399.237549,201.075851 409.727112,212.857605 
	C419.382721,223.702713 422.681366,236.341293 423.043549,250.326233 
	C423.332397,261.478729 422.294342,272.274109 415.601440,281.654724 
	C413.627045,284.421967 410.842072,286.610870 408.131409,289.285339 
z"/>
</svg>