<svg version="1.1" id="Layer_1" xmlns="http://www.w3.org/2000/svg" xmlns:xlink="http://www.w3.org/1999/xlink" x="0px" y="0px"
	 width="100%" viewBox="0 0 512 512" enable-background="new 0 0 512 512" xml:space="preserve">
<path fill="#FFFFFF" opacity="1.000000" stroke="none" 
	d="
M273.000000,1.000001 
	C352.964691,1.000000 432.929352,1.000000 512.947021,1.000000 
	C512.947021,171.555954 512.947021,342.111938 512.947021,513.000000 
	C434.978882,513.000000 356.957275,513.000000 278.721130,512.680054 
	C281.933929,511.908600 285.353943,511.389893 288.789795,511.016937 
	C306.738007,509.068512 323.809601,504.132904 339.239532,494.716095 
	C345.690247,490.779266 351.845215,485.448212 351.914856,476.888397 
	C352.107178,453.260468 351.903107,429.629303 351.895630,405.553467 
	C353.449005,397.034760 348.646088,391.568146 344.359375,385.864136 
	C347.106232,381.187958 351.400726,376.762787 351.657013,372.114960 
	C352.502319,356.783356 351.887268,341.371246 351.876984,325.544128 
	C353.369812,316.995453 349.216431,311.263428 344.022339,305.738556 
	C346.790833,300.992218 351.368866,296.664368 351.635803,292.085205 
	C352.528656,276.767395 351.879791,261.359741 351.866852,245.537231 
	C353.537750,236.735947 349.069305,230.768250 344.359680,224.864075 
	C350.795074,218.544067 352.523926,211.147308 352.145538,202.534775 
	C351.583496,189.740417 351.720612,176.895233 352.080048,164.086273 
	C352.426422,151.742111 345.782166,143.413177 337.432495,135.661667 
	C329.418121,128.221451 321.576599,120.693817 316.263428,110.793297 
	C308.203552,95.774696 306.765045,79.672226 307.376709,62.982491 
	C309.795532,59.636028 313.369385,56.613617 313.754242,53.228645 
	C314.849915,43.590916 314.799469,33.805935 314.830536,24.077730 
	C314.837128,22.012995 313.587646,19.737320 312.383209,17.910717 
	C306.526733,9.028934 296.883850,6.669464 287.514191,4.056883 
	C282.761536,2.731670 277.843353,2.000004 273.000000,1.000001 
z"/>
<path fill="#FFFFFF" opacity="1.000000" stroke="none" 
	d="
M236.000000,513.000000 
	C157.701263,513.000000 79.402534,513.000000 1.051903,513.000000 
	C1.051903,342.443329 1.051903,171.886658 1.051903,1.000000 
	C80.687798,1.000000 160.376053,1.000000 240.342834,1.373147 
	C230.236938,2.205596 220.387314,4.987166 211.145172,9.502735 
	C203.762253,13.109918 198.644562,18.699265 198.960587,27.793095 
	C199.167877,33.757698 199.168274,39.741341 198.956406,45.705624 
	C198.700592,52.906734 200.694107,58.928665 206.937958,63.564301 
	C206.667328,69.806175 206.342972,75.589470 206.052460,81.374466 
	C205.176971,98.807167 198.409348,113.668831 186.363800,126.165848 
	C180.977402,131.754135 175.133163,136.921082 169.984375,142.712784 
	C164.834869,148.505295 161.728409,155.190414 161.923706,163.419846 
	C162.283157,178.567413 161.760696,193.737183 162.194794,208.880814 
	C162.305099,212.728561 164.432266,216.598175 166.020569,220.290909 
	C166.836533,222.187973 168.507111,223.717438 169.948044,225.619720 
	C163.309677,231.226929 161.574142,238.288376 161.866211,246.624466 
	C162.367447,260.930450 162.120636,275.267822 161.953445,289.589294 
	C161.892853,294.779449 164.005539,298.837555 167.170776,302.595551 
	C168.107025,303.707123 169.094727,304.775360 170.408630,306.258179 
	C161.960617,312.344666 161.687454,320.958557 161.918503,330.025879 
	C162.257812,343.341400 161.750244,356.680267 162.179169,369.990631 
	C162.298874,373.705292 164.209961,377.457367 165.753357,380.994141 
	C166.636200,383.017212 168.433701,384.641083 169.819397,386.444702 
	C169.324615,386.342651 168.829834,386.240601 168.335052,386.138550 
	C166.223328,391.166931 162.417603,396.151825 162.287186,401.231110 
	C161.654770,425.864410 162.105209,450.523651 161.944809,475.172241 
	C161.904327,481.392639 164.632019,486.337463 168.849335,490.008789 
	C180.317764,499.992432 194.149933,505.148315 209.317047,508.056763 
	C212.377319,508.831573 215.066879,509.519196 217.793396,509.995239 
	C223.852432,511.053101 229.929993,512.004944 236.000000,513.000000 
z"/>
<path fill="#97F2E3" opacity="1.000000" stroke="none" 
	d="
M236.468658,513.000000 
	C229.929993,512.004944 223.852432,511.053101 217.793396,509.995239 
	C215.066879,509.519196 212.377319,508.831573 209.336807,507.599731 
	C209.002609,483.103912 209.002609,459.248291 209.002609,435.499786 
	C220.029312,437.072418 230.095917,439.291840 240.248993,439.807098 
	C269.090118,441.270782 297.698730,439.554993 324.932007,428.775940 
	C336.279999,424.284332 346.992279,418.440460 351.855774,405.999420 
	C351.903107,429.629303 352.107178,453.260468 351.914856,476.888397 
	C351.845215,485.448212 345.690247,490.779266 339.239532,494.716095 
	C323.809601,504.132904 306.738007,509.068512 288.789795,511.016937 
	C285.353943,511.389893 281.933929,511.908600 278.253296,512.680054 
	C264.312439,513.000000 250.624878,513.000000 236.468658,513.000000 
z"/>
<path fill="#2FCC6E" opacity="1.000000" stroke="none" 
	d="
M206.899689,63.106506 
	C200.694107,58.928665 198.700592,52.906734 198.956406,45.705624 
	C199.168274,39.741341 199.167877,33.757698 198.960587,27.793095 
	C198.644562,18.699265 203.762253,13.109918 211.145172,9.502735 
	C220.387314,4.987166 230.236938,2.205596 240.810684,1.373147 
	C251.354233,1.000000 261.708466,1.000000 272.531342,1.000001 
	C277.843353,2.000004 282.761536,2.731670 287.514191,4.056883 
	C296.883850,6.669464 306.526733,9.028934 312.383209,17.910717 
	C313.587646,19.737320 314.837128,22.012995 314.830536,24.077730 
	C314.799469,33.805935 314.849915,43.590916 313.754242,53.228645 
	C313.369385,56.613617 309.795532,59.636028 307.024384,63.011986 
	C302.159363,65.120483 298.074432,67.412895 293.714478,68.897667 
	C273.930084,75.635132 253.647537,75.086334 232.940216,72.374313 
	C224.039902,69.158035 215.469803,66.132271 206.899689,63.106506 
z"/>
<path fill="#80D8C7" opacity="1.000000" stroke="none" 
	d="
M206.937958,63.564304 
	C215.469803,66.132271 224.039902,69.158035 232.620026,72.706314 
	C232.418915,75.018852 232.271072,76.818993 231.986481,78.597252 
	C230.032867,90.804398 228.837540,103.206802 225.806412,115.142120 
	C223.715866,123.373924 219.377075,131.111847 215.486389,138.788391 
	C211.330368,146.988434 209.290421,155.716873 209.152222,164.653839 
	C208.778854,188.796448 209.068756,212.948807 208.970642,237.096786 
	C208.957321,240.372055 209.969254,241.938721 213.362411,242.311081 
	C226.657455,243.770157 239.898453,246.117050 253.225739,246.758728 
	C263.414856,247.249298 273.726776,245.915359 283.942993,244.955643 
	C301.911407,243.267639 319.246918,239.118286 335.221649,230.352386 
	C338.235992,228.698334 341.115814,226.799133 344.057709,225.013062 
	C349.069305,230.768250 353.537750,236.735947 351.627014,245.760483 
	C349.266266,249.417404 347.580109,252.791931 345.048004,255.318680 
	C334.121429,266.222046 319.755981,270.280823 305.429993,273.849670 
	C295.849243,276.236420 285.958832,278.039032 276.123138,278.581299 
	C263.046234,279.302246 249.865036,278.968384 236.771957,278.272644 
	C227.635666,277.787170 218.572021,275.934296 209.033752,274.631836 
	C209.033752,289.636353 208.928314,304.426941 209.219070,319.209747 
	C209.244354,320.495667 211.695435,322.466003 213.330734,322.875031 
	C229.717758,326.973724 246.444809,327.112457 263.224854,327.075073 
	C283.312592,327.030334 302.851135,323.869385 321.660187,317.040558 
	C329.373413,314.240204 336.476227,309.758667 343.856720,306.041901 
	C349.216431,311.263428 353.369812,316.995453 351.634644,325.767761 
	C349.518951,329.181488 347.906616,332.104584 345.819427,334.636139 
	C339.675812,342.087769 331.155334,345.904266 322.434875,349.295013 
	C302.057220,357.218262 280.600098,358.933136 259.071625,359.893890 
	C252.645172,360.180695 246.148239,359.544525 239.719269,358.947296 
	C232.161942,358.245209 224.640625,357.147186 217.109741,356.173981 
	C214.605804,355.850403 212.120575,355.381805 209.041000,354.884979 
	C209.041000,370.398987 208.964539,385.018311 209.187546,399.633118 
	C209.205185,400.790131 211.186462,402.754486 212.448380,402.926514 
	C226.023895,404.777466 239.601807,407.051910 253.253983,407.754333 
	C263.434875,408.278198 273.749115,406.919006 283.962097,405.954620 
	C301.923523,404.258575 319.257721,400.119598 335.226379,391.350220 
	C338.238617,389.696014 341.117157,387.798431 344.057373,386.013184 
	C348.646088,391.568146 353.449005,397.034760 351.895630,405.553467 
	C346.992279,418.440460 336.279999,424.284332 324.932007,428.775940 
	C297.698730,439.554993 269.090118,441.270782 240.248993,439.807098 
	C230.095917,439.291840 220.029312,437.072418 209.002609,435.499786 
	C209.002609,459.248291 209.002609,483.103912 208.982849,507.416565 
	C194.149933,505.148315 180.317764,499.992432 168.849335,490.008789 
	C164.632019,486.337463 161.904327,481.392639 161.944809,475.172241 
	C162.105209,450.523651 161.654770,425.864410 162.287186,401.231110 
	C162.417603,396.151825 166.223328,391.166931 168.335052,386.138550 
	C168.829834,386.240601 169.324615,386.342651 169.819397,386.444702 
	C168.433701,384.641083 166.636200,383.017212 165.753357,380.994141 
	C164.209961,377.457367 162.298874,373.705292 162.179169,369.990631 
	C161.750244,356.680267 162.257812,343.341400 161.918503,330.025879 
	C161.687454,320.958557 161.960617,312.344666 170.408630,306.258179 
	C169.094727,304.775360 168.107025,303.707123 167.170776,302.595551 
	C164.005539,298.837555 161.892853,294.779449 161.953445,289.589294 
	C162.120636,275.267822 162.367447,260.930450 161.866211,246.624466 
	C161.574142,238.288376 163.309677,231.226929 169.948044,225.619720 
	C168.507111,223.717438 166.836533,222.187973 166.020569,220.290909 
	C164.432266,216.598175 162.305099,212.728561 162.194794,208.880814 
	C161.760696,193.737183 162.283157,178.567413 161.923706,163.419846 
	C161.728409,155.190414 164.834869,148.505295 169.984375,142.712784 
	C175.133163,136.921082 180.977402,131.754135 186.363800,126.165848 
	C198.409348,113.668831 205.176971,98.807167 206.052460,81.374466 
	C206.342972,75.589470 206.667328,69.806175 206.937958,63.564304 
z"/>
<path fill="#97F2E3" opacity="1.000000" stroke="none" 
	d="
M344.359680,224.864075 
	C341.115814,226.799133 338.235992,228.698334 335.221649,230.352386 
	C319.246918,239.118286 301.911407,243.267639 283.942993,244.955643 
	C273.726776,245.915359 263.414856,247.249298 253.225739,246.758728 
	C239.898453,246.117050 226.657455,243.770157 213.362411,242.311081 
	C209.969254,241.938721 208.957321,240.372055 208.970642,237.096786 
	C209.068756,212.948807 208.778854,188.796448 209.152222,164.653839 
	C209.290421,155.716873 211.330368,146.988434 215.486389,138.788391 
	C219.377075,131.111847 223.715866,123.373924 225.806412,115.142120 
	C228.837540,103.206802 230.032867,90.804398 231.986481,78.597252 
	C232.271072,76.818993 232.418915,75.018852 232.950226,72.896835 
	C253.647537,75.086334 273.930084,75.635132 293.714478,68.897667 
	C298.074432,67.412895 302.159363,65.120483 306.723267,63.170483 
	C306.765045,79.672226 308.203552,95.774696 316.263428,110.793297 
	C321.576599,120.693817 329.418121,128.221451 337.432495,135.661667 
	C345.782166,143.413177 352.426422,151.742111 352.080048,164.086273 
	C351.720612,176.895233 351.583496,189.740417 352.145538,202.534775 
	C352.523926,211.147308 350.795074,218.544067 344.359680,224.864075 
z"/>
<path fill="#97F2E3" opacity="1.000000" stroke="none" 
	d="
M344.022339,305.738556 
	C336.476227,309.758667 329.373413,314.240204 321.660187,317.040558 
	C302.851135,323.869385 283.312592,327.030334 263.224854,327.075073 
	C246.444809,327.112457 229.717758,326.973724 213.330734,322.875031 
	C211.695435,322.466003 209.244354,320.495667 209.219070,319.209747 
	C208.928314,304.426941 209.033752,289.636353 209.033752,274.631836 
	C218.572021,275.934296 227.635666,277.787170 236.771957,278.272644 
	C249.865036,278.968384 263.046234,279.302246 276.123138,278.581299 
	C285.958832,278.039032 295.849243,276.236420 305.429993,273.849670 
	C319.755981,270.280823 334.121429,266.222046 345.048004,255.318680 
	C347.580109,252.791931 349.266266,249.417404 351.581543,246.209747 
	C351.879791,261.359741 352.528656,276.767395 351.635803,292.085205 
	C351.368866,296.664368 346.790833,300.992218 344.022339,305.738556 
z"/>
<path fill="#97F2E3" opacity="1.000000" stroke="none" 
	d="
M344.359375,385.864136 
	C341.117157,387.798431 338.238617,389.696014 335.226379,391.350220 
	C319.257721,400.119598 301.923523,404.258575 283.962097,405.954620 
	C273.749115,406.919006 263.434875,408.278198 253.253983,407.754333 
	C239.601807,407.051910 226.023895,404.777466 212.448380,402.926514 
	C211.186462,402.754486 209.205185,400.790131 209.187546,399.633118 
	C208.964539,385.018311 209.041000,370.398987 209.041000,354.884979 
	C212.120575,355.381805 214.605804,355.850403 217.109741,356.173981 
	C224.640625,357.147186 232.161942,358.245209 239.719269,358.947296 
	C246.148239,359.544525 252.645172,360.180695 259.071625,359.893890 
	C280.600098,358.933136 302.057220,357.218262 322.434875,349.295013 
	C331.155334,345.904266 339.675812,342.087769 345.819427,334.636139 
	C347.906616,332.104584 349.518951,329.181488 351.590576,326.213684 
	C351.887268,341.371246 352.502319,356.783356 351.657013,372.114960 
	C351.400726,376.762787 347.106232,381.187958 344.359375,385.864136 
z"/>
</svg>