<svg version="1.1" id="Layer_1" xmlns="http://www.w3.org/2000/svg" xmlns:xlink="http://www.w3.org/1999/xlink" x="0px" y="0px"
	 width="100%" viewBox="0 0 512 512" enable-background="new 0 0 512 512" xml:space="preserve">
<path fill="#FFFFFF" opacity="1.000000" stroke="none" 
	d="
M261.000000,1.000000 
	C344.964111,1.000000 428.928223,1.000000 512.946167,1.000000 
	C512.946167,171.557831 512.946167,342.115662 512.946167,513.000000 
	C429.311615,513.000000 345.622772,513.000000 261.568665,512.645691 
	C262.803192,509.370789 265.554260,506.537201 265.782715,503.513000 
	C266.417328,495.112579 266.002869,486.632904 266.002869,478.328156 
	C270.210327,477.754059 273.983276,477.548187 277.602234,476.691620 
	C292.841125,473.084778 307.176880,467.292572 320.592865,459.096222 
	C332.683228,451.709747 341.560577,441.477081 345.818787,428.243683 
	C352.246735,408.267090 357.615540,387.938080 363.042664,367.653992 
	C370.373505,340.254852 374.231323,312.190338 377.902161,284.136322 
	C380.105225,267.299469 381.545135,250.352524 382.932678,233.422668 
	C383.954376,220.956818 384.900696,208.438217 384.894226,195.943634 
	C384.876617,161.885117 384.371643,127.826424 383.956055,93.769073 
	C383.906311,89.693504 383.524353,85.567230 382.764954,81.565300 
	C380.441437,69.320091 372.463257,60.642307 363.303894,53.197708 
	C355.356384,46.738102 352.446991,48.376740 346.642578,52.088413 
	C342.105408,50.157639 337.934143,48.303333 333.853149,46.075562 
	C333.669189,39.048168 332.152985,37.043987 325.712982,34.965004 
	C322.527130,33.936531 319.379120,32.620193 316.106812,32.058971 
	C299.571198,29.223021 283.000336,26.592531 266.002869,23.818342 
	C266.002869,20.109152 265.891663,15.649673 266.034454,11.198343 
	C266.174347,6.836611 264.346100,3.575646 261.000000,1.000000 
z"/>
<path fill="#FFFFFF" opacity="1.000000" stroke="none" 
	d="
M253.000000,513.000000 
	C169.035904,513.000000 85.071800,513.000000 1.053848,513.000000 
	C1.053848,342.442169 1.053848,171.884338 1.053848,1.000000 
	C84.688400,1.000000 168.377213,1.000000 252.431366,1.354325 
	C251.196854,4.631114 248.725174,7.406485 248.201477,10.510510 
	C247.415924,15.166438 247.997147,20.052971 247.997147,24.315845 
	C234.403488,26.262276 221.365295,28.086863 208.340790,30.004234 
	C189.796417,32.734192 172.505142,39.202789 156.758453,49.159428 
	C144.648346,56.816650 133.717102,66.431999 131.406860,81.551926 
	C129.599884,93.378242 129.075104,105.502800 129.120651,117.490509 
	C129.252991,152.324890 127.652702,187.198044 130.968369,221.982208 
	C131.824631,230.965073 132.193375,239.994095 133.027344,248.979523 
	C134.234726,261.988068 135.339737,275.019348 137.073898,287.962494 
	C139.420715,305.478271 142.078674,322.961151 145.042084,340.383484 
	C149.659882,367.532135 156.936157,394.040771 165.023468,420.340088 
	C168.904404,432.960510 174.640350,444.941559 184.933243,453.030548 
	C203.193848,467.381195 224.405640,475.667755 247.997131,478.336609 
	C247.997131,486.497711 248.106308,494.631470 247.953384,502.760345 
	C247.870743,507.153229 249.642670,510.412689 253.000000,513.000000 
z"/>
<path fill="#020200" opacity="1.000000" stroke="none" 
	d="
M253.444153,513.000000 
	C249.642670,510.412689 247.870743,507.153229 247.953384,502.760345 
	C248.106308,494.631470 247.997131,486.497711 247.997131,478.336609 
	C224.405640,475.667755 203.193848,467.381195 184.933243,453.030548 
	C174.640350,444.941559 168.904404,432.960510 165.023468,420.340088 
	C156.936157,394.040771 149.659882,367.532135 145.042084,340.383484 
	C142.078674,322.961151 139.420715,305.478271 137.073898,287.962494 
	C135.339737,275.019348 134.234726,261.988068 133.027344,248.979523 
	C132.193375,239.994095 131.824631,230.965073 130.968369,221.982208 
	C127.652702,187.198044 129.252991,152.324890 129.120651,117.490509 
	C129.075104,105.502800 129.599884,93.378242 131.406860,81.551926 
	C133.717102,66.431999 144.648346,56.816650 156.758453,49.159428 
	C172.505142,39.202789 189.796417,32.734192 208.340790,30.004234 
	C221.365295,28.086863 234.403488,26.262276 247.997147,24.315845 
	C247.997147,20.052971 247.415924,15.166438 248.201477,10.510510 
	C248.725174,7.406485 251.196854,4.631114 252.898346,1.354325 
	C255.370560,1.000000 257.741119,1.000000 260.555847,1.000000 
	C264.346100,3.575646 266.174347,6.836611 266.034454,11.198343 
	C265.891663,15.649673 266.002869,20.109152 266.002869,23.818342 
	C283.000336,26.592531 299.571198,29.223021 316.106812,32.058971 
	C319.379120,32.620193 322.527130,33.936531 325.712982,34.965004 
	C332.152985,37.043987 333.669189,39.048168 333.531982,46.247406 
	C328.892151,52.498844 326.992767,52.935715 319.933777,51.287018 
	C309.273499,48.797203 298.589142,46.323093 287.806580,44.475021 
	C280.563171,43.233547 273.132355,43.085674 265.668152,42.438347 
	C265.668152,46.163342 265.668152,48.911476 265.668152,51.362743 
	C281.401611,56.497528 297.048157,59.887844 313.342072,60.283932 
	C320.974182,60.469467 329.218384,61.434425 334.211060,67.999146 
	C338.493744,73.630318 343.896912,76.825089 350.027008,79.449280 
	C350.484192,79.644997 351.097321,79.752533 351.349701,80.106567 
	C353.275574,82.807800 356.568359,85.542603 356.601898,88.301422 
	C356.635498,91.061928 354.020996,95.084846 351.458649,96.408722 
	C344.639069,99.932213 337.938599,103.104401 333.346588,109.752029 
	C331.906982,111.836060 328.814362,113.319893 326.206696,113.944809 
	C320.423065,115.330818 314.468811,116.007500 308.581635,116.958008 
	C298.617218,118.566811 288.389740,119.243965 278.746643,121.981621 
	C264.359802,126.066002 250.406723,126.909027 236.145538,122.023605 
	C229.637497,119.794174 227.926346,117.953621 227.948975,110.654282 
	C231.606461,104.802994 234.081284,103.578072 240.629791,105.834641 
	C251.985733,109.747810 262.913818,108.881767 274.352173,105.631485 
	C284.181274,102.838486 294.497375,101.262405 304.702667,100.430969 
	C314.808075,99.607681 324.619141,99.487480 328.881165,88.196594 
	C324.738403,79.257965 316.828003,76.483627 306.809265,76.605461 
	C294.434448,76.755959 282.335327,74.338409 270.586731,70.337143 
	C269.057373,69.816277 267.431488,69.578819 265.375824,69.099449 
	C265.375824,72.428017 265.436737,75.384201 265.363373,78.337051 
	C265.202393,84.818062 262.075500,88.503036 256.887970,88.431595 
	C251.727966,88.360527 248.769592,84.694847 248.633972,78.113075 
	C248.573914,75.198715 248.623856,72.282089 248.623856,70.444160 
	C234.259018,72.606010 220.420685,75.569443 206.447632,76.491638 
	C196.614777,77.140579 189.242432,79.887093 184.916962,88.377914 
	C189.239319,96.736763 196.136337,100.708748 205.547333,100.055367 
	C206.042511,100.020988 206.546722,100.076935 207.044128,100.120415 
	C213.498886,100.684624 215.598907,102.559700 216.986969,109.429184 
	C215.531693,115.138039 212.054428,117.491608 206.598892,117.006439 
	C202.454605,116.637878 198.077072,116.945656 194.228912,115.669319 
	C189.011047,113.938698 183.086014,112.043594 179.498825,108.279930 
	C175.109177,103.674355 170.601334,100.062492 164.803024,97.780594 
	C160.534439,96.100723 157.063309,93.481468 157.045486,88.439751 
	C157.027679,83.394318 160.476700,80.813225 164.747192,79.070435 
	C170.479797,76.730942 175.658859,73.891685 179.368271,68.448776 
	C181.079254,65.938225 184.438126,63.934448 187.445251,63.058697 
	C192.817459,61.494183 198.470184,60.282001 204.039810,60.123531 
	C219.328262,59.688541 233.869797,55.961033 248.333344,51.409985 
	C248.333344,48.587444 248.333344,45.824749 248.333344,42.710831 
	C225.263901,43.500759 203.083740,47.078396 181.902756,55.729588 
	C171.193787,60.103580 161.114487,65.556633 153.631927,74.726425 
	C146.091415,83.967224 145.729477,93.556229 153.979233,102.172600 
	C159.509781,107.948936 166.193512,113.046196 173.214111,116.889305 
	C192.494064,127.443245 213.737396,131.715927 235.404236,133.492020 
	C266.535492,136.043945 297.272522,133.975983 326.928314,123.158287 
	C339.524902,118.563347 351.496521,112.783104 360.308685,102.165840 
	C368.092590,92.787506 367.788391,82.734650 359.597931,73.829788 
	C357.687988,71.753258 355.790192,69.504189 353.453827,68.012840 
	C347.438324,64.173042 344.516510,59.339508 347.008484,52.164883 
	C352.446991,48.376740 355.356384,46.738102 363.303894,53.197708 
	C372.463257,60.642307 380.441437,69.320091 382.764954,81.565300 
	C383.524353,85.567230 383.906311,89.693504 383.956055,93.769073 
	C384.371643,127.826424 384.876617,161.885117 384.894226,195.943634 
	C384.900696,208.438217 383.954376,220.956818 382.932678,233.422668 
	C381.545135,250.352524 380.105225,267.299469 377.902161,284.136322 
	C374.231323,312.190338 370.373505,340.254852 363.042664,367.653992 
	C357.615540,387.938080 352.246735,408.267090 345.818787,428.243683 
	C341.560577,441.477081 332.683228,451.709747 320.592865,459.096222 
	C307.176880,467.292572 292.841125,473.084778 277.602234,476.691620 
	C273.983276,477.548187 270.210327,477.754059 266.002869,478.328156 
	C266.002869,486.632904 266.417328,495.112579 265.782715,503.513000 
	C265.554260,506.537201 262.803192,509.370789 261.101685,512.645691 
	C258.629456,513.000000 256.258881,513.000000 253.444153,513.000000 
M326.859955,424.650391 
	C321.997375,426.268036 317.114960,427.829956 312.286652,429.544098 
	C311.136627,429.952362 309.550812,430.650116 309.216675,431.588867 
	C307.318085,436.923065 305.738403,442.370789 303.790466,448.612183 
	C314.954956,442.873962 323.865906,436.369202 328.432098,424.868347 
	C328.376709,424.663818 328.321320,424.459290 328.265930,424.254761 
	C328.050110,424.411835 327.834259,424.568878 326.859955,424.650391 
M284.780365,452.610291 
	C286.587097,446.830048 288.393799,441.049805 290.408051,434.605591 
	C281.706329,435.432495 273.634583,436.199524 265.290222,436.992462 
	C265.478149,440.076019 265.627350,442.524628 265.399719,445.695343 
	C265.399719,450.619354 265.399719,455.543365 265.399719,461.119659 
	C270.603973,460.029480 275.226624,458.890869 279.911438,458.140625 
	C282.944427,457.654938 284.217499,456.053009 284.780365,452.610291 
M186.190109,424.436951 
	C185.926117,424.445831 185.662140,424.454681 185.398148,424.463562 
	C185.595474,424.645081 185.792801,424.826599 185.993011,425.726929 
	C189.823654,434.218201 196.009766,440.531372 203.998077,445.169128 
	C217.742065,453.148346 232.223267,458.981476 248.314178,460.743774 
	C248.314178,452.591431 248.314178,444.862091 248.314178,436.901581 
	C245.871674,436.617798 243.731735,436.430969 241.611557,436.112488 
	C230.116943,434.385864 218.564468,432.953003 207.158813,430.759216 
	C200.058563,429.393555 193.182938,426.860077 186.190109,424.436951 
M237.863449,418.981812 
	C241.285568,419.272400 244.707687,419.562988 248.391693,419.875824 
	C248.391693,409.314392 248.391693,399.254913 248.391693,388.942291 
	C238.790924,387.994873 229.407730,387.068939 219.216827,385.928253 
	C216.798431,385.603363 214.380051,385.278442 211.386032,384.876221 
	C212.160034,389.044128 212.872391,392.578217 213.463242,396.132538 
	C214.347916,401.454346 211.618622,405.740540 206.795471,406.748291 
	C202.479858,407.649994 198.200851,404.614441 197.036957,399.516266 
	C195.852798,394.329315 195.067184,389.050415 193.845627,383.873474 
	C193.512909,382.463470 192.516144,380.555939 191.349197,380.104492 
	C184.439560,377.431610 177.390060,375.120209 169.571182,372.403595 
	C172.176086,381.967041 174.539307,390.916138 177.133408,399.797760 
	C177.434326,400.828033 178.915802,401.659607 180.018341,402.287720 
	C197.695801,412.358795 216.927567,417.096191 237.863449,418.981812 
M207.376617,326.006104 
	C205.686371,325.727570 203.996124,325.449066 201.789719,325.085480 
	C203.608322,337.708313 205.496948,349.756165 206.999985,361.851929 
	C207.494965,365.835205 209.028030,367.808167 213.861450,367.856323 
	C225.272141,369.303467 236.682816,370.750610 248.283539,372.221832 
	C248.283539,357.784454 248.283539,344.450165 248.283539,331.470093 
	C234.605225,329.696686 221.316025,327.973724 207.376617,326.006104 
M208.377167,189.900665 
	C221.608765,191.713715 234.840347,193.526779 248.202179,195.357681 
	C248.202179,179.702499 248.202179,165.504288 248.202179,151.606567 
	C236.838455,150.411087 225.930435,149.263535 214.265228,147.853439 
	C210.277603,147.050461 206.289963,146.247498 201.688004,145.320816 
	C200.508881,156.225342 199.043518,166.407806 198.392181,176.642090 
	C197.552399,189.837540 195.334396,186.541580 208.377167,189.900665 
M206.650024,308.416748 
	C220.390015,310.523621 234.130020,312.630463 248.258743,314.796936 
	C248.258743,300.011169 248.258743,286.497742 248.258743,272.846375 
	C246.613892,272.614319 245.317062,272.393585 244.011612,272.253143 
	C233.770355,271.151337 223.488403,270.328308 213.308029,268.818848 
	C210.109756,268.344604 207.183075,266.038788 204.096115,263.854828 
	C204.379517,260.892212 204.662918,257.929596 205.562286,254.567978 
	C208.756454,251.099411 212.748474,251.903381 216.739243,252.393921 
	C227.193100,253.678894 237.657043,254.881989 248.299561,256.139313 
	C248.299561,240.677979 248.299561,226.295715 248.299561,212.233398 
	C233.958450,210.427109 219.985397,208.667191 205.406311,206.450256 
	C202.581787,205.893433 199.757248,205.336609 195.349533,204.467667 
	C196.550293,239.268127 197.713455,272.978973 198.879333,306.768799 
	C202.144424,307.339905 204.070526,307.676788 206.650024,308.416748 
M356.997467,188.597107 
	C351.176483,191.441055 345.501953,194.661972 339.484436,197.000183 
	C335.273499,198.636429 333.726715,200.683075 334.105743,205.308731 
	C334.785248,213.601776 334.846375,221.956497 334.889252,230.286850 
	C334.918182,235.900131 331.392975,239.631653 326.586517,239.692642 
	C321.795929,239.753433 318.388245,236.107056 318.043945,230.463272 
	C317.932434,228.635727 317.976074,226.797806 317.974213,224.964615 
	C317.967438,218.359528 317.971527,211.754456 317.971527,205.401199 
	C300.011993,207.792114 282.953461,210.063065 265.657043,212.365692 
	C265.657043,226.491028 265.657043,240.903290 265.657043,255.616562 
	C269.578583,255.384415 273.208832,255.263733 276.820923,254.940475 
	C301.369659,252.743362 325.273956,248.163193 346.865784,235.404724 
	C355.311035,230.414474 363.900482,224.661499 365.748230,214.559036 
	C367.687805,203.954422 367.269775,192.918625 367.946350,180.932846 
	C363.782166,183.847916 360.690369,186.012268 356.997467,188.597107 
M343.189911,295.720367 
	C348.288452,292.017609 353.509399,288.466431 358.405304,284.512787 
	C359.744019,283.431732 360.612366,281.204285 360.833191,279.397400 
	C361.984314,269.979462 362.876221,260.529388 363.810791,251.085785 
	C364.009125,249.081863 364.009491,247.058350 364.137573,244.240479 
	C333.968994,265.519043 300.076080,270.440857 265.780457,272.715057 
	C265.780457,286.860046 265.780457,300.245575 265.780457,314.968170 
	C281.292755,312.467621 296.212158,310.148254 311.076660,307.518524 
	C312.393494,307.285583 314.142487,305.137451 314.340088,303.693970 
	C315.174591,297.597931 315.475677,291.429962 316.020691,285.292633 
	C316.181732,283.479309 316.323883,281.632843 316.786346,279.883972 
	C317.923187,275.584991 321.612518,272.885223 325.518646,273.282654 
	C329.762451,273.714478 333.085022,277.196320 332.991180,281.810486 
	C332.865265,288.004639 332.303162,294.189880 331.885162,301.091858 
	C335.963287,299.157898 339.245178,297.601501 343.189911,295.720367 
M149.925018,219.389023 
	C155.711014,224.777756 161.238220,230.485001 167.360687,235.459610 
	C172.754929,239.842514 174.614746,243.921997 171.831161,248.452484 
	C169.109253,252.882553 164.040054,253.423645 158.263855,249.850784 
	C155.640472,248.228088 153.068283,246.522614 149.645798,244.323166 
	C150.927475,257.323395 152.076096,269.357635 153.367111,281.376556 
	C153.476120,282.391235 154.394608,283.446655 155.181442,284.241028 
	C162.681030,291.812195 171.753021,296.817444 182.222794,300.862854 
	C181.797134,295.193512 181.165237,290.096375 181.072647,284.989410 
	C180.581100,257.877167 180.128769,230.763107 179.939819,203.647736 
	C179.915359,200.138474 178.600754,199.016891 175.755310,197.586502 
	C167.027237,193.198975 158.554001,188.304581 149.980652,183.609146 
	C148.903229,183.019058 147.819672,182.440125 147.179337,182.094040 
	C147.179337,191.075562 146.965546,199.871674 147.287323,208.648148 
	C147.411469,212.034576 148.751724,215.376434 149.925018,219.389023 
M266.782135,194.571548 
	C283.531403,193.755066 300.119568,191.911041 316.760773,187.015594 
	C315.302521,172.996338 313.870117,159.225784 312.491364,145.970856 
	C296.359528,148.021713 281.121674,149.958893 265.369568,151.961472 
	C265.369568,160.421967 265.295135,169.198257 265.396942,177.972488 
	C265.459961,183.402298 265.790924,188.828995 266.782135,194.571548 
M265.367371,334.851746 
	C265.367371,347.079559 265.367371,359.307343 265.367371,372.415955 
	C278.262482,370.670227 290.246552,368.920685 302.269562,367.501495 
	C305.657227,367.101624 306.574554,365.433167 306.951721,362.463348 
	C307.705536,356.528046 308.802002,350.637146 309.625397,344.709595 
	C310.526428,338.223083 311.278839,331.715912 312.013214,325.876160 
	C297.461761,327.466156 283.435150,329.015381 269.403259,330.514740 
	C267.208740,330.749176 264.851379,330.592224 265.367371,334.851746 
M348.452637,173.997360 
	C350.242554,172.787781 352.088928,171.653168 353.812286,170.355209 
	C360.162140,165.572800 366.613220,160.223022 367.378510,152.002716 
	C368.353485,141.530319 367.614716,130.898407 367.614716,119.209366 
	C356.227753,128.987076 344.168274,134.777618 331.492218,139.505753 
	C330.334503,139.937576 328.994537,142.149902 329.118622,143.398331 
	C330.364136,155.931549 331.898468,168.436081 333.450531,181.801346 
	C338.482758,179.193298 343.149445,176.774719 348.452637,173.997360 
M147.617569,155.577515 
	C154.481720,169.441772 167.384033,175.391403 180.615784,181.524094 
	C182.128952,168.587692 183.481155,156.354538 185.045792,144.148605 
	C185.413284,141.281769 184.350510,140.217239 181.865204,139.016876 
	C172.019989,134.261795 162.316940,129.207916 152.628738,124.135803 
	C150.686523,123.118973 149.039932,121.537453 147.247757,120.209419 
	C147.247757,132.037460 147.247757,143.454590 147.617569,155.577515 
M265.361664,400.534576 
	C265.361664,406.828979 265.361664,413.123352 265.361664,420.257935 
	C275.299164,418.956909 284.653625,417.815948 293.965576,416.396179 
	C295.009094,416.237091 296.367615,414.628235 296.638245,413.471375 
	C298.817932,404.153961 300.771667,394.783691 302.869690,385.081421 
	C290.170532,386.423401 278.006256,387.708832 265.361847,389.045044 
	C265.361847,392.638916 265.361847,396.094330 265.361664,400.534576 
M164.304123,311.180511 
	C162.053268,310.033691 159.802429,308.886841 156.596970,307.253601 
	C159.221527,321.610199 161.613968,334.804169 164.086990,347.983032 
	C164.251129,348.857697 164.830780,350.002411 165.550430,350.371216 
	C173.281281,354.332947 181.079208,358.163818 189.853134,362.524719 
	C187.912003,347.981903 186.272858,335.024353 184.322586,322.113831 
	C184.122421,320.788818 182.259079,319.334656 180.827957,318.644257 
	C175.611465,316.127960 170.250900,313.910339 164.304123,311.180511 
M339.478241,316.014954 
	C337.627838,316.742859 335.664307,317.274384 333.960144,318.256165 
	C332.385590,319.163208 330.043701,320.390961 329.832428,321.755096 
	C327.811646,334.801697 326.171814,347.907318 324.224915,362.476196 
	C332.924042,358.182404 340.614441,354.428650 348.243683,350.554443 
	C348.993195,350.173828 349.705414,349.117157 349.864899,348.267303 
	C352.368073,334.928253 354.777527,321.571594 357.349640,307.443878 
	C351.108398,310.479248 345.656647,313.130646 339.478241,316.014954 
M330.047699,377.631165 
	C322.626373,378.363220 318.988129,382.483917 318.942535,389.914978 
	C318.936584,390.885925 318.492401,391.848663 318.300537,392.824921 
	C317.148102,398.687103 316.010101,404.552155 314.629974,411.633881 
	C321.947632,408.087860 328.070160,405.175171 334.128906,402.135376 
	C335.229034,401.583466 336.640289,400.677612 336.938019,399.653229 
	C339.514099,390.789673 341.868164,381.861603 344.498230,372.180115 
	C339.330475,374.108093 335.047028,375.706116 330.047699,377.631165 
z"/>
<path fill="#FAD01C" opacity="1.000000" stroke="none" 
	d="
M346.642578,52.088413 
	C344.516510,59.339508 347.438324,64.173042 353.453827,68.012840 
	C355.790192,69.504189 357.687988,71.753258 359.597931,73.829788 
	C367.788391,82.734650 368.092590,92.787506 360.308685,102.165840 
	C351.496521,112.783104 339.524902,118.563347 326.928314,123.158287 
	C297.272522,133.975983 266.535492,136.043945 235.404236,133.492020 
	C213.737396,131.715927 192.494064,127.443245 173.214111,116.889305 
	C166.193512,113.046196 159.509781,107.948936 153.979233,102.172600 
	C145.729477,93.556229 146.091415,83.967224 153.631927,74.726425 
	C161.114487,65.556633 171.193787,60.103580 181.902756,55.729588 
	C203.083740,47.078396 225.263901,43.500759 248.333344,42.710831 
	C248.333344,45.824749 248.333344,48.587444 248.333344,51.409985 
	C233.869797,55.961033 219.328262,59.688541 204.039810,60.123531 
	C198.470184,60.282001 192.817459,61.494183 187.445251,63.058697 
	C184.438126,63.934448 181.079254,65.938225 179.368271,68.448776 
	C175.658859,73.891685 170.479797,76.730942 164.747192,79.070435 
	C160.476700,80.813225 157.027679,83.394318 157.045486,88.439751 
	C157.063309,93.481468 160.534439,96.100723 164.803024,97.780594 
	C170.601334,100.062492 175.109177,103.674355 179.498825,108.279930 
	C183.086014,112.043594 189.011047,113.938698 194.228912,115.669319 
	C198.077072,116.945656 202.454605,116.637878 206.598892,117.006439 
	C212.054428,117.491608 215.531693,115.138039 217.374756,109.467461 
	C221.184387,109.770164 224.491608,110.373100 227.798813,110.976036 
	C227.926346,117.953621 229.637497,119.794174 236.145538,122.023605 
	C250.406723,126.909027 264.359802,126.066002 278.746643,121.981621 
	C288.389740,119.243965 298.617218,118.566811 308.581635,116.958008 
	C314.468811,116.007500 320.423065,115.330818 326.206696,113.944809 
	C328.814362,113.319893 331.906982,111.836060 333.346588,109.752029 
	C337.938599,103.104401 344.639069,99.932213 351.458649,96.408722 
	C354.020996,95.084846 356.635498,91.061928 356.601898,88.301422 
	C356.568359,85.542603 353.275574,82.807800 351.349701,80.106567 
	C351.097321,79.752533 350.484192,79.644997 350.027008,79.449280 
	C343.896912,76.825089 338.493744,73.630318 334.211060,67.999146 
	C329.218384,61.434425 320.974182,60.469467 313.342072,60.283932 
	C297.048157,59.887844 281.401611,56.497528 265.668152,51.362743 
	C265.668152,48.911476 265.668152,46.163342 265.668152,42.438347 
	C273.132355,43.085674 280.563171,43.233547 287.806580,44.475021 
	C298.589142,46.323093 309.273499,48.797203 319.933777,51.287018 
	C326.992767,52.935715 328.892151,52.498844 333.441711,46.620872 
	C337.934143,48.303333 342.105408,50.157639 346.642578,52.088413 
z"/>
<path fill="#FBD01D" opacity="1.000000" stroke="none" 
	d="
M357.298035,188.386871 
	C360.690369,186.012268 363.782166,183.847916 367.946350,180.932846 
	C367.269775,192.918625 367.687805,203.954422 365.748230,214.559036 
	C363.900482,224.661499 355.311035,230.414474 346.865784,235.404724 
	C325.273956,248.163193 301.369659,252.743362 276.820923,254.940475 
	C273.208832,255.263733 269.578583,255.384415 265.657043,255.616562 
	C265.657043,240.903290 265.657043,226.491028 265.657043,212.365692 
	C282.953461,210.063065 300.011993,207.792114 317.971527,205.401199 
	C317.971527,211.754456 317.967438,218.359528 317.974213,224.964615 
	C317.976074,226.797806 317.932434,228.635727 318.043945,230.463272 
	C318.388245,236.107056 321.795929,239.753433 326.586517,239.692642 
	C331.392975,239.631653 334.918182,235.900131 334.889252,230.286850 
	C334.846375,221.956497 334.785248,213.601776 334.105743,205.308731 
	C333.726715,200.683075 335.273499,198.636429 339.484436,197.000183 
	C345.501953,194.661972 351.176483,191.441055 357.298035,188.386871 
z"/>
<path fill="#F8DF73" opacity="1.000000" stroke="none" 
	d="
M227.948975,110.654282 
	C224.491608,110.373100 221.184387,109.770164 217.489395,109.128952 
	C215.598907,102.559700 213.498886,100.684624 207.044128,100.120415 
	C206.546722,100.076935 206.042511,100.020988 205.547333,100.055367 
	C196.136337,100.708748 189.239319,96.736763 184.916962,88.377914 
	C189.242432,79.887093 196.614777,77.140579 206.447632,76.491638 
	C220.420685,75.569443 234.259018,72.606010 248.623856,70.444160 
	C248.623856,72.282089 248.573914,75.198715 248.633972,78.113075 
	C248.769592,84.694847 251.727966,88.360527 256.887970,88.431595 
	C262.075500,88.503036 265.202393,84.818062 265.363373,78.337051 
	C265.436737,75.384201 265.375824,72.428017 265.375824,69.099449 
	C267.431488,69.578819 269.057373,69.816277 270.586731,70.337143 
	C282.335327,74.338409 294.434448,76.755959 306.809265,76.605461 
	C316.828003,76.483627 324.738403,79.257965 328.881165,88.196594 
	C324.619141,99.487480 314.808075,99.607681 304.702667,100.430969 
	C294.497375,101.262405 284.181274,102.838486 274.352173,105.631485 
	C262.913818,108.881767 251.985733,109.747810 240.629791,105.834641 
	C234.081284,103.578072 231.606461,104.802994 227.948975,110.654282 
z"/>
<path fill="#FBD11D" opacity="1.000000" stroke="none" 
	d="
M342.858521,295.882751 
	C339.245178,297.601501 335.963287,299.157898 331.885162,301.091858 
	C332.303162,294.189880 332.865265,288.004639 332.991180,281.810486 
	C333.085022,277.196320 329.762451,273.714478 325.518646,273.282654 
	C321.612518,272.885223 317.923187,275.584991 316.786346,279.883972 
	C316.323883,281.632843 316.181732,283.479309 316.020691,285.292633 
	C315.475677,291.429962 315.174591,297.597931 314.340088,303.693970 
	C314.142487,305.137451 312.393494,307.285583 311.076660,307.518524 
	C296.212158,310.148254 281.292755,312.467621 265.780457,314.968170 
	C265.780457,300.245575 265.780457,286.860046 265.780457,272.715057 
	C300.076080,270.440857 333.968994,265.519043 364.137573,244.240479 
	C364.009491,247.058350 364.009125,249.081863 363.810791,251.085785 
	C362.876221,260.529388 361.984314,269.979462 360.833191,279.397400 
	C360.612366,281.204285 359.744019,283.431732 358.405304,284.512787 
	C353.509399,288.466431 348.288452,292.017609 342.858521,295.882751 
z"/>
<path fill="#D8B114" opacity="1.000000" stroke="none" 
	d="
M149.731476,219.063812 
	C148.751724,215.376434 147.411469,212.034576 147.287323,208.648148 
	C146.965546,199.871674 147.179337,191.075562 147.179337,182.094040 
	C147.819672,182.440125 148.903229,183.019058 149.980652,183.609146 
	C158.554001,188.304581 167.027237,193.198975 175.755310,197.586502 
	C178.600754,199.016891 179.915359,200.138474 179.939819,203.647736 
	C180.128769,230.763107 180.581100,257.877167 181.072647,284.989410 
	C181.165237,290.096375 181.797134,295.193512 182.222794,300.862854 
	C171.753021,296.817444 162.681030,291.812195 155.181442,284.241028 
	C154.394608,283.446655 153.476120,282.391235 153.367111,281.376556 
	C152.076096,269.357635 150.927475,257.323395 149.645798,244.323166 
	C153.068283,246.522614 155.640472,248.228088 158.263855,249.850784 
	C164.040054,253.423645 169.109253,252.882553 171.831161,248.452484 
	C174.614746,243.921997 172.754929,239.842514 167.360687,235.459610 
	C161.238220,230.485001 155.711014,224.777756 149.731476,219.063812 
z"/>
<path fill="#FBD11D" opacity="1.000000" stroke="none" 
	d="
M266.391876,194.414322 
	C265.790924,188.828995 265.459961,183.402298 265.396942,177.972488 
	C265.295135,169.198257 265.369568,160.421967 265.369568,151.961472 
	C281.121674,149.958893 296.359528,148.021713 312.491364,145.970856 
	C313.870117,159.225784 315.302521,172.996338 316.760773,187.015594 
	C300.119568,191.911041 283.531403,193.755066 266.391876,194.414322 
z"/>
<path fill="#FBD11D" opacity="1.000000" stroke="none" 
	d="
M206.012329,206.907257 
	C219.985397,208.667191 233.958450,210.427109 248.299561,212.233398 
	C248.299561,226.295715 248.299561,240.677979 248.299561,256.139313 
	C237.657043,254.881989 227.193100,253.678894 216.739243,252.393921 
	C212.748474,251.903381 208.756454,251.099411 204.955994,254.477600 
	C204.903915,238.560562 205.458130,222.733902 206.012329,206.907257 
z"/>
<path fill="#FBD11D" opacity="1.000000" stroke="none" 
	d="
M204.132080,264.571289 
	C207.183075,266.038788 210.109756,268.344604 213.308029,268.818848 
	C223.488403,270.328308 233.770355,271.151337 244.011612,272.253143 
	C245.317062,272.393585 246.613892,272.614319 248.258743,272.846375 
	C248.258743,286.497742 248.258743,300.011169 248.258743,314.796936 
	C234.130020,312.630463 220.390015,310.523621 206.318344,307.769196 
	C205.368469,292.938202 204.750275,278.754730 204.132080,264.571289 
z"/>
<path fill="#FAD01C" opacity="1.000000" stroke="none" 
	d="
M265.367889,334.393738 
	C264.851379,330.592224 267.208740,330.749176 269.403259,330.514740 
	C283.435150,329.015381 297.461761,327.466156 312.013214,325.876160 
	C311.278839,331.715912 310.526428,338.223083 309.625397,344.709595 
	C308.802002,350.637146 307.705536,356.528046 306.951721,362.463348 
	C306.574554,365.433167 305.657227,367.101624 302.269562,367.501495 
	C290.246552,368.920685 278.262482,370.670227 265.367371,372.415955 
	C265.367371,359.307343 265.367371,347.079559 265.367889,334.393738 
z"/>
<path fill="#FBD11D" opacity="1.000000" stroke="none" 
	d="
M215.022415,148.115997 
	C225.930435,149.263535 236.838455,150.411087 248.202179,151.606567 
	C248.202179,165.504288 248.202179,179.702499 248.202179,195.357681 
	C234.840347,193.526779 221.608765,191.713715 208.110809,189.263916 
	C208.098511,185.991257 208.152084,183.317505 208.641602,180.726074 
	C210.697525,169.842636 212.883835,158.983826 215.022415,148.115997 
z"/>
<path fill="#FBD01C" opacity="1.000000" stroke="none" 
	d="
M208.026825,326.250793 
	C221.316025,327.973724 234.605225,329.696686 248.283539,331.470093 
	C248.283539,344.450165 248.283539,357.784454 248.283539,372.221832 
	C236.682816,370.750610 225.272141,369.303467 213.447052,367.334747 
	C209.407684,353.533813 207.904373,339.992615 208.026825,326.250793 
z"/>
<path fill="#FBD11D" opacity="1.000000" stroke="none" 
	d="
M348.134399,174.176743 
	C343.149445,176.774719 338.482758,179.193298 333.450531,181.801346 
	C331.898468,168.436081 330.364136,155.931549 329.118622,143.398331 
	C328.994537,142.149902 330.334503,139.937576 331.492218,139.505753 
	C344.168274,134.777618 356.227753,128.987076 367.614716,119.209366 
	C367.614716,130.898407 368.353485,141.530319 367.378510,152.002716 
	C366.613220,160.223022 360.162140,165.572800 353.812286,170.355209 
	C352.088928,171.653168 350.242554,172.787781 348.134399,174.176743 
z"/>
<path fill="#D8B114" opacity="1.000000" stroke="none" 
	d="
M147.432663,155.224609 
	C147.247757,143.454590 147.247757,132.037460 147.247757,120.209419 
	C149.039932,121.537453 150.686523,123.118973 152.628738,124.135803 
	C162.316940,129.207916 172.019989,134.261795 181.865204,139.016876 
	C184.350510,140.217239 185.413284,141.281769 185.045792,144.148605 
	C183.481155,156.354538 182.128952,168.587692 180.615784,181.524094 
	C167.384033,175.391403 154.481720,169.441772 147.432663,155.224609 
z"/>
<path fill="#D7B114" opacity="1.000000" stroke="none" 
	d="
M237.035583,418.789673 
	C216.927567,417.096191 197.695801,412.358795 180.018341,402.287720 
	C178.915802,401.659607 177.434326,400.828033 177.133408,399.797760 
	C174.539307,390.916138 172.176086,381.967041 169.571182,372.403595 
	C177.390060,375.120209 184.439560,377.431610 191.349197,380.104492 
	C192.516144,380.555939 193.512909,382.463470 193.845627,383.873474 
	C195.067184,389.050415 195.852798,394.329315 197.036957,399.516266 
	C198.200851,404.614441 202.479858,407.649994 206.795471,406.748291 
	C211.618622,405.740540 214.347916,401.454346 213.463242,396.132538 
	C212.872391,392.578217 212.160034,389.044128 211.386032,384.876221 
	C214.380051,385.278442 216.798431,385.603363 219.615234,386.411072 
	C225.017609,396.092773 230.032104,405.285980 235.014206,414.496704 
	C235.765549,415.885742 236.365570,417.356628 237.035583,418.789673 
z"/>
<path fill="#D5AF13" opacity="1.000000" stroke="none" 
	d="
M186.206497,424.850708 
	C193.182938,426.860077 200.058563,429.393555 207.158813,430.759216 
	C218.564468,432.953003 230.116943,434.385864 241.611557,436.112488 
	C243.731735,436.430969 245.871674,436.617798 248.314178,436.901581 
	C248.314178,444.862091 248.314178,452.591431 248.314178,460.743774 
	C232.223267,458.981476 217.742065,453.148346 203.998077,445.169128 
	C196.009766,440.531372 189.823654,434.218201 186.044708,425.326904 
	C186.096405,424.926849 186.206497,424.850739 186.206497,424.850708 
z"/>
<path fill="#F9CF1C" opacity="1.000000" stroke="none" 
	d="
M265.361755,400.042175 
	C265.361847,396.094330 265.361847,392.638916 265.361847,389.045044 
	C278.006256,387.708832 290.170532,386.423401 302.869690,385.081421 
	C300.771667,394.783691 298.817932,404.153961 296.638245,413.471375 
	C296.367615,414.628235 295.009094,416.237091 293.965576,416.396179 
	C284.653625,417.815948 275.299164,418.956909 265.361664,420.257935 
	C265.361664,413.123352 265.361664,406.828979 265.361755,400.042175 
z"/>
<path fill="#D7B114" opacity="1.000000" stroke="none" 
	d="
M164.624374,311.380341 
	C170.250900,313.910339 175.611465,316.127960 180.827957,318.644257 
	C182.259079,319.334656 184.122421,320.788818 184.322586,322.113831 
	C186.272858,335.024353 187.912003,347.981903 189.853134,362.524719 
	C181.079208,358.163818 173.281281,354.332947 165.550430,350.371216 
	C164.830780,350.002411 164.251129,348.857697 164.086990,347.983032 
	C161.613968,334.804169 159.221527,321.610199 156.596970,307.253601 
	C159.802429,308.886841 162.053268,310.033691 164.624374,311.380341 
z"/>
<path fill="#FBD01D" opacity="1.000000" stroke="none" 
	d="
M339.841583,315.898499 
	C345.656647,313.130646 351.108398,310.479248 357.349640,307.443878 
	C354.777527,321.571594 352.368073,334.928253 349.864899,348.267303 
	C349.705414,349.117157 348.993195,350.173828 348.243683,350.554443 
	C340.614441,354.428650 332.924042,358.182404 324.224915,362.476196 
	C326.171814,347.907318 327.811646,334.801697 329.832428,321.755096 
	C330.043701,320.390961 332.385590,319.163208 333.960144,318.256165 
	C335.664307,317.274384 337.627838,316.742859 339.841583,315.898499 
z"/>
<path fill="#D5AF14" opacity="1.000000" stroke="none" 
	d="
M204.114105,264.213074 
	C204.750275,278.754730 205.368469,292.938202 205.991653,307.567657 
	C204.070526,307.676788 202.144424,307.339905 198.879333,306.768799 
	C197.713455,272.978973 196.550293,239.268127 195.349533,204.467667 
	C199.757248,205.336609 202.581787,205.893433 205.709320,206.678757 
	C205.458130,222.733902 204.903915,238.560562 204.648026,254.677094 
	C204.662918,257.929596 204.379517,260.892212 204.114105,264.213074 
z"/>
<path fill="#F8CE1C" opacity="1.000000" stroke="none" 
	d="
M237.449524,418.885742 
	C236.365570,417.356628 235.765549,415.885742 235.014206,414.496704 
	C230.032104,405.285980 225.017609,396.092773 220.019073,386.518433 
	C229.407730,387.068939 238.790924,387.994873 248.391693,388.942291 
	C248.391693,399.254913 248.391693,409.314392 248.391693,419.875824 
	C244.707687,419.562988 241.285568,419.272400 237.449524,418.885742 
z"/>
<path fill="#F9CF1C" opacity="1.000000" stroke="none" 
	d="
M330.405640,377.467651 
	C335.047028,375.706116 339.330475,374.108093 344.498230,372.180115 
	C341.868164,381.861603 339.514099,390.789673 336.938019,399.653229 
	C336.640289,400.677612 335.229034,401.583466 334.128906,402.135376 
	C328.070160,405.175171 321.947632,408.087860 314.629974,411.633881 
	C316.010101,404.552155 317.148102,398.687103 318.300537,392.824921 
	C318.492401,391.848663 318.936584,390.885925 318.942535,389.914978 
	C318.988129,382.483917 322.626373,378.363220 330.405640,377.467651 
z"/>
<path fill="#D8B214" opacity="1.000000" stroke="none" 
	d="
M214.643829,147.984711 
	C212.883835,158.983826 210.697525,169.842636 208.641602,180.726074 
	C208.152084,183.317505 208.098511,185.991257 207.761810,189.110611 
	C195.334396,186.541580 197.552399,189.837540 198.392181,176.642090 
	C199.043518,166.407806 200.508881,156.225342 201.688004,145.320816 
	C206.289963,146.247498 210.277603,147.050461 214.643829,147.984711 
z"/>
<path fill="#FAD01C" opacity="1.000000" stroke="none" 
	d="
M265.776550,444.973267 
	C265.627350,442.524628 265.478149,440.076019 265.290222,436.992462 
	C273.634583,436.199524 281.706329,435.432495 290.408051,434.605591 
	C288.393799,441.049805 286.587097,446.830048 284.162903,452.860474 
	C277.622498,450.398193 271.699554,447.685730 265.776550,444.973267 
z"/>
<path fill="#F5CC1C" opacity="1.000000" stroke="none" 
	d="
M328.009460,425.007843 
	C323.865906,436.369202 314.954956,442.873962 303.790466,448.612183 
	C305.738403,442.370789 307.318085,436.923065 309.216675,431.588867 
	C309.550812,430.650116 311.136627,429.952362 312.286652,429.544098 
	C317.114960,427.829956 321.997375,426.268036 327.338470,424.756531 
	C327.816986,424.862640 328.009460,425.007843 328.009460,425.007843 
z"/>
<path fill="#D4AF14" opacity="1.000000" stroke="none" 
	d="
M207.701721,326.128448 
	C207.904373,339.992615 209.407684,353.533813 213.057068,367.186493 
	C209.028030,367.808167 207.494965,365.835205 206.999985,361.851929 
	C205.496948,349.756165 203.608322,337.708313 201.789719,325.085480 
	C203.996124,325.449066 205.686371,325.727570 207.701721,326.128448 
z"/>
<path fill="#CDA913" opacity="1.000000" stroke="none" 
	d="
M265.588135,445.334290 
	C271.699554,447.685730 277.622498,450.398193 283.947083,453.152710 
	C284.217499,456.053009 282.944427,457.654938 279.911438,458.140625 
	C275.226624,458.890869 270.603973,460.029480 265.399719,461.119659 
	C265.399719,455.543365 265.399719,450.619354 265.588135,445.334290 
z"/>
<path fill="#D5AF13" opacity="1.000000" stroke="none" 
	d="
M186.043259,424.967468 
	C185.792801,424.826599 185.595474,424.645081 185.398148,424.463562 
	C185.662140,424.454681 185.926117,424.445831 186.198303,424.643860 
	C186.206497,424.850739 186.096405,424.926849 186.043259,424.967468 
z"/>
<path fill="#F5CC1C" opacity="1.000000" stroke="none" 
	d="
M327.717712,424.794281 
	C327.834259,424.568878 328.050110,424.411835 328.265930,424.254761 
	C328.321320,424.459290 328.376709,424.663818 328.220764,424.938110 
	C328.009460,425.007843 327.816986,424.862640 327.717712,424.794281 
z"/>
</svg>