<?xml version="1.0" encoding="UTF-8"?>
<svg version="1.1" xmlns="http://www.w3.org/2000/svg" width="512" height="512">
<path d="M0 0 C3.17005988 0.77274012 4.15793451 1.80392262 6.03515625 4.49609375 C6.72451983 7.78741033 6.86456285 11.08065264 7.03515625 14.43359375 C8.04966841 28.23284877 11.01880883 42.20151445 21.03515625 52.49609375 C31.32966053 60.93456581 41.97187577 61.90143992 54.86230469 61.94262695 C55.7443457 61.95898193 56.62638672 61.97533691 57.53515625 61.9921875 C58.72625 61.99496704 58.72625 61.99496704 59.94140625 61.99780273 C62.03515625 62.49609375 62.03515625 62.49609375 63.78515625 64.31274414 C65.65507577 67.57889458 65.55369535 69.80150268 65.03515625 73.49609375 C63.40051741 75.62112424 62.10810377 76.8713511 60.03515625 78.49609375 C59.3184375 79.0684375 58.60171875 79.64078125 57.86328125 80.23046875 C56.176155 81.57372213 54.48725084 82.91474452 52.796875 84.25390625 C43.6300417 91.58657865 43.6300417 91.58657865 36.09765625 100.49609375 C33.26592548 104.61497487 33.26592548 104.61497487 30.03515625 105.49609375 C28.05515625 105.49609375 26.07515625 105.49609375 24.03515625 105.49609375 C22.38515625 109.12609375 20.73515625 112.75609375 19.03515625 116.49609375 C19.84597656 117.16898437 20.65679687 117.841875 21.4921875 118.53515625 C24.64905185 122.21089078 24.65964083 124.09161635 24.72265625 128.87109375 C24.82472389 134.1463791 25.53342529 138.44591787 27.03515625 143.49609375 C26.73246363 149.54994606 26.73246363 149.54994606 24.80712891 152.16235352 C22.44177305 153.94272539 20.81554675 153.95004362 17.87109375 154.0859375 C16.83976318 154.14539551 15.80843262 154.20485352 14.74584961 154.26611328 C13.6450708 154.32138184 12.54429199 154.37665039 11.41015625 154.43359375 C-9.79114164 155.85942531 -31.41830022 160.4456837 -46.24609375 177.05078125 C-50.30354007 181.87197233 -50.30354007 181.87197233 -52.96484375 187.49609375 C-51.87816406 188.36621094 -51.87816406 188.36621094 -50.76953125 189.25390625 C-41.90384926 196.4173773 -41.90384926 196.4173773 -38.40234375 200.05859375 C-37.59796875 200.86296875 -36.79359375 201.66734375 -35.96484375 202.49609375 C-35.30484375 202.49609375 -34.64484375 202.49609375 -33.96484375 202.49609375 C-33.61292969 201.73425781 -33.26101562 200.97242188 -32.8984375 200.1875 C-29.58765175 193.26337628 -26.02441867 187.2704872 -20.96484375 181.49609375 C-20.43246094 180.88121094 -19.90007812 180.26632813 -19.3515625 179.6328125 C-8.69700728 168.16454423 7.48758407 160.77790014 23.12109375 160.1953125 C24.88401559 160.17622542 26.64716508 160.17264549 28.41015625 160.18359375 C29.78953369 160.18987793 29.78953369 160.18987793 31.19677734 160.19628906 C37.59100472 160.30261444 44.27155344 160.41911058 50.03515625 163.49609375 C52.47921028 166.14065775 53.01065468 167.07139984 53.22265625 170.74609375 C53.16078125 171.65359375 53.09890625 172.56109375 53.03515625 173.49609375 C53.94265625 173.76421875 54.85015625 174.03234375 55.78515625 174.30859375 C59.03515625 175.49609375 59.03515625 175.49609375 60.84765625 177.18359375 C63.96043388 179.05126033 66.25808795 178.24956887 69.71875 177.52734375 C72.95812747 177.4836422 74.44723781 178.59417909 77.03515625 180.49609375 C87.00921911 190.62389939 91.64536146 203.01667449 95.03515625 216.49609375 C96.22238281 216.25632813 96.22238281 216.25632813 97.43359375 216.01171875 C116.59748872 213.26808086 134.05558014 216.49253969 150.12109375 227.63671875 C164.43078646 238.8492451 173.89037247 254.70190591 176.71875 272.69140625 C178.16187156 285.48352079 176.08898621 297.62964275 170.90234375 309.41015625 C170.61617188 310.09851563 170.33 310.786875 170.03515625 311.49609375 C169.75800781 312.16125 169.48085938 312.82640625 169.1953125 313.51171875 C168.80851518 315.63715811 168.80851518 315.63715811 170.4765625 317.50390625 C171.17652344 318.20257813 171.87648438 318.90125 172.59765625 319.62109375 C183.94975913 331.74585284 189.36141365 347.09701701 189 363.69921875 C188.7152044 370.24503262 188.00229098 376.24802238 186.03515625 382.49609375 C186.60621094 382.61984375 187.17726563 382.74359375 187.765625 382.87109375 C204.48251649 387.12340319 217.44598829 398.6238792 226.125 413.12890625 C232.22170268 423.87605904 235.58788333 434.99251087 235.03515625 447.49609375 C233.859375 450.359375 233.859375 450.359375 232.03515625 452.49609375 C229.34765625 453.30859375 229.34765625 453.30859375 227.03515625 453.49609375 C226.66924879 455.22281409 226.3179343 456.9526303 225.97265625 458.68359375 C225.77542969 459.64652344 225.57820313 460.60945313 225.375 461.6015625 C224.86923754 465.90926345 225.70273159 468.7589782 227.47265625 472.68359375 C228.21662782 477.72606774 226.76861558 479.74912044 223.99609375 483.8828125 C212.66987471 498.97691716 198.57835167 508.60448057 180.03515625 512.49609375 C176.12818417 512.92987038 172.27659008 513.02104545 168.34765625 512.99609375 C167.30399902 512.99109863 166.2603418 512.98610352 165.18505859 512.98095703 C146.856061 512.57151247 133.01859238 505.26898768 120.03515625 492.49609375 C119.19882323 491.4359533 118.36477394 490.37399752 117.53515625 489.30859375 C115.24673998 487.25083347 115.24673998 487.25083347 112.796875 487.609375 C110.17213243 488.13113718 107.61688468 488.79379977 105.03515625 489.49609375 C87.13170547 492.48000221 68.2700322 489.95984405 53.03515625 479.49609375 C48.405965 475.80884653 44.1925561 471.69990795 40.03515625 467.49609375 C39.70515625 467.16609375 39.37515625 466.83609375 39.03515625 466.49609375 C35.12278607 466.88091705 31.22813679 467.33576544 27.33203125 467.859375 C7.79877889 470.07421099 -10.22360875 464.55792197 -25.62109375 452.3984375 C-36.26703105 443.3077049 -45.14151665 430.65868095 -46.96484375 416.49609375 C-47.81304687 416.4703125 -48.66125 416.44453125 -49.53515625 416.41796875 C-68.37558315 415.50700305 -84.12226973 409.12236505 -97.67578125 395.81640625 C-103.38929317 389.49828989 -110.41600556 380.61858356 -111.33984375 371.99609375 C-110.96484375 368.49609375 -110.96484375 368.49609375 -108.9140625 366.71875 C-106.61565241 364.56864971 -106.61565241 364.56864971 -106.8359375 361.1484375 C-107.11630859 359.30958984 -107.11630859 359.30958984 -107.40234375 357.43359375 C-107.56605469 356.20511719 -107.72976562 354.97664063 -107.8984375 353.7109375 C-108.6686989 350.3313126 -108.6686989 350.3313126 -111.5 348.6875 C-112.31339844 348.29433594 -113.12679687 347.90117187 -113.96484375 347.49609375 C-116.99284609 341.44008907 -113.98798994 334.06172048 -112.18359375 328.0234375 C-110.53747508 323.2591902 -108.40919143 318.89410222 -105.96484375 314.49609375 C-105.63484375 313.83609375 -105.30484375 313.17609375 -104.96484375 312.49609375 C-105.98658844 310.31436833 -107.06305102 308.23238577 -108.21484375 306.12109375 C-115.99775446 291.00980511 -117.71285639 273.21821293 -113.1171875 256.69921875 C-106.3737279 237.95468697 -94.89055433 223.76669602 -76.83984375 214.80859375 C-69.77801455 212.02893757 -62.32744688 210.33674453 -54.96484375 208.49609375 C-63.54484375 199.91609375 -72.12484375 191.33609375 -80.96484375 182.49609375 C-91.79461935 186.82800399 -98.93949874 194.35480581 -103.8671875 204.828125 C-106.49921223 211.22553742 -107.98349985 217.47491667 -108.46484375 224.37109375 C-108.75189521 228.47182887 -109.25048713 231.2388658 -111.96484375 234.49609375 C-114.3723595 235.69985162 -115.9404675 235.6365075 -118.62890625 235.671875 C-135.01490922 236.03054037 -151.61265215 236.67106807 -164.96484375 247.49609375 C-167.9799638 250.95920325 -170.49356051 254.63253825 -172.96484375 258.49609375 C-174.54188654 260.87533172 -175.86505337 262.50398493 -177.96484375 264.49609375 C-181.80406767 265.102287 -183.92720253 265.06952706 -187.33984375 263.18359375 C-190.16896944 260.24565554 -190.16879455 256.95817355 -190.56005859 253.05029297 C-191.67808548 242.15895243 -194.07744461 232.07362978 -202.33984375 224.24609375 C-209.05773006 219.76750288 -216.16352994 219.88785572 -223.96484375 220.49609375 C-227.10610868 221.13921663 -230.1409802 221.91757563 -233.2109375 222.83984375 C-236.25067111 223.5642058 -238.85038663 223.70923397 -241.96484375 223.49609375 C-245.17391947 221.32779935 -245.87963386 219.77177282 -247.02734375 216.05859375 C-246.96484375 212.49609375 -246.96484375 212.49609375 -244.79296875 210.03125 C-242.15957549 207.67065301 -239.46512457 205.51222647 -236.65234375 203.37109375 C-227.64430325 196.05054331 -220.07630734 186.31833601 -218.58984375 174.51953125 C-218.14229783 163.47074133 -222.80137316 156.26583191 -228.96484375 147.49609375 C-231.31034049 143.97784864 -231.54475778 142.63833681 -230.96484375 138.49609375 C-229.02734375 135.55859375 -229.02734375 135.55859375 -225.96484375 133.49609375 C-219.84994183 132.77228903 -213.8232728 135.44022947 -208.171875 137.45703125 C-203.74746279 138.89051925 -199.24928223 139.74793054 -194.6796875 140.58984375 C-191.48399716 141.65660657 -190.5154467 142.53438846 -188.96484375 145.49609375 C-188.96484375 146.81609375 -188.96484375 148.13609375 -188.96484375 149.49609375 C-184.34484375 149.16609375 -179.72484375 148.83609375 -174.96484375 148.49609375 C-174.92359375 147.42359375 -174.88234375 146.35109375 -174.83984375 145.24609375 C-173.96484375 141.49609375 -173.96484375 141.49609375 -171.33984375 139.30859375 C-169.08222092 138.09616667 -166.8110247 136.90869496 -164.52734375 135.74609375 C-160.674874 133.61439382 -158.19286965 130.5919884 -155.4453125 127.203125 C-153.18350572 124.5951842 -151.8222963 124.46905889 -148.33984375 123.80859375 C-145.26036617 123.84750412 -144.22834847 124.2514108 -141.94140625 126.375 C-139.84725623 129.01958866 -137.89643966 131.73074257 -135.96484375 134.49609375 C-127.27855949 145.98166884 -117.13104581 156.23792451 -102.96484375 160.49609375 C-106.5530218 156.33233766 -110.19699616 152.23035799 -113.93481445 148.19995117 C-118.75107048 143.00207695 -123.3642713 137.69988627 -127.80859375 132.17578125 C-129.18907218 130.46018667 -130.58371149 128.75583272 -131.99609375 127.06640625 C-151.09740061 104.18760214 -167.82724005 79.31651831 -181.58984375 52.87109375 C-181.93313721 52.23204102 -182.27643066 51.59298828 -182.63012695 50.93457031 C-184.8042607 46.63279016 -185.47612361 43.28934245 -184.96484375 38.49609375 C-182.51885488 35.11487384 -181.07187816 33.72672592 -176.96484375 32.87109375 C-172.87933668 33.72224106 -171.67507246 35.33209768 -168.96484375 38.49609375 C-167.40805063 41.26404733 -166.16481921 44.14690908 -164.90234375 47.05859375 C-157.38960657 63.58757831 -147.53450296 78.77284042 -136.96484375 93.49609375 C-136.41538086 94.2634082 -135.86591797 95.03072266 -135.29980469 95.82128906 C-128.6741568 105.03652574 -121.90220956 114.03592216 -114.45703125 122.60546875 C-112.15953549 125.27027574 -109.96388163 127.99023092 -107.77734375 130.74609375 C-101.94107064 137.91162479 -95.50673085 144.52202846 -89.13476562 151.20849609 C-86.90426937 153.55995311 -84.69028739 155.92598385 -82.48046875 158.296875 C-81.75545166 159.07337402 -81.03043457 159.84987305 -80.28344727 160.64990234 C-78.8887311 162.14448076 -77.49591255 163.6408328 -76.10522461 165.13916016 C-75.47495361 165.81253418 -74.84468262 166.4859082 -74.1953125 167.1796875 C-73.64254639 167.77322021 -73.08978027 168.36675293 -72.52026367 168.97827148 C-70.83613799 170.71486308 -70.83613799 170.71486308 -67.96484375 172.49609375 C-69.18528137 158.3062295 -72.10430284 146.044408 -80.96484375 134.49609375 C-81.63966797 133.59310547 -81.63966797 133.59310547 -82.328125 132.671875 C-85.92102255 128.16810201 -90.18240287 124.82060659 -94.79296875 121.390625 C-97.0417883 119.42897485 -98.11168723 118.34168287 -98.96484375 115.49609375 C-98.76050739 110.42855214 -97.02386162 107.83850175 -93.83984375 103.99609375 C-84.01381951 91.51274175 -76.90938824 75.42754001 -77.5703125 59.22265625 C-78.52393443 52.63227893 -80.53453792 46.24119377 -83.609375 40.33984375 C-85.38980063 36.60454157 -85.00883013 34.4483279 -83.96484375 30.49609375 C-82.90234375 28.55859375 -82.90234375 28.55859375 -80.96484375 27.49609375 C-74.38386392 26.45699167 -71.30536702 28.30621618 -65.859375 31.828125 C-56.91307112 36.98341752 -46.28311156 40.09720427 -35.96484375 38.49609375 C-26.89193988 35.86383152 -21.11142493 30.65088178 -16.4765625 22.59765625 C-14.31968641 18.17243761 -12.64269492 13.59982995 -11.05664062 8.94213867 C-8.69426372 2.15030507 -7.37638083 0.2131902 0 0 Z " fill="#000101" transform="translate(261.96484375,-0.49609375)"/>
<path d="M0 0 C9.35237681 7.99837598 16.25875455 18.26991107 19.1171875 30.36328125 C19.1790625 31.53890625 19.2409375 32.71453125 19.3046875 33.92578125 C19.3975 35.21355469 19.3975 35.21355469 19.4921875 36.52734375 C20.09224009 50.74108955 15.24841929 63.34409046 6.1171875 74.05078125 C-3.47322386 84.24257154 -14.9682773 90.16224666 -29.04296875 91.1640625 C-43.45580724 91.45201616 -56.22225981 87.42218924 -67.203125 77.70703125 C-77.93421504 66.50304571 -83.07927395 54.33685212 -82.99633789 39.0625 C-82.63912647 25.3963848 -77.66602054 12.50927732 -67.6953125 2.92578125 C-48.1293352 -14.52495526 -20.95814802 -16.12866174 0 0 Z " fill="#989EEC" transform="translate(311.6953125,361.07421875)"/>
<path d="M0 0 C1.18638062 0.00845947 1.18638062 0.00845947 2.39672852 0.01708984 C15.66222862 0.28965937 27.25364241 4.496872 37.3125 13.3125 C40.22201607 16.81163391 42.76662618 20.5427477 45.3125 24.3125 C45.81394531 25.04726563 46.31539063 25.78203125 46.83203125 26.5390625 C52.43959761 35.58571035 54.79546592 47.7763802 53.3125 58.3125 C49.89000527 72.58050024 43.19636671 83.45053082 31.3125 92.3125 C18.18822294 100.34848783 3.18774892 103.84209105 -12.0625 100.625 C-21.79131255 97.10249891 -30.8315498 92.20123758 -37.6875 84.3125 C-38.80668595 81.22650933 -39.17104729 78.58915941 -39.421875 75.32421875 C-40.04597449 68.24803183 -42.92518723 62.28310582 -47.0625 56.625 C-50.64919214 50.92261352 -49.86160454 45.53428011 -48.65234375 39.22265625 C-45.7177842 26.40686019 -38.19264861 16.06324989 -27.6875 8.3125 C-18.75644819 3.05620388 -10.38838927 -0.07781565 0 0 Z " fill="#7B83E7" transform="translate(382.6875,311.6875)"/>
<path d="M0 0 C1.60540659 0.78914921 3.20928016 1.58141765 4.8125 2.375 C5.70582031 2.81585938 6.59914063 3.25671875 7.51953125 3.7109375 C10 5 10 5 13 7 C12.67 8.258125 12.34 9.51625 12 10.8125 C11.45080585 15.54744415 12.77900311 17.6961333 15.625 21.4375 C16.36234375 22.35917969 17.0996875 23.28085938 17.859375 24.23046875 C27.07895029 36.15871489 28.17078469 49.46550152 27 64 C25.46332656 72.44710308 21.19512747 83.15411832 14.08984375 88.4140625 C11.18733438 89.22785017 9.78293131 88.4739845 7.0625 87.25 C6.22847656 86.88390625 5.39445312 86.5178125 4.53515625 86.140625 C2.89616107 85.40320344 1.25807438 84.66375785 -0.37890625 83.921875 C-14.68939627 78.88867732 -32.42296917 81.29441523 -45.94140625 87.30859375 C-48.33238345 88.48146029 -50.66756968 89.71585297 -53 91 C-54.33057858 91.67214794 -55.66305672 92.34060264 -57 93 C-66.23899439 84.74504052 -73.81307237 73.09485992 -74.56640625 60.44921875 C-74.59390843 58.52884231 -74.59193493 56.60784778 -74.5625 54.6875 C-74.55226807 53.67856689 -74.54203613 52.66963379 -74.53149414 51.63012695 C-74.12392506 37.27053314 -68.26070965 25.81011676 -57.9375 15.8125 C-48.60106346 7.91736584 -36.70011505 2.67415255 -24.4375 2.8125 C-22.54837891 2.82216797 -22.54837891 2.82216797 -20.62109375 2.83203125 C-17.32091393 2.98511403 -14.24492562 3.41083753 -11 4 C-8.16327855 4.3030473 -5.89549191 4.2373354 -3 4 C-1.24502177 2.05839344 -1.24502177 2.05839344 0 0 Z " fill="#505ADF" transform="translate(314,172)"/>
<path d="M0 0 C2.91929471 2.47596342 3.88942964 4.93850731 5.1875 8.5 C11.15533358 23.3030947 20.64558411 31.7538893 35 38 C37.34054533 38.82468879 39.57743426 39.44941688 42 40 C39.92501025 44.99883894 35.97576182 48.46750784 32.3125 52.34375 C30.36641543 54.57911741 29.00530687 56.24125091 28 59 C28.25215552 62.02586628 28.50421944 64.25632916 30.203125 66.8046875 C31 69 31 69 30.09375 71.9453125 C29.30484375 73.51925781 29.30484375 73.51925781 28.5 75.125 C27.9946875 76.17945312 27.489375 77.23390625 26.96875 78.3203125 C24.55802155 81.60158178 22.81857676 81.86447586 19 83 C16.16350184 85.49754555 16.01145012 86.85649184 15.70703125 90.671875 C15.72683249 92.03156035 15.76240798 93.3910934 15.8125 94.75 C15.82603516 95.44738281 15.83957031 96.14476562 15.85351562 96.86328125 C15.8887055 98.57585541 15.94250845 100.28802941 16 102 C14.51113281 102.16435547 14.51113281 102.16435547 12.9921875 102.33203125 C-4.25237753 104.30772599 -19.47417289 108.04774709 -35 116 C-34.4637771 108.57467611 -32.20316295 102.03903504 -29.6875 95.0625 C-29.24672119 93.83845459 -28.80594238 92.61440918 -28.35180664 91.35327148 C-22.35761849 74.98460321 -15.57992017 58.30280901 -4.546875 44.6484375 C-2.53758164 41.20828372 -2.49757707 38.91703805 -3 35 C-6.9069514 32.39536573 -8.36898364 32.08898039 -13 33 C-32.74249148 50.6103024 -41.07361501 84.97080135 -49 109 C-51.54450235 106.45549765 -52.54816137 103.83103704 -54.0625 100.5625 C-58.55830186 91.24228746 -64.64978132 83.20913697 -73 77 C-71.87642498 74.62673441 -70.64316152 72.41973563 -69.265625 70.1796875 C-62.08668279 58.40956132 -56.28271313 44.8688914 -55.68359375 30.91796875 C-55.64169922 29.98662109 -55.59980469 29.05527344 -55.55664062 28.09570312 C-55.51732422 27.13599609 -55.47800781 26.17628906 -55.4375 25.1875 C-55.39431641 24.20845703 -55.35113281 23.22941406 -55.30664062 22.22070312 C-55.2009774 19.81392973 -55.09887673 17.40706017 -55 15 C-54.39341553 15.14002441 -53.78683105 15.28004883 -53.16186523 15.42431641 C-40.6936959 18.1343192 -25.46091664 19.56835727 -14 13 C-8.4355352 9.38090715 -3.99537396 5.28420427 0 0 Z " fill="#6BC529" transform="translate(255,36)"/>
<path d="M0 0 C0.01417969 0.77601563 0.02835938 1.55203125 0.04296875 2.3515625 C0.43860949 11.31229071 2.5631883 18.74551475 6 27 C6.309375 27.76183594 6.61875 28.52367187 6.9375 29.30859375 C10.13137783 36.3950102 15.42908056 42.63733924 21 48 C19.50019064 51.19910076 17.6687869 54.01609027 15.6875 56.9375 C8.91565394 67.4840494 6.11841316 78.02926304 5.4375 90.375 C5.37272461 91.47908203 5.37272461 91.47908203 5.30664062 92.60546875 C5.20156201 94.40348068 5.10037907 96.20171958 5 98 C-0.74775179 99.63569807 -5.90748411 100.35723879 -11.875 100.3125 C-12.66656494 100.30686035 -13.45812988 100.3012207 -14.27368164 100.29541016 C-26.85265007 100.03461249 -39.01605705 94.98394295 -48 86 C-58.58499043 72.86715473 -64.81940442 59.25367785 -63 42 C-60.14943497 28.14979702 -52.68627571 14.66234269 -40.6953125 6.69921875 C-28.26005782 -0.9932236 -14.25865549 -5.18496563 0 0 Z " fill="#979DEB" transform="translate(225,226)"/>
<path d="M0 0 C12.46427226 3.02324902 23.94356979 9.51259373 31.234375 20.30859375 C38.06617115 31.56448431 40.55000304 42.05238011 42 55 C43.98 55.66 45.96 56.32 48 57 C47.69024532 58.77131561 47.37709575 60.54203778 47.0625 62.3125 C46.88847656 63.29863281 46.71445312 64.28476562 46.53515625 65.30078125 C46 68 46 68 45 71 C43.7625 71.061875 42.525 71.12375 41.25 71.1875 C38.13673636 71.59642254 37.26064817 71.74725026 34.9375 74 C34.298125 74.99 33.65875 75.98 33 77 C24.40006805 88.79233093 13.76713811 97.49635359 -0.9375 100.625 C-16.81885871 102.45083951 -30.17596914 99.8269998 -43 90 C-45.47413732 87.78061679 -47.78989363 85.48165527 -50 83 C-48.61799087 79.76833219 -47.13195092 78.08484623 -44.375 75.9375 C-37.17535965 69.83744108 -31.5746234 61.72723371 -28 53 C-27.47792969 51.76636719 -27.47792969 51.76636719 -26.9453125 50.5078125 C-24.8005874 44.85638359 -23.82848788 39.72385167 -23.47070312 33.73095703 C-22.80921689 23.09613668 -22.80921689 23.09613668 -20.16015625 19.5078125 C-17.85586397 17.79830336 -15.49035887 16.42022064 -13 15 C-7.90325172 10.52900907 -3.75256037 5.62884056 0 0 Z " fill="#333FD9" transform="translate(441,396)"/>
<path d="M0 0 C9.6078382 7.31202089 16.57561881 16.10734324 20.5625 27.625 C20.91796875 30.5625 20.91796875 30.5625 20.5625 33.625 C18.62109375 35.828125 18.62109375 35.828125 16 37.875 C5.4932594 46.73449737 -0.56437843 58.58863959 -4.4375 71.625 C-8.44789289 70.12390322 -12.10625735 68.21347148 -15.875 66.1875 C-30.60542558 58.66793518 -47.93100887 57.15199912 -63.83203125 61.7578125 C-67.41492285 62.95031915 -70.93550201 64.21073158 -74.4375 65.625 C-80.85397498 54.7628245 -81.36389781 41.76034572 -79.03759766 29.52099609 C-75.56828343 16.3153316 -66.09365667 4.89991886 -54.625 -2.125 C-37.00775729 -11.77976971 -16.88472138 -11.23112848 0 0 Z " fill="#2532D6" transform="translate(324.4375,276.375)"/>
<path d="M0 0 C3.16890978 2.30466166 5.73514578 4.77203743 8.25 7.75 C15.73239771 16.42058962 24.17895501 22.29256118 34 28 C33 30 33 30 31.29199219 30.71435547 C30.55110352 30.92979004 29.81021484 31.14522461 29.046875 31.3671875 C28.20979004 31.61122314 27.37270508 31.85525879 26.51025391 32.10668945 C25.59937012 32.36023193 24.68848633 32.61377441 23.75 32.875 C22.81720215 33.13821045 21.8844043 33.4014209 20.92333984 33.67260742 C11.06375988 36.37817128 1.08157221 38.32882046 -9 40 C-10.14210937 40.19207031 -11.28421875 40.38414062 -12.4609375 40.58203125 C-17.94489579 41.2296952 -23.45035919 41.31868539 -28.96875 41.4296875 C-29.82984375 41.460625 -30.6909375 41.4915625 -31.578125 41.5234375 C-32.74456543 41.5531665 -32.74456543 41.5531665 -33.93457031 41.58349609 C-36.53188081 42.10725634 -37.45747824 42.86405814 -39 45 C-38.92518352 49.7846927 -38.92518352 49.7846927 -36.4375 53.6953125 C-33.01995169 55.52457714 -29.84299184 55.4462142 -26.0625 55.375 C-25.27254639 55.36484863 -24.48259277 55.35469727 -23.66870117 55.34423828 C-8.65478648 54.96547716 5.75851281 52.11219733 20.1862793 48.06982422 C25.47817264 46.59181034 30.52723683 45.52610385 36 45 C35.29423828 46.48886719 35.29423828 46.48886719 34.57421875 48.0078125 C30.44694269 56.93643113 27.60084969 65.24243999 26 75 C24.741875 75.08636719 23.48375 75.17273438 22.1875 75.26171875 C3.62723725 76.71228028 -11.59054724 81.17173589 -27 92 C-27.27972656 91.23816406 -27.55945313 90.47632813 -27.84765625 89.69140625 C-31.92991777 79.17728575 -37.98781295 68.69793248 -48.640625 63.78125 C-53.72449368 61.83660078 -58.5796271 60.48181092 -64 60 C-62.52125272 56.00738235 -60.60663063 52.44553001 -58.5 48.75 C-51.86123139 36.45240575 -51.65684357 24.49202414 -55 11 C-53.86111328 11.05220703 -53.86111328 11.05220703 -52.69921875 11.10546875 C-51.70535156 11.13253906 -50.71148437 11.15960938 -49.6875 11.1875 C-48.70136719 11.22230469 -47.71523437 11.25710937 -46.69921875 11.29296875 C-43.99467276 11.22874925 -43.99467276 11.22874925 -42.20703125 9.67578125 C-40.80081267 7.89888182 -40.80081267 7.89888182 -40 5 C-37.39623726 4.72434273 -34.79544032 4.47872735 -32.1875 4.25 C-31.44951172 4.16878906 -30.71152344 4.08757812 -29.95117188 4.00390625 C-27.79296875 3.828125 -27.79296875 3.828125 -24 4 C-22.21484375 5.94921875 -22.21484375 5.94921875 -21 8 C-14.05877434 9.07708674 -9.71221034 6.8117193 -4 3 C-2.65783324 2.01188757 -1.3218143 1.0151772 0 0 Z " fill="#6BC529" transform="translate(112,144)"/>
<path d="M0 0 C9.81350606 8.33713789 18.15369859 18.78723616 20.20703125 31.875 C21.12082386 43.24742362 20.97514478 53.70214523 15.20703125 63.875 C14.21703125 64.37 14.21703125 64.37 13.20703125 64.875 C10.71704169 63.98508657 8.32048684 63.04068638 5.89453125 62 C-9.23853603 55.57101506 -28.1756327 55.75056161 -43.79296875 60.875 C-44.06109375 60.14796875 -44.32921875 59.4209375 -44.60546875 58.671875 C-48.74547818 48.04948238 -54.26362657 38.55140797 -62.79296875 30.875 C-61.54389979 27.4711391 -60.11444735 24.73475565 -57.98046875 21.8125 C-52.44815655 13.66245959 -49.48390323 4.92273582 -47.76171875 -4.7265625 C-46.79296875 -7.125 -46.79296875 -7.125 -44.390625 -8.421875 C-28.73926523 -12.65833328 -12.88991744 -9.91860977 0 0 Z " fill="#505ADE" transform="translate(402.79296875,240.125)"/>
<path d="M0 0 C3.1412162 1.44924293 5.73885895 3.23704231 8.5 5.3125 C25.45420449 17.28017375 45.10333302 17.60939895 65 15 C65.70180531 16.4096347 66.38593958 17.82807641 67.0625 19.25 C67.44535156 20.03890625 67.82820313 20.8278125 68.22265625 21.640625 C69.12820853 24.38913542 69.16510948 25.36944171 68 28 C66.1796875 30.15625 66.1796875 30.15625 63.875 32.5 C52.29095848 45.07853793 48.07407377 59.32553848 46 76 C32.46930774 76.91733507 20.78594241 71.4708395 10.3125 63.25 C4.89989462 58.37354893 0.83931257 52.19845137 -1.9375 45.5 C-3.05662448 43.05468835 -3.55221323 42.20787007 -6.01953125 41.0625 C-8.48136791 40.39648384 -8.48136791 40.39648384 -12 40 C-13.46670113 34.77487721 -14.22577402 30.4185766 -14 25 C-12.6078125 24.7525 -12.6078125 24.7525 -11.1875 24.5 C-7.7526103 22.88358132 -7.50127914 22.68148891 -6.25 19.375 C-5.18354062 15.9462091 -4.35584193 12.46038284 -3.5390625 8.96484375 C-2.67707941 5.82297787 -1.35594331 2.95842177 0 0 Z " fill="#505ADE" transform="translate(168,324)"/>
<path d="M0 0 C0.64324219 0.37511719 1.28648437 0.75023437 1.94921875 1.13671875 C11.58625891 6.59450041 22.10690706 12.11926774 33.39453125 12.1328125 C34.95204102 12.13474609 34.95204102 12.13474609 36.54101562 12.13671875 C37.62060547 12.13285156 38.70019531 12.12898438 39.8125 12.125 C40.88048828 12.12886719 41.94847656 12.13273437 43.04882812 12.13671875 C48.47265646 12.13001024 53.65842492 11.96011193 59 11 C59.63173322 22.37119794 55.633255 31.82943434 49 41 C42.95317651 47.65798788 36.40853082 52.75180661 28 56 C27.36392822 56.25604004 26.72785645 56.51208008 26.07250977 56.77587891 C20.06473091 59.01855204 14.57275127 59.5438639 8.1875 59.5 C7.21844727 59.49427979 6.24939453 59.48855957 5.25097656 59.48266602 C-7.73890529 59.1591173 -17.78331068 53.61117943 -27.28125 44.91015625 C-29 43 -29 43 -29 41 C-27.37245925 39.77934444 -25.69557477 38.62423979 -24 37.5 C-11.27247261 28.39492272 -4.33575406 14.79257269 0 0 Z " fill="#414DDB" transform="translate(344,415)"/>
<path d="M0 0 C-0.55300781 0.25265625 -1.10601562 0.5053125 -1.67578125 0.765625 C-14.7402265 7.70405307 -22.81676203 19.90476582 -27.34375 33.6953125 C-31.68980821 48.95825502 -29.33759755 64.56134416 -22.375 78.625 C-17.32918121 87.36256975 -10.42191041 94.50744974 -2 100 C-2 100.33 -2 100.66 -2 101 C-18.68930209 101.49086183 -30.10620122 99.47613642 -44.1875 89.8125 C-55.31434183 78.68565817 -61.88406893 65.36391121 -62.4375 49.5625 C-62.03868657 35.06649885 -55.42561331 22.81315564 -45.6796875 12.39453125 C-33.07749981 1.13339268 -16.62613054 -3.69469568 0 0 Z " fill="#7A82E5" transform="translate(224,225)"/>
<path d="M0 0 C0.495 0.99 0.495 0.99 1 2 C0.443125 2.40089844 -0.11375 2.80179687 -0.6875 3.21484375 C-13.99470545 13.12781267 -22.37154847 25.49117783 -25.56640625 41.921875 C-27.82994378 57.99095225 -23.60119059 73.90147031 -13.82421875 86.890625 C-9.79591526 91.53813231 -5.54257293 95.41784583 -0.43359375 98.84375 C0.03949219 99.2253125 0.51257813 99.606875 1 100 C1 100.66 1 101.32 1 102 C-14.74625044 102.77440576 -28.32763502 99.55748179 -40.5078125 88.78125 C-51.23890254 77.57726446 -56.38396145 65.41107087 -56.30102539 50.13671875 C-55.94381397 36.47060355 -50.97070804 23.58349607 -41 14 C-28.77734249 3.09871087 -15.93560009 -0.43725732 0 0 Z " fill="#7A82E5" transform="translate(285,350)"/>
<path d="M0 0 C1.22976563 -0.01160156 1.22976563 -0.01160156 2.484375 -0.0234375 C7.09212375 -0.00862159 11.21356317 0.07019976 15.375 2.25 C17.2734375 5.078125 17.2734375 5.078125 18.75 8.5 C19.25273437 9.61890625 19.75546875 10.7378125 20.2734375 11.890625 C21.41357924 15.367653 21.94604362 17.63504564 21.375 21.25 C19.43359375 23.453125 19.43359375 23.453125 16.8125 25.5 C6.3057594 34.35949737 0.24812157 46.21363959 -3.625 59.25 C-7.63539289 57.74890322 -11.29375735 55.83847148 -15.0625 53.8125 C-28.51662199 46.96881541 -41.8480974 46.84861532 -56.625 47.25 C-55.37475994 34.02828325 -47.40932241 21.90536213 -37.625 13.25 C-26.22543073 4.65201979 -14.28990749 -0.13609436 0 0 Z " fill="#333FDA" transform="translate(323.625,288.75)"/>
<path d="M0 0 C1.24040039 0.01353516 1.24040039 0.01353516 2.50585938 0.02734375 C4.52486708 0.05068488 6.54372356 0.08654712 8.5625 0.125 C8.00304687 0.36863281 7.44359375 0.61226563 6.8671875 0.86328125 C-6.16923963 8.00017271 -14.80603195 21.49786744 -19.3125 35.25 C-23.08517376 51.06795743 -20.53192645 68.08920229 -12.25 82.0625 C-6.96563995 89.61982714 -0.91070585 96.2880766 7.5625 100.125 C7.5625 100.455 7.5625 100.785 7.5625 101.125 C-9.60561071 101.50003154 -22.7497808 98.92703944 -36 86.9296875 C-39.33299222 83.09460991 -39.79076073 80.09755612 -40.171875 75.13671875 C-40.79597449 68.06053183 -43.67518723 62.09560582 -47.8125 56.4375 C-51.39919214 50.73511352 -50.61160454 45.34678011 -49.40234375 39.03515625 C-46.4677842 26.21936019 -38.94264861 15.87574989 -28.4375 8.125 C-19.12555094 2.64452998 -10.79047194 -0.22606952 0 0 Z " fill="#6D75E3" transform="translate(383.4375,311.875)"/>
<path d="M0 0 C0.68384766 0.00902344 1.36769531 0.01804688 2.07226562 0.02734375 C3.73583287 0.05061042 5.39921631 0.08646833 7.0625 0.125 C4.42095393 2.82045517 1.83415949 5.36638584 -1.1875 7.625 C-11.52884116 16.47610423 -17.85436925 29.82183831 -19.9375 43.125 C-20.7593095 54.18574752 -19.09928909 63.61262825 -15.9375 74.125 C-15.60492188 75.24777344 -15.27234375 76.37054688 -14.9296875 77.52734375 C-14.21904489 80.26588615 -14.21904489 80.26588615 -11.9375 81.125 C-13.175 81.49625 -14.4125 81.8675 -15.6875 82.25 C-21.74041599 84.24833111 -27.30104009 87.17801842 -32.9375 90.125 C-42.17649439 81.87004052 -49.75057237 70.21985992 -50.50390625 57.57421875 C-50.53140843 55.65384231 -50.52943493 53.73284778 -50.5 51.8125 C-50.48976807 50.80356689 -50.47953613 49.79463379 -50.46899414 48.75512695 C-50.06142506 34.39553314 -44.19820965 22.93511676 -33.875 12.9375 C-24.37950467 4.90786158 -12.45338845 -0.22041395 0 0 Z " fill="#414DDB" transform="translate(289.9375,174.875)"/>
<path d="M0 0 C4.95 1.485 4.95 1.485 10 3 C8.09378036 6.81243928 6.95971541 8.06296567 3.875 10.75 C-6.59177722 20.96313964 -11.06845356 34.83898778 -11.375 49.125 C-11.34908527 65.96402259 -5.3472233 79.81608916 6.046875 92.1015625 C7.86120665 94.05673962 7.86120665 94.05673962 10 95 C10 95.66 10 96.32 10 97 C-2.63580577 102.09865847 -15.91027935 102.81963236 -28.89453125 98.328125 C-37.21417065 94.77004023 -43.99919239 89.73810821 -50 83 C-48.61799087 79.76833219 -47.13195092 78.08484623 -44.375 75.9375 C-37.17535965 69.83744108 -31.5746234 61.72723371 -28 53 C-27.47792969 51.76636719 -27.47792969 51.76636719 -26.9453125 50.5078125 C-24.8005874 44.85638359 -23.82848788 39.72385167 -23.47070312 33.73095703 C-22.80921689 23.09613668 -22.80921689 23.09613668 -20.16015625 19.5078125 C-17.85586397 17.79830336 -15.49035887 16.42022064 -13 15 C-7.90325172 10.52900907 -3.75256037 5.62884056 0 0 Z " fill="#2532D5" transform="translate(441,396)"/>
<path d="M0 0 C3.11101824 1.43911048 5.69753081 3.1984885 8.4375 5.25 C14.23587604 9.38426812 20.47272079 12.20697927 27 15 C26.6390625 15.85078125 26.278125 16.7015625 25.90625 17.578125 C19.93774734 33.16254861 20.08781938 49.36011005 26 65 C27.48184506 68.1400003 29.0851796 71.10422653 31 74 C16.11710946 69.85230919 6.89210515 61.42532064 -0.73828125 48.296875 C-2 46 -2 46 -2.91015625 43.78125 C-3.86367953 41.83574441 -3.86367953 41.83574441 -5.9453125 41.171875 C-6.66460937 41.03265625 -7.38390625 40.8934375 -8.125 40.75 C-9.40375 40.5025 -10.6825 40.255 -12 40 C-13.46670113 34.77487721 -14.22577402 30.4185766 -14 25 C-12.6078125 24.7525 -12.6078125 24.7525 -11.1875 24.5 C-7.7526103 22.88358132 -7.50127914 22.68148891 -6.25 19.375 C-5.18354062 15.9462091 -4.35584193 12.46038284 -3.5390625 8.96484375 C-2.67707941 5.82297787 -1.35594331 2.95842177 0 0 Z " fill="#414DDB" transform="translate(168,324)"/>
<path d="M0 0 C3.70246019 0.64507473 7.04983217 1.67114652 10.5625 3 C15.70516977 4.94009179 19.87221435 6.12618591 25.39453125 6.1328125 C26.43287109 6.13410156 27.47121094 6.13539063 28.54101562 6.13671875 C29.62060547 6.13285156 30.70019531 6.12898438 31.8125 6.125 C32.88048828 6.12886719 33.94847656 6.13273437 35.04882812 6.13671875 C40.47265646 6.13001024 45.65842492 5.96011193 51 5 C51.63055195 16.34993514 47.65307253 25.86103214 41 35 C36.20981252 40.05783406 31.1728234 44.69727569 25 48 C21.54588332 48 19.16908949 45.9275877 16.640625 43.69921875 C6.07359165 32.75479136 0.2514788 17.68714652 -0.07421875 2.55078125 C-0.04972656 1.70902344 -0.02523438 0.86726563 0 0 Z " fill="#505ADE" transform="translate(352,421)"/>
<path d="M0 0 C-2.22937751 1.6919858 -4.47893451 3.33640252 -6.76953125 4.9453125 C-20.16527265 14.54072161 -29.19787458 27.45909545 -32 44 C-32.55818492 49.3205983 -32.8055338 54.65553245 -33 60 C-35.76636519 56.65982544 -38.13342776 53.27214419 -40.375 49.5625 C-43.18900699 45.06495103 -46.07003904 41.54655014 -50 38 C-48.75093104 34.5961391 -47.3214786 31.85975565 -45.1875 28.9375 C-39.6551878 20.78745959 -36.69093448 12.04773582 -34.96875 2.3984375 C-34 0 -34 0 -31.59765625 -1.296875 C-20.88023813 -4.19783028 -10.36806434 -3.85361683 0 0 Z " fill="#404CD9" transform="translate(390,233)"/>
</svg>
