<svg version="1.1" id="Layer_1" xmlns="http://www.w3.org/2000/svg" xmlns:xlink="http://www.w3.org/1999/xlink" x="0px" y="0px"
	 width="100%" viewBox="0 0 512 512" enable-background="new 0 0 512 512" xml:space="preserve">
<path fill="#FFFFFF" opacity="1.000000" stroke="none" 
	d="
M278.000000,1.000001 
	C356.299164,1.000000 434.598297,1.000000 512.948730,1.000000 
	C512.948730,171.557983 512.948730,342.115997 512.948730,513.000000 
	C430.644928,513.000000 348.289459,513.000000 265.652954,512.691040 
	C281.015869,507.450531 288.422028,496.703827 288.809998,480.188690 
	C289.438080,453.450745 288.871307,426.684784 288.865753,399.471222 
	C288.958038,389.049072 288.993652,379.086334 289.445801,369.072266 
	C291.774078,368.680573 293.691528,368.369385 295.596588,367.995239 
	C309.167542,365.330017 322.496033,361.860382 334.048401,353.872406 
	C336.873932,351.918640 338.795258,348.657196 341.394623,345.790894 
	C342.388000,343.718475 343.119049,341.852173 343.885437,339.517700 
	C343.891571,313.390594 343.862396,287.731689 343.898743,261.603577 
	C343.909821,235.776398 343.855408,210.418411 343.863251,184.592865 
	C343.903992,158.466248 343.882446,132.807159 343.919312,106.673294 
	C343.985229,83.214439 343.742310,60.226246 344.117798,37.248161 
	C344.278564,27.410509 339.540558,21.082047 331.802551,16.420170 
	C320.648315,9.700152 308.293427,6.261450 295.573364,4.006927 
	C289.721771,2.969777 283.858154,2.000214 278.000000,1.000001 
z"/>
<path fill="#FFFFFF" opacity="1.000000" stroke="none" 
	d="
M249.000000,513.000000 
	C166.369400,513.000000 83.738815,513.000000 1.054109,513.000000 
	C1.054109,342.443909 1.054109,171.887772 1.054109,1.000000 
	C79.021698,1.000000 157.043869,1.000000 235.341705,1.374533 
	C218.429657,3.157415 201.625061,6.382404 186.111694,14.154549 
	C178.322174,18.057070 171.046448,23.071798 170.061951,33.543442 
	C170.056183,59.667747 170.106750,85.337799 170.098999,111.472748 
	C170.081894,137.292770 170.123138,162.647903 170.096588,188.464233 
	C170.064545,214.596130 170.100266,240.266830 170.083984,266.407532 
	C170.025574,288.809052 170.351242,310.747711 169.879944,332.669250 
	C169.624268,344.562164 175.107559,351.827393 185.114685,357.096039 
	C197.054779,363.382355 209.835739,366.604187 223.306595,368.900818 
	C224.079956,369.024506 224.525208,369.073975 224.996750,369.582001 
	C225.078995,380.003845 225.134964,389.967163 225.122208,400.398865 
	C225.035782,426.851288 224.831543,452.837158 225.092728,478.818390 
	C225.196289,489.118591 227.713531,498.966949 236.378677,505.710388 
	C240.176636,508.666016 244.768600,510.601349 249.000000,513.000000 
z"/>
<path fill="#F94848" opacity="1.000000" stroke="none" 
	d="
M170.118271,33.089195 
	C171.046448,23.071798 178.322174,18.057070 186.111694,14.154549 
	C201.625061,6.382404 218.429657,3.157415 235.808685,1.374533 
	C249.687561,1.000000 263.375122,1.000000 277.531342,1.000001 
	C283.858154,2.000214 289.721771,2.969777 295.573364,4.006927 
	C308.293427,6.261450 320.648315,9.700152 331.802551,16.420170 
	C339.540558,21.082047 344.278564,27.410509 344.117798,37.248161 
	C343.742310,60.226246 343.985229,83.214439 343.690765,106.860596 
	C343.266632,108.509743 343.129364,109.496819 342.681213,110.680969 
	C338.857727,116.734734 333.112091,117.926796 326.953583,118.263863 
	C307.624573,119.321785 289.331451,114.347725 271.760254,107.304268 
	C255.190094,100.662071 239.273529,92.389305 223.048157,84.639328 
	C223.026855,84.444839 222.955933,84.060005 222.970932,83.587944 
	C222.990799,77.788467 222.712799,72.440826 223.091843,67.140167 
	C223.384552,63.046566 221.574081,61.840763 217.956985,60.925457 
	C209.163940,58.700367 200.392731,56.273273 191.827026,53.308426 
	C186.586060,51.494366 181.741440,48.535206 176.512299,46.001938 
	C176.073303,45.692776 175.963181,45.422192 175.953735,44.768211 
	C175.508911,43.985611 175.085770,43.536625 174.415070,42.867363 
	C173.402924,40.807961 172.638367,38.968838 171.926666,36.797615 
	C171.359116,35.340076 170.738693,34.214638 170.118271,33.089195 
z"/>
<path fill="#FCE275" opacity="1.000000" stroke="none" 
	d="
M249.466858,513.000000 
	C244.768600,510.601349 240.176636,508.666016 236.378677,505.710388 
	C227.713531,498.966949 225.196289,489.118591 225.092728,478.818390 
	C224.831543,452.837158 225.035782,426.851288 225.556061,400.419647 
	C234.110733,400.642120 242.170212,401.935181 250.213257,401.840027 
	C263.084259,401.687714 275.944366,400.614532 288.809082,399.930603 
	C288.871307,426.684784 289.438080,453.450745 288.809998,480.188690 
	C288.422028,496.703827 281.015869,507.450531 265.185974,512.691040 
	C259.977905,513.000000 254.955811,513.000000 249.466858,513.000000 
z"/>
<path fill="#F94948" opacity="1.000000" stroke="none" 
	d="
M343.800995,185.060410 
	C343.855408,210.418411 343.909821,235.776398 343.659637,261.803040 
	C342.925262,263.665527 342.495514,264.859375 341.919159,266.363586 
	C337.957581,271.617737 332.556091,272.795959 326.739105,273.078857 
	C307.558777,274.011719 289.389526,269.155579 271.947723,262.123016 
	C255.358719,255.434296 239.387543,247.213287 223.121567,239.479538 
	C223.098419,239.293076 222.998047,238.930695 222.998383,238.466385 
	C222.984070,212.743622 222.969421,187.485184 223.293259,162.279938 
	C244.212631,174.020172 265.611115,183.825760 288.434479,190.303940 
	C300.781342,193.808487 313.270782,196.421219 326.232391,195.872513 
	C336.099792,195.454773 341.244965,192.243286 343.328003,185.101288 
	C343.485931,185.090912 343.800995,185.060410 343.800995,185.060410 
z"/>
<path fill="#97F1E2" opacity="1.000000" stroke="none" 
	d="
M223.144714,239.666000 
	C239.387543,247.213287 255.358719,255.434296 271.947723,262.123016 
	C289.389526,269.155579 307.558777,274.011719 326.739105,273.078857 
	C332.556091,272.795959 337.957581,271.617737 342.240631,266.629272 
	C342.812164,268.396484 343.003693,270.208374 343.005524,272.020416 
	C343.026764,292.929596 342.999481,313.838806 343.055328,334.747833 
	C343.059998,336.494537 343.573212,338.239899 343.850159,339.985870 
	C343.119049,341.852173 342.388000,343.718475 341.022644,345.795990 
	C334.907440,347.581268 329.461273,350.350128 323.939209,350.510895 
	C305.577393,351.045380 288.039795,346.113892 271.259430,339.287415 
	C254.869125,332.619537 239.048767,324.550690 222.999512,316.999908 
	C223.020813,316.902954 223.051071,316.706757 223.037888,316.258942 
	C223.064713,290.429413 223.104721,265.047699 223.144714,239.666000 
z"/>
<path fill="#F94948" opacity="1.000000" stroke="none" 
	d="
M222.978210,317.096863 
	C239.048767,324.550690 254.869125,332.619537 271.259430,339.287415 
	C288.039795,346.113892 305.577393,351.045380 323.939209,350.510895 
	C329.461273,350.350128 334.907440,347.581268 340.760345,346.002075 
	C338.795258,348.657196 336.873932,351.918640 334.048401,353.872406 
	C322.496033,361.860382 309.167542,365.330017 295.596588,367.995239 
	C293.691528,368.369385 291.774078,368.680573 289.000427,369.013306 
	C286.142059,369.070129 284.145905,369.145111 282.149170,369.197266 
	C269.554596,369.526154 256.961151,370.017578 244.364838,370.106018 
	C237.902664,370.151428 231.435425,369.474121 224.970474,369.123413 
	C224.525208,369.073975 224.079956,369.024506 223.313171,368.443726 
	C222.987167,350.973907 222.982681,334.035370 222.978210,317.096863 
z"/>
<path fill="#DEC55E" opacity="1.000000" stroke="none" 
	d="
M224.996750,369.581970 
	C231.435425,369.474121 237.902664,370.151428 244.364838,370.106018 
	C256.961151,370.017578 269.554596,369.526154 282.149170,369.197266 
	C284.145905,369.145111 286.142059,369.070129 288.583862,369.064636 
	C288.993652,379.086334 288.958038,389.049072 288.865753,399.471191 
	C275.944366,400.614532 263.084259,401.687714 250.213257,401.840027 
	C242.170212,401.935181 234.110733,400.642120 225.624786,399.951233 
	C225.134964,389.967163 225.078995,380.003845 224.996750,369.581970 
z"/>
<path fill="#B19F97" opacity="1.000000" stroke="none" 
	d="
M343.885468,339.517700 
	C343.573212,338.239899 343.059998,336.494537 343.055328,334.747833 
	C342.999481,313.838806 343.026764,292.929596 343.005524,272.020416 
	C343.003693,270.208374 342.812164,268.396484 342.387238,266.318848 
	C342.495514,264.859375 342.925262,263.665527 343.594116,262.272217 
	C343.862396,287.731689 343.891571,313.390594 343.885468,339.517700 
z"/>
<path fill="#B19F97" opacity="1.000000" stroke="none" 
	d="
M343.863251,184.592865 
	C343.800995,185.060410 343.485931,185.090912 343.267944,184.628952 
	C343.030670,159.605957 343.011414,135.044922 342.992126,110.483894 
	C343.129364,109.496819 343.266632,108.509743 343.632385,107.335365 
	C343.882446,132.807159 343.903992,158.466248 343.863251,184.592865 
z"/>
<path fill="#E23E3E" opacity="1.000000" stroke="none" 
	d="
M222.954773,162.226730 
	C222.969421,187.485184 222.984070,212.743622 222.667877,238.382599 
	C212.917236,232.225616 203.147629,226.130051 194.174622,219.028046 
	C184.938339,211.717682 176.073044,203.758789 171.949066,191.771393 
	C171.390411,190.292145 170.777390,189.147598 170.164368,188.003036 
	C170.123138,162.647903 170.081894,137.292770 170.285919,111.488029 
	C170.531189,111.038422 170.899963,111.108940 170.940521,111.493759 
	C172.564621,115.644417 173.501495,119.880295 175.839874,123.097504 
	C188.174728,140.068237 205.126068,151.570221 223.003937,161.949310 
	C222.986252,162.041550 222.954788,162.226730 222.954773,162.226730 
z"/>
<path fill="#E23E3E" opacity="1.000000" stroke="none" 
	d="
M222.999512,316.999908 
	C222.982681,334.035370 222.987167,350.973907 222.985077,368.369507 
	C209.835739,366.604187 197.054779,363.382355 185.114685,357.096039 
	C175.107559,351.827393 169.624268,344.562164 169.879944,332.669250 
	C170.351242,310.747711 170.025574,288.809052 170.286453,266.424927 
	C170.540909,265.972321 170.933838,266.077576 170.966492,266.462128 
	C172.719803,270.752045 173.788864,275.141846 176.271194,278.480988 
	C188.627747,295.102570 205.421249,306.450500 223.051071,316.706757 
	C223.051071,316.706757 223.020813,316.902954 222.999512,316.999908 
z"/>
<path fill="#B19F97" opacity="1.000000" stroke="none" 
	d="
M170.899963,111.108940 
	C170.899963,111.108940 170.531189,111.038422 170.344254,111.023140 
	C170.106750,85.337799 170.056183,59.667747 170.061951,33.543442 
	C170.738693,34.214638 171.359116,35.340076 171.640289,37.084740 
	C171.199722,39.522625 171.014099,41.341091 171.009933,43.159977 
	C170.957977,65.809593 170.932358,88.459274 170.899963,111.108940 
z"/>
<path fill="#B19F97" opacity="1.000000" stroke="none" 
	d="
M170.933838,266.077576 
	C170.933838,266.077576 170.540909,265.972321 170.338440,265.954926 
	C170.100266,240.266830 170.064545,214.596130 170.096588,188.464233 
	C170.777390,189.147598 171.390411,190.292145 171.654373,192.054199 
	C171.202438,194.490097 171.013107,196.308365 171.009811,198.126953 
	C170.968796,220.777130 170.954788,243.427353 170.933838,266.077576 
z"/>
<path fill="#97F1E2" opacity="1.000000" stroke="none" 
	d="
M342.681244,110.680969 
	C343.011414,135.044922 343.030670,159.605957 343.109985,184.639328 
	C341.244965,192.243286 336.099792,195.454773 326.232391,195.872513 
	C313.270782,196.421219 300.781342,193.808487 288.434479,190.303940 
	C265.611115,183.825760 244.212631,174.020172 223.293274,162.279938 
	C222.954788,162.226730 222.986252,162.041550 222.998505,161.490860 
	C223.030334,135.571381 223.049896,110.202599 223.069443,84.833817 
	C239.273529,92.389305 255.190094,100.662071 271.760254,107.304268 
	C289.331451,114.347725 307.624573,119.321785 326.953583,118.263863 
	C333.112091,117.926796 338.857727,116.734734 342.681244,110.680969 
z"/>
<path fill="#77DCCE" opacity="1.000000" stroke="none" 
	d="
M223.048157,84.639328 
	C223.049896,110.202599 223.030334,135.571381 223.016190,161.398621 
	C205.126068,151.570221 188.174728,140.068237 175.839874,123.097504 
	C173.501495,119.880295 172.564621,115.644417 170.940521,111.493759 
	C170.932358,88.459274 170.957977,65.809593 171.009933,43.159977 
	C171.014099,41.341091 171.199722,39.522625 171.587402,37.416840 
	C172.638367,38.968838 173.402924,40.807961 174.508301,43.166084 
	C175.224533,44.157330 175.599960,44.629578 175.975403,45.101822 
	C175.963181,45.422192 176.073303,45.692776 176.630295,46.329842 
	C189.257339,62.920971 205.714157,73.974342 222.955933,84.060005 
	C222.955933,84.060005 223.026855,84.444839 223.048157,84.639328 
z"/>
<path fill="#E23E3E" opacity="1.000000" stroke="none" 
	d="
M222.970932,83.587944 
	C205.714157,73.974342 189.257339,62.920971 176.836823,46.418213 
	C181.741440,48.535206 186.586060,51.494366 191.827026,53.308426 
	C200.392731,56.273273 209.163940,58.700367 217.956985,60.925457 
	C221.574081,61.840763 223.384552,63.046566 223.091843,67.140167 
	C222.712799,72.440826 222.990799,77.788467 222.970932,83.587944 
z"/>
<path fill="#E23E3E" opacity="1.000000" stroke="none" 
	d="
M175.953735,44.768211 
	C175.599960,44.629578 175.224533,44.157330 174.755859,43.386360 
	C175.085770,43.536625 175.508911,43.985611 175.953735,44.768211 
z"/>
<path fill="#77DCCE" opacity="1.000000" stroke="none" 
	d="
M170.966492,266.462128 
	C170.954788,243.427353 170.968796,220.777130 171.009811,198.126953 
	C171.013107,196.308365 171.202438,194.490097 171.600006,192.388885 
	C176.073044,203.758789 184.938339,211.717682 194.174622,219.028046 
	C203.147629,226.130051 212.917236,232.225616 222.667542,238.846924 
	C222.998047,238.930695 223.098419,239.293076 223.121567,239.479538 
	C223.104721,265.047699 223.064713,290.429413 223.037888,316.258942 
	C205.421249,306.450500 188.627747,295.102570 176.271194,278.480988 
	C173.788864,275.141846 172.719803,270.752045 170.966492,266.462128 
z"/>
</svg>