<svg version="1.1" id="Layer_1" xmlns="http://www.w3.org/2000/svg" xmlns:xlink="http://www.w3.org/1999/xlink" x="0px" y="0px"
	 width="100%" viewBox="0 0 512 512" enable-background="new 0 0 512 512" xml:space="preserve">
<path fill="#FFFFFF" opacity="1.000000" stroke="none" 
	d="
M273.000000,0.999999 
	C352.965271,1.000000 432.930542,1.000000 512.947876,1.000000 
	C512.947876,171.557831 512.947876,342.115662 512.947876,513.000000 
	C430.644928,513.000000 348.289459,513.000000 265.493073,512.649719 
	C272.833282,506.321655 273.146484,497.965759 273.090698,489.092712 
	C272.869873,453.980164 273.015930,418.865387 272.995361,383.751434 
	C272.976074,350.802155 272.918213,317.852905 272.908081,284.445068 
	C272.964844,273.364532 272.990875,262.742554 273.430054,252.066132 
	C279.243835,250.707764 284.644531,249.403870 290.448730,248.058075 
	C291.351440,248.007202 291.882874,248.108521 292.345245,247.973465 
	C317.937500,240.498703 338.773621,225.855988 355.719452,205.524628 
	C358.911774,201.694565 361.334442,197.223053 364.416779,192.879776 
	C366.169189,189.842941 367.617096,186.973877 369.382812,183.958649 
	C370.898071,182.973953 371.983093,181.793457 373.312561,181.356186 
	C379.022247,179.478256 381.553070,175.400269 383.194885,169.776993 
	C388.431458,151.841476 391.627869,133.794617 389.047028,115.038879 
	C387.873871,106.513313 388.048828,106.489235 382.840179,105.729500 
	C378.523743,93.650452 375.196381,81.877975 370.185699,70.871849 
	C361.866638,52.598759 348.767334,37.686226 332.880127,25.667086 
	C319.865051,15.820764 305.421875,8.195868 288.886475,4.613681 
	C283.451172,3.179282 278.225586,2.089640 273.000000,0.999999 
z"/>
<path fill="#FFFFFF" opacity="1.000000" stroke="none" 
	d="
M249.000000,513.000000 
	C166.369186,513.000000 83.738380,513.000000 1.053784,513.000000 
	C1.053784,342.443237 1.053784,171.886444 1.053784,1.000000 
	C81.021713,1.000000 161.043869,1.000000 241.350250,1.377419 
	C231.809616,3.975111 221.552750,5.064697 212.239273,8.623287 
	C181.786285,20.259087 158.836319,40.983948 144.235916,70.088341 
	C138.629791,81.263557 135.522827,93.692482 131.166077,105.860199 
	C128.722183,105.472862 125.731720,106.119873 125.103882,110.136429 
	C124.521278,113.863518 124.179657,117.650124 124.045807,121.421669 
	C123.523628,136.135986 125.396545,150.637955 129.187180,164.796402 
	C130.972733,171.465622 132.245026,179.005661 140.761581,181.479385 
	C142.547760,181.998184 144.304489,184.020370 145.258545,185.789856 
	C157.741943,208.942566 175.713181,226.563843 198.821030,238.919006 
	C212.000320,245.965622 226.303162,249.722549 240.996918,252.602020 
	C241.049820,263.674774 241.086227,274.289124 241.083939,285.376709 
	C241.030228,356.154816 240.986847,426.459686 241.055710,496.764465 
	C241.061035,502.213226 242.649155,507.236847 247.688339,510.487518 
	C248.378571,510.932800 248.574966,512.143616 249.000000,513.000000 
z"/>
<path fill="#E23D3D" opacity="1.000000" stroke="none" 
	d="
M240.980438,252.143631 
	C226.303162,249.722549 212.000320,245.965622 198.821030,238.919006 
	C175.713181,226.563843 157.741943,208.942566 145.258545,185.789856 
	C144.304489,184.020370 142.547760,181.998184 140.761581,181.479385 
	C132.245026,179.005661 130.972733,171.465622 129.187180,164.796402 
	C125.396545,150.637955 123.523628,136.135986 124.045807,121.421669 
	C124.179657,117.650124 124.521278,113.863518 125.103882,110.136429 
	C125.731720,106.119873 128.722183,105.472862 131.166077,105.860199 
	C135.522827,93.692482 138.629791,81.263557 144.235916,70.088341 
	C158.836319,40.983948 181.786285,20.259087 212.239273,8.623287 
	C221.552750,5.064697 231.809616,3.975111 241.817230,1.377419 
	C252.020889,1.000000 262.041779,1.000000 272.531342,0.999999 
	C278.225586,2.089640 283.451172,3.179282 288.496765,4.663866 
	C277.477112,9.575851 266.099487,13.126381 255.904358,18.801287 
	C230.902786,32.717857 214.033737,54.095387 203.042923,80.305374 
	C197.464661,93.607918 195.337051,107.669617 194.066193,121.875450 
	C193.136215,132.270615 193.352005,132.289917 203.897736,134.690521 
	C203.226532,136.552170 202.330841,138.329468 201.953003,140.210770 
	C200.558838,147.152374 198.181396,154.147339 198.295242,161.087433 
	C198.515091,174.489090 204.198837,186.174088 213.492706,195.802094 
	C216.615646,199.037323 220.401382,202.375122 224.520004,203.722626 
	C229.905838,205.484756 235.908936,205.706436 241.670609,205.910599 
	C261.274567,206.605270 280.844269,205.877792 300.233551,202.732300 
	C323.056305,199.029770 345.199951,192.833572 366.526825,183.812744 
	C367.209564,183.523956 368.211731,183.990417 369.065002,184.104813 
	C367.617096,186.973877 366.169189,189.842941 364.041748,192.900391 
	C324.736969,208.996277 284.444641,215.623032 242.429443,214.608673 
	C249.234787,221.656082 255.735199,228.695389 263.457062,233.934418 
	C271.719879,239.540466 281.133728,243.449966 290.045197,248.099960 
	C284.644531,249.403870 279.243835,250.707764 272.985657,251.986450 
	C265.621460,252.307571 259.117737,252.824615 252.607040,252.935822 
	C248.737137,253.001923 244.856339,252.429169 240.980438,252.143631 
z"/>
<path fill="#E6E6E6" opacity="1.000000" stroke="none" 
	d="
M249.466858,513.000000 
	C248.574966,512.143616 248.378571,510.932800 247.688339,510.487518 
	C242.649155,507.236847 241.061035,502.213226 241.055710,496.764465 
	C240.986847,426.459686 241.030228,356.154816 241.538940,285.400818 
	C252.314224,284.935638 262.595795,284.919617 272.877350,284.903625 
	C272.918213,317.852905 272.976074,350.802155 272.995361,383.751434 
	C273.015930,418.865387 272.869873,453.980164 273.090698,489.092712 
	C273.146484,497.965759 272.833282,506.321655 265.026093,512.649719 
	C259.977905,513.000000 254.955811,513.000000 249.466858,513.000000 
z"/>
<path fill="#F94848" opacity="1.000000" stroke="none" 
	d="
M369.382812,183.958649 
	C368.211731,183.990417 367.209564,183.523956 366.526825,183.812744 
	C345.199951,192.833572 323.056305,199.029770 300.233551,202.732300 
	C280.844269,205.877792 261.274567,206.605270 241.670609,205.910599 
	C235.908936,205.706436 229.905838,205.484756 224.520004,203.722626 
	C220.401382,202.375122 216.615646,199.037323 213.492706,195.802094 
	C204.198837,186.174088 198.515091,174.489090 198.295242,161.087433 
	C198.181396,154.147339 200.558838,147.152374 201.953003,140.210770 
	C202.330841,138.329468 203.226532,136.552170 203.897736,134.690521 
	C193.352005,132.289917 193.136215,132.270615 194.066193,121.875450 
	C195.337051,107.669617 197.464661,93.607918 203.042923,80.305374 
	C214.033737,54.095387 230.902786,32.717857 255.904358,18.801287 
	C266.099487,13.126381 277.477112,9.575851 288.706482,5.008623 
	C305.421875,8.195868 319.865051,15.820764 332.880127,25.667086 
	C348.767334,37.686226 361.866638,52.598759 370.185699,70.871849 
	C375.196381,81.877975 378.523743,93.650452 382.840179,105.729500 
	C388.048828,106.489235 387.873871,106.513313 389.047028,115.038879 
	C391.627869,133.794617 388.431458,151.841476 383.194885,169.776993 
	C381.553070,175.400269 379.022247,179.478256 373.312561,181.356186 
	C371.983093,181.793457 370.898071,182.973953 369.382812,183.958649 
M299.081146,81.156914 
	C301.051727,83.590546 302.734558,86.347969 305.044098,88.400139 
	C313.697510,96.089188 327.324036,94.195770 335.016327,84.453926 
	C341.801025,75.861542 339.848297,61.275345 331.079559,55.047203 
	C323.479340,49.649021 312.641968,49.416634 305.957001,54.508503 
	C297.162506,61.207172 294.836761,69.599716 299.081146,81.156914 
M364.053986,156.842178 
	C369.981323,153.118744 372.089874,146.480759 368.950745,141.426239 
	C366.179230,136.963562 360.320404,135.403473 355.412018,137.821121 
	C350.766663,140.109207 348.441437,145.984360 350.180450,151.039825 
	C351.681366,155.403275 357.973785,158.253311 364.053986,156.842178 
z"/>
<path fill="#F94848" opacity="1.000000" stroke="none" 
	d="
M290.448730,248.058075 
	C281.133728,243.449966 271.719879,239.540466 263.457062,233.934418 
	C255.735199,228.695389 249.234787,221.656082 242.429443,214.608673 
	C284.444641,215.623032 324.736969,208.996277 363.737183,193.068146 
	C361.334442,197.223053 358.911774,201.694565 355.719452,205.524628 
	C338.773621,225.855988 317.937500,240.498703 292.345245,247.973465 
	C291.882874,248.108521 291.351440,248.007202 290.448730,248.058075 
z"/>
<path fill="#CCCCCC" opacity="1.000000" stroke="none" 
	d="
M272.908081,284.445068 
	C262.595795,284.919617 252.314224,284.935638 241.577637,284.927551 
	C241.086227,274.289124 241.049820,263.674774 240.996918,252.602020 
	C244.856339,252.429169 248.737137,253.001923 252.607040,252.935822 
	C259.117737,252.824615 265.621460,252.307571 272.572510,252.040924 
	C272.990875,262.742554 272.964844,273.364532 272.908081,284.445068 
z"/>
<path fill="#FC8080" opacity="1.000000" stroke="none" 
	d="
M298.924530,80.803764 
	C294.836761,69.599716 297.162506,61.207172 305.957001,54.508503 
	C312.641968,49.416634 323.479340,49.649021 331.079559,55.047203 
	C339.848297,61.275345 341.801025,75.861542 335.016327,84.453926 
	C327.324036,94.195770 313.697510,96.089188 305.044098,88.400139 
	C302.734558,86.347969 301.051727,83.590546 298.924530,80.803764 
z"/>
<path fill="#FC8080" opacity="1.000000" stroke="none" 
	d="
M363.676605,156.911987 
	C357.973785,158.253311 351.681366,155.403275 350.180450,151.039825 
	C348.441437,145.984360 350.766663,140.109207 355.412018,137.821121 
	C360.320404,135.403473 366.179230,136.963562 368.950745,141.426239 
	C372.089874,146.480759 369.981323,153.118744 363.676605,156.911987 
z"/>
</svg>