<?xml version="1.0" encoding="UTF-8"?>
<svg version="1.1" xmlns="http://www.w3.org/2000/svg" width="512" height="512">
<path d="M0 0 C1.68521759 -0.01891296 1.68521759 -0.01891296 3.40447998 -0.03820801 C4.62097229 -0.03011108 5.8374646 -0.02201416 7.09082031 -0.01367188 C8.36000305 -0.01749878 9.62918579 -0.02132568 10.93682861 -0.02526855 C13.63746993 -0.02799518 16.33667307 -0.02260199 19.03710938 -0.00390625 C21.75621701 0.01404166 24.47425633 0.01465418 27.19335938 -0.00390625 C66.01746208 -0.2513754 96.54961036 9.25970058 131.49316406 25.06054688 C132.37174576 25.45749252 133.25032745 25.85443817 134.15553284 26.26341248 C138.53639753 28.24414608 142.91353162 30.23245998 147.28442383 32.23510742 C165.7150891 40.64589504 181.8305642 45.92868839 202.29394531 45.83007812 C203.01860992 45.82925232 203.74327454 45.82842651 204.48989868 45.82757568 C216.67704216 45.79570685 228.43392709 44.73932279 240.41894531 42.51757812 C243.08299905 42.03684662 245.74751669 41.58277234 248.41894531 41.14257812 C249.47082031 40.94921875 250.52269531 40.75585938 251.60644531 40.55664062 C255.1145037 40.50791759 256.66887927 41.39208694 259.41894531 43.51757812 C261.32419515 47.08992158 261.60970033 48.76923153 260.60644531 52.70507812 C254.45093183 60.61930975 238.95674447 60.53077835 229.73144531 61.72070312 C220.56209338 62.7750024 211.39055192 62.9313328 202.16894531 62.95507812 C201.40110718 62.96107025 200.63326904 62.96706238 199.84216309 62.97323608 C175.29035404 63.10108955 157.31787766 55.33140627 134.41894531 45.51757812 C134.08894531 67.62757812 133.75894531 89.73757812 133.41894531 112.51757812 C136.38894531 112.51757812 139.35894531 112.51757812 142.41894531 112.51757812 C190.62022601 115.85740961 236.13138517 141.41404924 267.81738281 177.22851562 C288.33161778 201.77361781 313.27475748 239.30226663 312.82519531 272.51367188 C312.41894531 274.51757812 312.41894531 274.51757812 309.85644531 276.76757812 C307.086902 279.30375668 307.086902 279.30375668 307.30957031 282.70898438 C307.57944846 286.00078757 307.93584027 289.25064005 308.41894531 292.51757812 C309.60230469 292.72833984 309.60230469 292.72833984 310.80957031 292.94335938 C313.77815 293.59662467 314.70575545 294.03345283 316.41894531 296.51757812 C325.13070797 336.23119964 308.51212455 387.04950082 287.90185547 420.47998047 C286.14692659 423.21253389 284.29995598 425.87060636 282.41894531 428.51757812 C281.71382813 429.51402344 281.00871094 430.51046875 280.28222656 431.53710938 C268.2367925 448.03740774 254.73150233 462.24252175 238.41894531 474.51757812 C237.85546387 474.9471582 237.29198242 475.37673828 236.71142578 475.81933594 C204.42055715 500.32756752 165.14105046 513.01629521 124.73144531 512.83007812 C123.4697905 512.8268454 123.4697905 512.8268454 122.18264771 512.82354736 C110.04031499 512.77358545 98.25129254 512.49573336 86.41894531 509.51757812 C85.19546387 509.21956299 85.19546387 509.21956299 83.94726562 508.91552734 C53.91098934 501.42609349 25.05201434 488.02642162 2.41894531 466.51757812 C1.20501032 464.08970814 1.55512629 463.05345691 1.85644531 460.39257812 C1.92001062 456.04188579 0.73659928 454.06416723 -2.20605469 450.89257812 C-5.45406719 447.8960481 -5.45406719 447.8960481 -9.76855469 447.64257812 C-11.16074219 448.07570313 -11.16074219 448.07570313 -12.58105469 448.51757812 C-24.06960123 445.49031791 -32.91618894 427.15278908 -38.58105469 417.51757812 C-46.50898671 403.70018172 -53.03210485 389.79325514 -57.58105469 374.51757812 C-57.81904785 373.72399902 -58.05704102 372.93041992 -58.30224609 372.11279297 C-74.37045614 317.47197058 -66.60241138 259.36657695 -39.58105469 209.51757812 C-31.28813092 195.02100066 -21.07646712 181.61417695 -9.58105469 169.51757812 C-9.10297363 169.01226562 -8.62489258 168.50695312 -8.13232422 167.98632812 C12.75262513 146.0535066 39.39578707 129.33774371 68.41894531 120.51757812 C69.47879639 120.18185791 69.47879639 120.18185791 70.56005859 119.83935547 C79.41201054 117.05163637 88.23285523 115.04546409 97.41894531 113.70507812 C98.26682617 113.58108643 99.11470703 113.45709473 99.98828125 113.3293457 C105.93322351 112.53936464 111.32302661 112.51757812 117.41894531 112.51757812 C117.08894531 87.76757812 116.75894531 63.01757812 116.41894531 37.51757812 C104.3611066 31.79960488 104.3611066 31.79960488 92.04394531 26.83007812 C91.25358887 26.54173096 90.46323242 26.25338379 89.64892578 25.95629883 C73.39562911 20.19229322 56.52677628 17.25500399 39.29394531 17.17382812 C38.10341553 17.15920532 36.91288574 17.14458252 35.6862793 17.1295166 C30.65114496 17.06783017 25.61590035 17.02747535 20.58056641 16.98583984 C16.88072873 16.95214023 13.18115059 16.90706416 9.48144531 16.86132812 C8.34497559 16.85605103 7.20850586 16.85077393 6.03759766 16.84533691 C4.97879395 16.83192261 3.91999023 16.8185083 2.82910156 16.8046875 C1.90234619 16.79739624 0.97559082 16.79010498 0.02075195 16.78259277 C-2.87885121 16.48724519 -4.98759959 15.84393092 -7.58105469 14.51757812 C-10.06144376 10.79699452 -10.04442672 8.91961242 -9.58105469 4.51757812 C-6.6841372 0.72857856 -4.69703161 0.01518116 0 0 Z " fill="#010201" transform="translate(130.5810546875,-0.517578125)"/>
<path d="M0 0 C23.6876766 10.0604526 47.85831155 18.27982841 72.5 25.625 C72.5 26.285 72.5 26.945 72.5 27.625 C50.28989164 40.27415785 27.8845086 52.48311209 4.63961792 63.14285278 C3.14366988 63.83291972 1.65208665 64.53253795 0.16531372 65.24215698 C-12.99470322 71.49609252 -12.99470322 71.49609252 -18.3984375 69.7890625 C-19.78704531 69.10985573 -21.15511321 68.38712402 -22.5 67.625 C-24.04788789 66.95506564 -25.60017246 66.29521677 -27.15625 65.64453125 C-28.773134 64.91392448 -30.38764997 64.17805891 -32 63.4375 C-32.86874756 63.04167725 -33.73749512 62.64585449 -34.63256836 62.23803711 C-37.25750047 61.03896448 -39.87892599 59.83247805 -42.5 58.625 C-43.24910645 58.28275391 -43.99821289 57.94050781 -44.77001953 57.58789062 C-64.26561098 48.67409522 -82.89944363 38.25890772 -101.5 27.625 C-101.5 26.965 -101.5 26.305 -101.5 25.625 C-100.42443848 25.28355957 -99.34887695 24.94211914 -98.24072266 24.59033203 C-63.64142669 13.58742416 -63.64142669 13.58742416 -29.91015625 0.1953125 C-29.03464111 -0.18584717 -28.15912598 -0.56700684 -27.25708008 -0.9597168 C-25.64963396 -1.6667802 -24.04845564 -2.38837434 -22.45581055 -3.12817383 C-13.96954678 -6.90146953 -8.07623866 -3.51461633 0 0 Z " fill="#A2E075" transform="translate(270.5,382.375)"/>
<path d="M0 0 C1.33756348 0.44267212 1.33756348 0.44267212 2.70214844 0.89428711 C4.6834874 1.55198251 6.66066953 2.22228847 8.63427734 2.90283203 C15.27056788 5.06614914 22.04999453 6.71929405 28.8125 8.4375 C29.57414459 8.6325412 30.33578918 8.8275824 31.12051392 9.02853394 C44.01625341 12.32852034 56.95745305 15.33251095 70 18 C62.23869771 27.29123751 53.22088365 34.73837534 43.68359375 42.125 C41.25295809 44.01042835 38.85161533 45.92479527 36.47265625 47.875 C4.84654806 73.74697951 4.84654806 73.74697951 -5 73 C-8.53834223 72.25117232 -11.97744961 71.23579823 -15.4375 70.1875 C-16.46883057 69.87981689 -17.50016113 69.57213379 -18.56274414 69.25512695 C-41.46091907 62.30651737 -63.90884348 54.18955896 -86 45 C-86 44.34 -86 43.68 -86 43 C-85.07610474 42.5349707 -85.07610474 42.5349707 -84.13354492 42.06054688 C-71.69824917 35.77137917 -59.44085827 29.2699346 -47.4375 22.1875 C-45.7654248 21.20160889 -45.7654248 21.20160889 -44.05957031 20.19580078 C-38.3347758 16.76639521 -32.76126336 13.20292228 -27.3125 9.35546875 C-26.23943604 8.60563721 -25.16637207 7.85580566 -24.06079102 7.08325195 C-22.03353893 5.64992942 -20.02469594 4.19007021 -18.03881836 2.69995117 C-11.34736787 -2.04399202 -7.6870967 -2.79404815 0 0 Z " fill="#A2E075" transform="translate(361,324)"/>
<path d="M0 0 C1.03447266 0.69452271 1.03447266 0.69452271 2.08984375 1.40307617 C2.87576904 1.92442139 3.66169434 2.4457666 4.47143555 2.98291016 C5.31488525 3.54824463 6.15833496 4.1135791 7.02734375 4.69604492 C21.39986077 14.1703518 36.14580057 22.89058927 51.15234375 31.32104492 C52.6986145 32.19007446 52.6986145 32.19007446 54.27612305 33.07666016 C60.44658426 36.5175997 66.6768852 39.78714893 73.02734375 42.88354492 C70.49746106 45.87409768 67.83640832 46.97002133 64.21875 48.37963867 C62.41144409 49.08552124 62.41144409 49.08552124 60.56762695 49.80566406 C59.24202951 50.31165715 57.91609187 50.81675976 56.58984375 51.32104492 C55.91738617 51.57933075 55.24492859 51.83761658 54.55209351 52.10372925 C43.07843664 56.50369094 31.49463602 60.553931 19.83984375 64.44604492 C19.0847049 64.69925507 18.32956604 64.95246521 17.55154419 65.21334839 C-10.98340396 74.74807643 -10.98340396 74.74807643 -17.02392578 71.92480469 C-17.62833496 71.47935303 -18.23274414 71.03390137 -18.85546875 70.57495117 C-19.54133057 70.08003174 -20.22719238 69.5851123 -20.93383789 69.07519531 C-21.64789795 68.53757568 -22.36195801 67.99995605 -23.09765625 67.44604492 C-23.84974365 66.8961792 -24.60183105 66.34631348 -25.37670898 65.77978516 C-27.58499268 64.16028283 -29.7790922 62.5228964 -31.97265625 60.88354492 C-33.03355469 60.11010742 -34.09445313 59.33666992 -35.1875 58.53979492 C-43.04951465 52.75921899 -50.58618642 46.58088915 -58.12744141 40.39233398 C-59.74985881 39.06572118 -61.3819927 37.75101011 -63.015625 36.43823242 C-69.93725969 30.86496813 -76.48061979 24.94504494 -82.97265625 18.88354492 C-80.07374826 16.9509396 -78.53310469 16.41656139 -75.2109375 15.73510742 C-74.26508789 15.5365918 -73.31923828 15.33807617 -72.34472656 15.13354492 C-71.33506836 14.92729492 -70.32541016 14.72104492 -69.28515625 14.50854492 C-67.18190371 14.06506842 -65.07903887 13.61974923 -62.9765625 13.17260742 C-61.9467627 12.95378906 -60.91696289 12.7349707 -59.85595703 12.50952148 C-54.20260294 11.28215485 -48.60054246 9.86688619 -43.00195312 8.41040039 C-40.7803133 7.83360795 -38.55618815 7.26695584 -36.33203125 6.69995117 C-27.80735694 4.50752359 -19.36794876 2.203716 -11.046875 -0.68066406 C-6.55449399 -2.17397795 -4.12389947 -2.33398419 0 0 Z " fill="#A3E075" transform="translate(163.97265625,324.116455078125)"/>
<path d="M0 0 C1.1255127 0.55896973 2.25102539 1.11793945 3.41064453 1.69384766 C4.00605042 1.99011047 4.6014563 2.28637329 5.21490479 2.59161377 C16.73478964 8.30437617 28.39199032 13.52271067 40.3203125 18.32421875 C41.32164215 18.72805283 41.32164215 18.72805283 42.34320068 19.14004517 C50.23813071 22.31447256 58.17580065 25.35278066 66.1953125 28.19921875 C64.74505696 32.54998538 61.41044373 33.79114113 57.6328125 36.01171875 C56.83270752 36.48963867 56.03260254 36.96755859 55.20825195 37.45996094 C53.45975554 38.50122099 51.70856764 39.5379713 49.95507812 40.57080078 C47.18850206 42.2032373 44.43380934 43.85446845 41.6796875 45.5078125 C30.49001343 52.17735052 19.13238472 58.45505562 7.5703125 64.44921875 C6.62966446 64.93884094 6.62966446 64.93884094 5.67001343 65.43835449 C-10.1323052 73.64279956 -10.1323052 73.64279956 -14.32397461 72.53100586 C-15.1516333 72.10053955 -15.97929199 71.67007324 -16.83203125 71.2265625 C-18.24983887 70.50533203 -18.24983887 70.50533203 -19.69628906 69.76953125 C-20.70143555 69.23070312 -21.70658203 68.691875 -22.7421875 68.13671875 C-23.79760742 67.58886719 -24.85302734 67.04101562 -25.94042969 66.4765625 C-45.67508011 56.14244029 -65.14470185 45.0456563 -83.875 32.9765625 C-84.62797363 32.4930835 -85.38094727 32.00960449 -86.15673828 31.51147461 C-86.70056152 31.07843018 -87.24438477 30.64538574 -87.8046875 30.19921875 C-87.8046875 29.53921875 -87.8046875 28.87921875 -87.8046875 28.19921875 C-87.13751709 27.94865723 -86.47034668 27.6980957 -85.78295898 27.43994141 C-67.41076459 20.51681253 -49.14360978 13.41553765 -31.578125 4.609375 C-30.34563458 3.99647484 -29.11313138 3.38360038 -27.88061523 2.77075195 C-25.49400832 1.5825947 -23.12730678 0.36882381 -20.76196289 -0.86254883 C-19.68164795 -1.40419678 -18.60133301 -1.94584473 -17.48828125 -2.50390625 C-16.05826782 -3.24108887 -16.05826782 -3.24108887 -14.59936523 -3.99316406 C-9.26991261 -5.53329067 -4.7186495 -2.37562004 0 0 Z " fill="#A2E075" transform="translate(266.8046875,286.80078125)"/>
<path d="M0 0 C2.21379016 0.70092258 4.40726537 1.46863397 6.578125 2.29296875 C7.81240234 2.75566162 9.04667969 3.21835449 10.31835938 3.69506836 C11.28165161 4.06098587 11.28165161 4.06098587 12.2644043 4.43429565 C15.62282355 5.70825891 18.99073217 6.95649215 22.359375 8.203125 C23.02243652 8.44868637 23.68549805 8.69424774 24.36865234 8.94725037 C36.16087062 13.29199808 48.18044561 16.87870472 60.3125 20.140625 C63 21 63 21 66 23 C60.34470334 28.34548562 54.67622518 33.67674798 49 39 C48.4524707 39.51546387 47.90494141 40.03092773 47.34082031 40.56201172 C40.97819696 46.53921949 34.32018824 51.9969946 27.421875 57.33203125 C24.31086385 59.74176139 21.27529814 62.23319124 18.25 64.75 C16.50113518 66.16806781 14.75116984 67.58477966 13 69 C12.14664063 69.72058594 11.29328125 70.44117188 10.4140625 71.18359375 C9.57617188 71.84488281 8.73828125 72.50617188 7.875 73.1875 C7.15054688 73.77917969 6.42609375 74.37085938 5.6796875 74.98046875 C-2.39985931 78.05446542 -13.61439148 71.23761302 -21.25 68.1875 C-21.96411041 67.90465149 -22.67822083 67.62180298 -23.41397095 67.3303833 C-40.53166363 60.54361614 -57.55666849 53.30151729 -74 45 C-74 44.34 -74 43.68 -74 43 C-72.65035156 42.26910156 -72.65035156 42.26910156 -71.2734375 41.5234375 C-51.95063457 30.92673151 -32.67687872 19.12488205 -15.53125 5.21875 C-14.72518311 4.57546753 -14.72518311 4.57546753 -13.90283203 3.91918945 C-12.49065923 2.78074078 -11.09974274 1.61605952 -9.7109375 0.44921875 C-6.03357121 -1.51663557 -4.05231934 -0.79481091 0 0 Z " fill="#A2E075" transform="translate(347,229)"/>
<path d="M0 0 C2.48079517 1.62802183 4.70413933 3.26699627 7 5.125 C25.73419096 19.7033284 46.15416775 32.65373245 67 44 C67 44.66 67 45.32 67 46 C48.13447788 55.13038329 29.13029057 63.39656361 9.47607422 70.68408203 C7.10005051 71.58356003 4.73728041 72.51863831 2.38720703 73.48388672 C0.66606689 74.18602295 0.66606689 74.18602295 -1.08984375 74.90234375 C-2.10812256 75.32894287 -3.12640137 75.75554199 -4.17553711 76.19506836 C-7.31454696 77.0896414 -8.92286907 77.00788033 -12 76 C-14.22007579 74.47932064 -16.247124 72.95697599 -18.3125 71.25 C-18.91352539 70.7648291 -19.51455078 70.2796582 -20.13378906 69.77978516 C-21.42327396 68.73700449 -22.70947434 67.69015159 -23.99267578 66.63964844 C-26.02569438 64.97901199 -28.07156543 63.33551508 -30.12109375 61.6953125 C-36.85319221 56.29215808 -43.47449904 50.82065222 -49.8359375 44.98046875 C-51.89991208 43.09159671 -54.00290254 41.2605374 -56.125 39.4375 C-60.28221545 35.81778311 -64.13903664 31.93032199 -68 28 C-69.66547831 26.33214583 -71.33189345 24.66522554 -73 23 C-72.28908203 22.78496826 -71.57816406 22.56993652 -70.84570312 22.34838867 C-56.0204847 17.84720102 -41.27677336 13.1631962 -26.625 8.125 C-25.59886597 7.7734938 -25.59886597 7.7734938 -24.55200195 7.41488647 C-22.58813226 6.74101136 -20.62580237 6.06286011 -18.6640625 5.3828125 C-17.54467285 4.99496582 -16.4252832 4.60711914 -15.27197266 4.20751953 C-12.88147406 3.32530747 -10.57106301 2.40012614 -8.23974609 1.3828125 C-3.38777509 -0.68814182 -3.38777509 -0.68814182 0 0 Z " fill="#A2E075" transform="translate(172,228)"/>
<path d="M0 0 C1.96850586 0.84106445 1.96850586 0.84106445 3.71484375 1.86328125 C4.38854004 2.2492749 5.06223633 2.63526855 5.75634766 3.03295898 C6.47612793 3.45520752 7.1959082 3.87745605 7.9375 4.3125 C9.54678363 5.22901357 11.15753275 6.14295741 12.76953125 7.0546875 C13.6198291 7.53647461 14.47012695 8.01826172 15.34619141 8.51464844 C31.48540551 17.54785714 48.11455681 25.47342976 65 33 C65 33.66 65 34.32 65 35 C63.52563477 36.24584961 63.52563477 36.24584961 61.44140625 37.65234375 C60.67151367 38.17602539 59.90162109 38.69970703 59.10839844 39.23925781 C58.26825195 39.79967773 57.42810547 40.36009766 56.5625 40.9375 C55.70301758 41.51725586 54.84353516 42.09701172 53.95800781 42.69433594 C51.31191265 44.47298645 48.65796939 46.23915135 46 48 C45.23220215 48.50869629 44.4644043 49.01739258 43.67333984 49.54150391 C34.56675807 55.54969847 25.34956455 61.35841639 15.9296875 66.86328125 C13.84848951 68.08925011 11.78437479 69.34174361 9.71875 70.59375 C8.29230828 71.43858427 6.86523995 72.28236156 5.4375 73.125 C4.78257568 73.52799316 4.12765137 73.93098633 3.45288086 74.34619141 C0.61858852 75.99073118 -1.56127358 76.98861229 -4.859375 77.07421875 C-9.47140634 75.49672047 -13.49841695 73.15802433 -17.6875 70.6875 C-18.60942139 70.15133057 -19.53134277 69.61516113 -20.48120117 69.06274414 C-34.17563303 61.04143534 -47.49503811 52.5006207 -60.5078125 43.41796875 C-64.13948272 40.88564152 -67.84565648 38.47763762 -71.59375 36.12109375 C-72.0578125 35.75113281 -72.521875 35.38117188 -73 35 C-73 34.34 -73 33.68 -73 33 C-72.36425049 32.71503662 -71.72850098 32.43007324 -71.07348633 32.13647461 C-57.75138253 26.13921442 -44.59818265 19.9052126 -31.625 13.1875 C-31.02869781 12.87988739 -30.43239563 12.57227478 -29.81802368 12.25534058 C-22.58245654 8.51559661 -15.57190574 4.60948209 -8.73193359 0.1809082 C-5.31283861 -1.29703303 -3.55064654 -0.98787544 0 0 Z " fill="#A2E075" transform="translate(260,187)"/>
<path d="M0 0 C2.22592824 1.47896515 4.34809106 3.0257708 6.45483398 4.67114258 C7.31286621 5.33573486 8.17089844 6.00032715 9.05493164 6.68505859 C9.9642041 7.39202881 10.87347656 8.09899902 11.81030273 8.82739258 C23.17941363 17.57940019 34.84398395 25.51954889 47.11889648 32.95239258 C48.04895508 33.63301758 48.04895508 33.63301758 48.99780273 34.32739258 C48.99780273 34.98739258 48.99780273 35.64739258 48.99780273 36.32739258 C31.58576315 45.92018686 14.01438488 54.91394537 -4.00219727 63.32739258 C-5.22688721 63.9091626 -5.22688721 63.9091626 -6.47631836 64.50268555 C-8.45663395 65.44105454 -10.44458562 66.35852002 -12.43969727 67.26489258 C-13.4490332 67.72766602 -14.45836914 68.19043945 -15.49829102 68.66723633 C-18.00219727 69.32739258 -18.00219727 69.32739258 -20.04125977 68.70239258 C-22.43366906 67.02484662 -24.69219877 65.25886501 -26.93969727 63.38989258 C-27.90391602 62.5880957 -28.86813477 61.78629883 -29.86157227 60.96020508 C-30.37139648 60.53255859 -30.8812207 60.10491211 -31.40649414 59.66430664 C-33.04282618 58.29335281 -34.68630359 56.93130218 -36.33032227 55.56958008 C-41.97982368 50.86521435 -47.43387371 46.11856719 -52.51391602 40.78833008 C-53.95726392 39.22176808 -53.95726392 39.22176808 -56.00219727 38.32739258 C-56.00219727 35.32739258 -56.00219727 35.32739258 -54.63891602 33.81958008 C-53.99567383 33.2859082 -53.35243164 32.75223633 -52.68969727 32.20239258 C-51.58561523 31.28200195 -51.58561523 31.28200195 -50.45922852 30.34301758 C-49.6484082 29.67786133 -48.83758789 29.01270508 -48.00219727 28.32739258 C-47.18106445 27.62098633 -46.35993164 26.91458008 -45.51391602 26.18676758 C-35.12750134 17.38524285 -23.80832632 10.59926476 -11.87719727 4.13989258 C-10.96405762 3.63345215 -10.05091797 3.12701172 -9.11010742 2.60522461 C-8.24691895 2.14873535 -7.38373047 1.69224609 -6.49438477 1.22192383 C-5.3397876 0.60087769 -5.3397876 0.60087769 -4.16186523 -0.03271484 C-2.00219727 -0.67260742 -2.00219727 -0.67260742 0 0 Z " fill="#A2E075" transform="translate(192.002197265625,140.672607421875)"/>
<path d="M0 0 C3.74760994 1.15025652 7.18048546 2.68194326 10.65625 4.46875 C11.35186035 4.82259766 12.0474707 5.17644531 12.76416016 5.54101562 C23.69297032 11.21019628 33.79729493 17.95333171 43.15625 25.96875 C44.08050781 26.75894531 45.00476563 27.54914063 45.95703125 28.36328125 C53.01393975 34.54181924 53.01393975 34.54181924 54.15625 37.96875 C53.72957031 38.33484375 53.30289063 38.7009375 52.86328125 39.078125 C49.00867027 42.41613863 45.22764536 45.8191531 41.50048828 49.2980957 C35.25258319 55.12707995 28.87748166 60.68377486 22.15625 65.96875 C21.58003906 66.60683594 21.00382812 67.24492187 20.41015625 67.90234375 C17.65044831 69.20806345 16.99843536 68.8833642 14.1484375 67.98828125 C8.42132571 65.79012562 2.84160649 63.24242296 -2.71875 60.65625 C-4.39287964 59.88087891 -4.39287964 59.88087891 -6.10083008 59.08984375 C-21.28179706 51.98318418 -36.36537511 44.41964693 -50.84375 35.96875 C-50.84375 35.30875 -50.84375 34.64875 -50.84375 33.96875 C-48.43454255 32.3424594 -46.02511614 30.82992023 -43.53125 29.34375 C-36.71664955 25.18176266 -30.22069328 20.78121653 -23.84375 15.96875 C-22.49263215 14.96034146 -21.14103312 13.95257745 -19.7890625 12.9453125 C-17.00548022 10.8676839 -14.22275089 8.78896192 -11.4453125 6.703125 C-10.82172852 6.23970703 -10.19814453 5.77628906 -9.55566406 5.29882812 C-7.64041207 3.85148635 -7.64041207 3.85148635 -5.2421875 1.546875 C-2.84375 -0.03125 -2.84375 -0.03125 0 0 Z " fill="#A2E075" transform="translate(321.84375,141.03125)"/>
<path d="M0 0 C0.96744141 0.59321045 1.93488281 1.1864209 2.93164062 1.79760742 C3.97384766 2.43802979 5.01605469 3.07845215 6.08984375 3.73828125 C29.03865701 17.65344172 52.99436327 31.25478164 78.02734375 41.05078125 C75.24115739 43.83696761 71.93778167 44.56031046 68.265625 45.73046875 C67.48277634 45.9845047 66.69992767 46.23854065 65.89335632 46.50027466 C64.2272931 47.03940537 62.56025291 47.5755247 60.89233398 48.10888672 C58.39255095 48.90891293 55.89629235 49.71920764 53.40039062 50.53125 C45.84867079 52.9751205 38.27597237 55.35300898 30.6328125 57.49609375 C28.89294067 57.98746826 28.89294067 57.98746826 27.11791992 58.48876953 C21.14114007 59.57562846 17.20962868 57.29617834 12.21484375 54.23828125 C11.25155151 53.65626953 11.25155151 53.65626953 10.26879883 53.0625 C3.60184825 48.94242915 -2.60334248 44.23842386 -8.8046875 39.45703125 C-13.33044977 36.01946089 -15.31947591 35.95331262 -20.97265625 36.05078125 C-25.47178303 36.05078125 -26.09792259 35.64583078 -29.28515625 32.73828125 C-31.4375 30.51171875 -31.4375 30.51171875 -32.97265625 28.05078125 C-32.9140625 25.52734375 -32.9140625 25.52734375 -32.34765625 22.86328125 C-31.57447351 18.84498847 -31.86369524 16.79028966 -34.1015625 13.45703125 C-36.56338193 10.17710989 -39.22242292 7.09102161 -41.97265625 4.05078125 C-38.26254798 0.34067298 -32.29983716 -0.02860242 -27.27905273 -1.20068359 C-25.17463111 -1.6958131 -23.07691512 -2.21439579 -20.97851562 -2.734375 C-19.63706368 -3.05224046 -18.29527601 -3.36869307 -16.953125 -3.68359375 C-15.12624146 -4.12010254 -15.12624146 -4.12010254 -13.26245117 -4.56542969 C-7.85277414 -5.19652522 -4.48180009 -2.77783366 0 0 Z " fill="#A2E074" transform="translate(156.97265625,418.94921875)"/>
<path d="M0 0 C2.8924228 0.66525197 5.79022034 1.30390673 8.68823242 1.94433594 C13.13260326 2.93236767 17.56650764 3.96441382 22 5 C17.53045276 17.94547621 2.51410989 31.55116169 -8 40 C-8.9075 40.74507813 -9.815 41.49015625 -10.75 42.2578125 C-17.07595568 47.30276215 -23.61609157 51.80800746 -30.5 56.0625 C-31.26554199 56.53977539 -32.03108398 57.01705078 -32.81982422 57.50878906 C-33.54959473 57.95061523 -34.27936523 58.39244141 -35.03125 58.84765625 C-35.67642578 59.23961182 -36.32160156 59.63156738 -36.98632812 60.03540039 C-40.98287258 61.94984597 -44.20526609 62.23781843 -48.46484375 61.13671875 C-49.33351074 60.9140332 -50.20217773 60.69134766 -51.09716797 60.46191406 C-52.03447754 60.20635742 -52.97178711 59.95080078 -53.9375 59.6875 C-54.9186377 59.42549805 -55.89977539 59.16349609 -56.91064453 58.89355469 C-65.8187357 56.44841253 -74.60433542 53.64272851 -83.375 50.75 C-84.04796112 50.53008392 -84.72092224 50.31016785 -85.41427612 50.08358765 C-87.32857991 49.45516626 -89.23862022 48.81380209 -91.1484375 48.171875 C-92.25364746 47.8015918 -93.35885742 47.43130859 -94.49755859 47.04980469 C-97 46 -97 46 -98 44 C-97.28271729 43.67427002 -96.56543457 43.34854004 -95.82641602 43.01293945 C-74.43990571 33.2704791 -53.38361465 23.0817241 -33.125 11.125 C-32.20750977 10.58415771 -31.29001953 10.04331543 -30.34472656 9.48608398 C-26.67082226 7.29430466 -23.04987749 5.10477929 -19.609375 2.55859375 C-12.38678995 -2.71389334 -8.44993892 -2.30853389 0 0 Z " fill="#A2DF74" transform="translate(375,416)"/>
<path d="M0 0 C0.18175781 0.83144531 0.36351562 1.66289062 0.55078125 2.51953125 C0.80214844 3.60621094 1.05351562 4.69289063 1.3125 5.8125 C1.55613281 6.89144531 1.79976563 7.97039062 2.05078125 9.08203125 C2.99217945 11.97595905 3.58852132 13.21550578 6 15 C8.60611077 15.72197162 8.60611077 15.72197162 11 16 C13.69518717 26.82887701 13.69518717 26.82887701 13 31 C10.5625 32.75 10.5625 32.75 8 34 C6.55037817 36.89924366 6.77873519 39.52300355 6.68359375 42.7578125 C6.6524221 43.75238968 6.6524221 43.75238968 6.62062073 44.76705933 C6.55520769 46.88626694 6.49627895 49.005599 6.4375 51.125 C6.39430691 52.56121081 6.35069236 53.99740902 6.30664062 55.43359375 C6.19953501 58.95559594 6.09824425 62.47773825 6 66 C-22.18356221 60.77365261 -22.18356221 60.77365261 -36 57 C-37.25296875 56.6596875 -38.5059375 56.319375 -39.796875 55.96875 C-45.98828483 54.24455992 -52.03191269 52.38723492 -58 50 C-54.8122632 46.73256978 -51.56039258 43.72982698 -48 40.875 C-38.93984613 33.53420238 -30.03550207 26.03227461 -21.40625 18.1875 C-18.88976263 15.89978421 -16.35100054 13.63824144 -13.8125 11.375 C-10.18078247 8.12075233 -6.72089524 4.76181442 -3.375 1.21484375 C-2 0 -2 0 0 0 Z " fill="#A2DF74" transform="translate(426,261)"/>
<path d="M0 0 C3.93214301 1.58939426 6.33020346 4.16342502 9.25 7.1875 C13.66328591 11.69242633 18.2037084 15.90951719 23 20 C24.11311485 20.97526781 25.22497604 21.95196739 26.3359375 22.9296875 C33.67959077 29.3752794 41.1450392 35.59045581 48.87890625 41.5625 C51.97677433 43.9818613 54.99381367 46.46847467 58 49 C55.39846047 51.60153953 53.23575456 51.9198525 49.6875 52.875 C45.04898036 54.13380008 40.46507673 55.48139197 35.8828125 56.93359375 C29.05443407 59.04642582 22.16943063 60.67140113 15.1875 62.1875 C14.02541016 62.44724609 12.86332031 62.70699219 11.66601562 62.97460938 C5.78557905 64.26837228 -0.00889588 65.38836206 -6 66 C-6.42921637 43.49145334 -5.82921341 21.91122769 0 0 Z " fill="#7CD33D" transform="translate(86,261)"/>
<path d="M0 0 C-2.37499878 2.44266998 -4.72861141 4.66893522 -7.484375 6.671875 C-8.49914917 7.41026611 -8.49914917 7.41026611 -9.53442383 8.16357422 C-13.67590763 11.12901353 -17.82831341 14.07714384 -22 17 C-23.02625488 17.7209082 -24.05250977 18.44181641 -25.10986328 19.18457031 C-28.33130134 21.43389292 -31.56890639 23.65777278 -34.8125 25.875 C-35.84407227 26.59526367 -36.87564453 27.31552734 -37.93847656 28.05761719 C-38.91397461 28.71665039 -39.88947266 29.37568359 -40.89453125 30.0546875 C-41.75925049 30.64749512 -42.62396973 31.24030273 -43.51489258 31.85107422 C-46.62846636 33.29055533 -47.79193601 33.14600134 -51 32 C-53.76049805 30.44042969 -53.76049805 30.44042969 -56.76171875 28.421875 C-57.30594482 28.0584903 -57.8501709 27.69510559 -58.41088867 27.32070923 C-60.17547609 26.13873017 -61.93161597 24.94486182 -63.6875 23.75 C-64.89860602 22.93405361 -66.10995189 22.11846313 -67.3215332 21.30322266 C-77.03361404 14.74633188 -86.57968619 7.96980081 -96 1 C-95.67 0.34 -95.34 -0.32 -95 -1 C-92.2025195 -1.7937177 -89.46509048 -2.46406351 -86.625 -3.0625 C-85.81023193 -3.23950439 -84.99546387 -3.41650879 -84.15600586 -3.59887695 C-78.80541568 -4.72411746 -73.53362449 -5.52476235 -68.06640625 -5.82421875 C-44.4127485 -7.83634465 -23.03710131 -6.53755578 0 0 Z " fill="#A1DE74" transform="translate(304,134)"/>
<path d="M0 0 C2.87715508 3.49872311 5.43582782 7.1008842 7.9375 10.875 C19.14798919 27.37508007 33.18695789 40.98760189 49 53 C49.71542969 53.55945313 50.43085938 54.11890625 51.16796875 54.6953125 C53.03782212 56.02693516 54.92054832 57.03454029 57 58 C54.60743751 58.70121643 52.21209511 59.38614901 49.8125 60.0625 C49.13896484 60.26166016 48.46542969 60.46082031 47.77148438 60.66601562 C41.98454469 62.27506715 39.08077552 62.06699938 33.79296875 59.35546875 C32.58504915 58.6430499 31.38351793 57.91972367 30.1875 57.1875 C29.22420776 56.60548828 29.22420776 56.60548828 28.24145508 56.01171875 C21.5745045 51.8916479 15.36931377 47.18764261 9.16796875 42.40625 C4.64220648 38.96867964 2.65318034 38.90253137 -3 39 C-7.49912678 39 -8.12526634 38.59504953 -11.3125 35.6875 C-13.46484375 33.4609375 -13.46484375 33.4609375 -15 31 C-14.94140625 28.4765625 -14.94140625 28.4765625 -14.375 25.8125 C-13.60181726 21.79420722 -13.89103899 19.73950841 -16.12890625 16.40625 C-18.59072568 13.12632864 -21.24976667 10.04024036 -24 7 C-21.61032653 4.61032653 -20.25917774 4.42441813 -16.9921875 3.7109375 C-16.00605469 3.49179687 -15.01992187 3.27265625 -14.00390625 3.046875 C-12.97136719 2.82515625 -11.93882813 2.6034375 -10.875 2.375 C-9.83472656 2.14554687 -8.79445312 1.91609375 -7.72265625 1.6796875 C-5.14980773 1.11318874 -2.57564993 0.55359707 0 0 Z " fill="#7DD43D" transform="translate(139,416)"/>
<path d="M0 0 C0.87156738 0.29310059 1.74313477 0.58620117 2.64111328 0.88818359 C3.56263184 1.22027832 4.48415039 1.55237305 5.43359375 1.89453125 C6.8410083 2.39073975 6.8410083 2.39073975 8.27685547 2.89697266 C11.31503459 3.98250612 14.34333602 5.09278429 17.37109375 6.20703125 C27.97289946 10.07150686 38.63815906 13.61343966 49.43359375 16.89453125 C38.02706333 28.30106167 10.12717541 26.19805812 -4.69140625 26.26953125 C-5.88804398 26.28131409 -5.88804398 26.28131409 -7.1088562 26.29333496 C-23.40358735 26.41800805 -40.21619921 24.75465666 -55.56640625 18.89453125 C-55.89640625 18.23453125 -56.22640625 17.57453125 -56.56640625 16.89453125 C-55.98868973 16.69852325 -55.41097321 16.50251526 -54.81575012 16.30056763 C-48.79678111 14.25815272 -42.77845548 12.21385058 -36.76049805 10.16845703 C-34.51521955 9.40560376 -32.26977807 8.64322999 -30.02416992 7.88134766 C-26.79432785 6.7854446 -23.56507798 5.68781209 -20.3359375 4.58984375 C-19.3336763 4.25018585 -18.3314151 3.91052795 -17.29878235 3.56057739 C-16.35818466 3.24039642 -15.41758698 2.92021545 -14.44848633 2.59033203 C-13.62463943 2.31053497 -12.80079254 2.03073792 -11.95198059 1.74246216 C-10.24916535 1.13721182 -8.5670437 0.47240252 -6.90228271 -0.23078918 C-4.0271235 -1.30740563 -2.86981679 -0.98895409 0 0 Z " fill="#A1DE74" transform="translate(259.56640625,470.10546875)"/>
<path d="M0 0 C4.02875913 1.34291971 5.54826795 3.99088471 7.9375 7.3125 C8.4126001 7.96677979 8.8877002 8.62105957 9.37719727 9.29516602 C30 38.25448884 30 38.25448884 30 47 C21.85473321 45.60019658 14.06705751 43.34313785 6.1875 40.875 C5.55969635 40.67979767 4.9318927 40.48459534 4.2850647 40.28347778 C-7.33013634 36.66432989 -18.70855977 32.52891646 -30 28 C-26.9238958 24.14527406 -23.97923319 20.9731191 -20.0625 17.9375 C-13.03115201 12.32779068 -6.53578963 6.17322028 0 0 Z " fill="#A0DD73" transform="translate(386,189)"/>
<path d="M0 0 C4.03064629 1.63352332 6.84656289 4.47959645 9.9375 7.4375 C15.09338764 12.2984267 20.3792011 16.94308376 25.86108398 21.43334961 C28.37436553 23.51467936 30.17195147 25.2579272 32 28 C-20.56494947 47 -20.56494947 47 -28 47 C-26.08408486 40.4072568 -23.43579511 34.70687926 -19.9375 28.8125 C-19.45724365 27.99313965 -18.9769873 27.1737793 -18.48217773 26.32958984 C-12.97190489 17.06424166 -6.78397748 8.3756624 0 0 Z " fill="#7CD33D" transform="translate(124,189)"/>
<path d="M0 0 C2.63137747 1.78448565 4.71066383 3.98088517 6.89111328 6.2824707 C5.35003906 7.42522461 5.35003906 7.42522461 3.77783203 8.59106445 C-13.28050026 21.28001881 -28.49554314 34.07250733 -41.10888672 51.2824707 C-42.74838178 49.88206867 -44.38667846 48.48024041 -46.01904297 47.0715332 C-47.45268603 45.84422755 -48.89876079 44.63133973 -50.35498047 43.4309082 C-51.43972656 42.52211914 -51.43972656 42.52211914 -52.54638672 41.5949707 C-53.22572266 41.03422852 -53.90505859 40.47348633 -54.60498047 39.89575195 C-56.10888672 38.2824707 -56.10888672 38.2824707 -56.10888672 35.2824707 C-54.74560547 33.7746582 -54.74560547 33.7746582 -52.79638672 32.1574707 C-51.69230469 31.23708008 -51.69230469 31.23708008 -50.56591797 30.2980957 C-49.75509766 29.63293945 -48.94427734 28.9677832 -48.10888672 28.2824707 C-47.28775391 27.57606445 -46.46662109 26.8696582 -45.62060547 26.1418457 C-35.2341908 17.34032097 -23.91501577 10.55434289 -11.98388672 4.0949707 C-11.07074707 3.58853027 -10.15760742 3.08208984 -9.21679688 2.56030273 C-8.3536084 2.10381348 -7.49041992 1.64732422 -6.60107422 1.17700195 C-5.44647705 0.55595581 -5.44647705 0.55595581 -4.26855469 -0.07763672 C-2.10888672 -0.7175293 -2.10888672 -0.7175293 0 0 Z " fill="#7CD33D" transform="translate(192.10888671875,140.717529296875)"/>
<path d="M0 0 C4.10835438 1.68753921 7.1564527 4.59490131 10.4375 7.5 C15.79985443 12.18663084 21.28032466 16.63310372 26.99975586 20.87695312 C30.89937646 23.79875291 30.89937646 23.79875291 32 26 C25.68812452 28.5140521 19.33441246 30.53986277 12.75 32.1875 C12.08935547 32.35411133 11.42871094 32.52072266 10.74804688 32.69238281 C6.50951571 33.72549827 2.32007135 34.44600121 -2 35 C-2.02918634 30.64584756 -2.04686145 26.29172052 -2.0625 21.9375 C-2.07087891 20.70837891 -2.07925781 19.47925781 -2.08789062 18.21289062 C-2.11974442 6.39513221 -2.11974442 6.39513221 -1 1 C-0.67 0.67 -0.34 0.34 0 0 Z " fill="#A1DE74" transform="translate(112,285)"/>
<path d="M0 0 C0.21273615 2.41607484 0.32123445 4.76693577 0.375 7.1875 C0.6557466 14.11284204 1.92085955 20.21012867 4.01171875 26.84765625 C5.26971578 30.86031872 6.14853067 34.88456488 7 39 C2.36034655 36.4333832 -1.60460444 33.22563712 -5.6875 29.875 C-6.39648438 29.2960498 -7.10546875 28.71709961 -7.8359375 28.12060547 C-12.60484362 24.20406531 -17.25568957 20.18291854 -21.8046875 16.01171875 C-25.14951898 12.94661517 -28.57523602 9.97514413 -32 7 C-29.01199962 5.00799975 -27.26593876 4.46649136 -23.81640625 3.74609375 C-22.80642578 3.53146484 -21.79644531 3.31683594 -20.75585938 3.09570312 C-19.70205078 2.87849609 -18.64824219 2.66128906 -17.5625 2.4375 C-15.48038556 1.99909285 -13.39835105 1.56030581 -11.31640625 1.12109375 C-10.39287354 0.9295874 -9.46934082 0.73808105 -8.51782227 0.54077148 C-6.93113908 0.19998769 -5.35279141 -0.1854792 -3.79272461 -0.63256836 C-2 -1 -2 -1 0 0 Z " fill="#7BD13D" transform="translate(113,336)"/>
<path d="M0 0 C-1.92158389 7.0270513 -4.39283433 13.57462848 -7.4375 20.1875 C-7.81970703 21.03763672 -8.20191406 21.88777344 -8.59570312 22.76367188 C-10.8283822 27.67253333 -13.24575956 32.36359069 -16 37 C-20.92969806 36.33037737 -25.80250735 35.51578977 -30.6875 34.5625 C-31.97011719 34.31628906 -33.25273437 34.07007813 -34.57421875 33.81640625 C-37.43483529 33.13468577 -39.4466533 32.35678177 -42 31 C-41.47680176 30.61779297 -40.95360352 30.23558594 -40.41455078 29.84179688 C-30.09200799 22.29237284 -19.8485064 14.72210732 -10.03125 6.51953125 C-8.53078125 5.27236328 -8.53078125 5.27236328 -7 4 C-6.0925 3.236875 -5.185 2.47375 -4.25 1.6875 C-2 0 -2 0 0 0 Z " fill="#9FDB72" transform="translate(423,371)"/>
<path d="M0 0 C5.2553112 3.87564139 10.34981618 7.89470579 15.375 12.0625 C22.17778252 17.66267116 29.20992443 22.87444664 36.41162109 27.94946289 C37.14203613 28.46629639 37.87245117 28.98312988 38.625 29.515625 C39.60339844 30.20060059 39.60339844 30.20060059 40.6015625 30.89941406 C41.06304687 31.26260742 41.52453125 31.62580078 42 32 C42 32.33 42 32.66 42 33 C38.23027682 33.83840998 34.4590511 34.6698549 30.6875 35.5 C29.61564453 35.73847656 28.54378906 35.97695313 27.43945312 36.22265625 C25.89741211 36.56103516 25.89741211 36.56103516 24.32421875 36.90625 C23.37635498 37.11572266 22.42849121 37.32519531 21.4519043 37.54101562 C19 38 19 38 16 38 C14.07439159 34.06681348 12.16120868 30.12770115 10.25 26.1875 C9.71117188 25.08728516 9.17234375 23.98707031 8.6171875 22.85351562 C0 5.04115854 0 5.04115854 0 0 Z " fill="#7AD03C" transform="translate(89,370)"/>
<path d="M0 0 C3.89271432 2.167295 7.03709814 4.67413029 10.3125 7.6875 C11.19550781 8.49574219 12.07851562 9.30398437 12.98828125 10.13671875 C13.65214844 10.75160156 14.31601563 11.36648437 15 12 C11.42731216 15.57268784 6.20799711 16.56434576 1.5 18.1875 C0.42878906 18.56841797 -0.64242187 18.94933594 -1.74609375 19.34179688 C-3.27943359 19.87450195 -3.27943359 19.87450195 -4.84375 20.41796875 C-6.25430664 20.90946411 -6.25430664 20.90946411 -7.69335938 21.41088867 C-10 22 -10 22 -12 21 C-10.37709629 18.06133716 -8.7513153 15.12427597 -7.125 12.1875 C-6.43470703 10.93743164 -6.43470703 10.93743164 -5.73046875 9.66210938 C-5.28574219 8.85966797 -4.84101563 8.05722656 -4.3828125 7.23046875 C-3.97434082 6.49207764 -3.56586914 5.75368652 -3.14501953 4.99291992 C-2.16513154 3.28741338 -1.09107329 1.63660994 0 0 Z " fill="#A0DD72" transform="translate(141,204)"/>
<path d="M0 0 C-1.88619822 7.03645577 -3.86927695 14.03359344 -6 21 C-11.39882424 16.40525596 -16.71333087 11.72323727 -22 7 C-19.29066863 4.29066863 -16.74613439 3.93728931 -13.0625 2.9375 C-2.34339623 0 -2.34339623 0 0 0 Z " fill="#7AD03C" transform="translate(121,245)"/>
<path d="M0 0 C0 0.66 0 1.32 0 2 C0.85851562 2.27585937 1.71703125 2.55171875 2.6015625 2.8359375 C5.92578037 3.97457764 9.13854627 5.25849731 12.375 6.625 C13.96441406 7.29402344 13.96441406 7.29402344 15.5859375 7.9765625 C16.38257813 8.31429688 17.17921875 8.65203125 18 9 C18 9.66 18 10.32 18 11 C11.45581624 10.41287061 5.34218035 9.2593548 -1 7.5625 C-1.85722656 7.34529297 -2.71445313 7.12808594 -3.59765625 6.90429688 C-4.41105469 6.68966797 -5.22445312 6.47503906 -6.0625 6.25390625 C-6.79597656 6.06127197 -7.52945313 5.8686377 -8.28515625 5.67016602 C-10 5 -10 5 -11 3 C-9.54293274 2.49632243 -8.08429904 1.99717444 -6.625 1.5 C-5.81289062 1.2215625 -5.00078125 0.943125 -4.1640625 0.65625 C-2 0 -2 0 0 0 Z " fill="#74C43A" transform="translate(214,484)"/>
<path d="M0 0 C-2.55751672 2.55751672 -4.98568971 3.25090587 -8.375 4.5 C-12.89486346 6.15112056 -12.89486346 6.15112056 -17.25390625 8.16796875 C-19.81898887 9.39025644 -21.3559297 8.88135677 -24 8 C-25.8125 6.4375 -25.8125 6.4375 -27 5 C-24.67141736 4.31200968 -22.33968931 3.6488214 -20 3 C-19.05769531 2.73574219 -18.11539063 2.47148437 -17.14453125 2.19921875 C-11.2441938 0.62130848 -6.106009 -0.35226975 0 0 Z " fill="#77C93B" transform="translate(235,129)"/>
</svg>
