<svg version="1.1" id="Layer_1" xmlns="http://www.w3.org/2000/svg" xmlns:xlink="http://www.w3.org/1999/xlink" x="0px" y="0px"
	 width="100%" viewBox="0 0 512 512" enable-background="new 0 0 512 512" xml:space="preserve">
<path fill="#FFFFFF" opacity="1.000000" stroke="none" 
	d="
M513.000000,160.000000 
	C513.000000,277.625092 513.000000,395.250153 513.000000,512.875244 
	C512.874939,512.916870 512.749939,512.994873 512.624878,512.994873 
	C342.185120,513.000000 171.745377,513.000000 1.000000,513.000000 
	C1.000000,395.643524 1.000000,278.286774 1.400483,160.621918 
	C4.196239,172.991943 6.217753,185.754700 9.065135,198.330460 
	C14.869235,223.964951 26.210508,247.327667 40.073391,269.440948 
	C51.877563,288.270294 65.607895,305.654022 82.666763,320.098236 
	C92.341217,328.289825 102.085243,336.452545 112.309570,343.928528 
	C126.494484,354.300476 142.233795,362.037628 158.304474,369.074432 
	C163.180267,371.209381 166.868210,370.226196 170.369019,365.909485 
	C175.135925,367.336395 179.509628,368.694794 183.935150,370.408142 
	C183.018341,375.487427 184.881287,378.411102 189.642151,379.726990 
	C209.909637,385.328918 230.703827,388.377960 251.664505,388.765411 
	C265.379517,389.018921 279.223450,387.648743 292.848846,385.812561 
	C305.099670,384.161621 317.296967,381.483429 329.222168,378.188110 
	C348.915131,372.746368 367.920807,365.177490 385.173065,354.156219 
	C399.299591,345.131744 413.091583,335.441132 426.173798,324.973358 
	C435.246338,317.713989 443.318024,309.032593 450.998047,300.252747 
	C458.552704,291.616211 465.495605,282.354645 471.908356,272.829681 
	C482.236938,257.488434 490.546661,241.039078 497.095795,223.680374 
	C502.838623,208.458923 507.374847,192.956787 510.015289,176.900085 
	C510.943481,171.255768 512.001343,165.632751 513.000000,160.000000 
z"/>
<path fill="#FFFFFF" opacity="1.000000" stroke="none" 
	d="
M0.999998,142.000000 
	C1.000000,95.025894 1.000000,48.051781 1.000000,1.077672 
	C1.140684,1.051781 1.281368,1.003196 1.422053,1.003194 
	C171.828125,0.999981 342.234192,1.000000 513.000000,1.000000 
	C513.000000,47.686947 513.000000,94.374817 512.649780,141.434433 
	C507.922211,129.538162 498.608154,124.984657 486.260376,124.987465 
	C398.339111,125.007454 310.417847,124.998131 222.496582,124.998177 
	C221.330963,124.998177 220.155792,124.901863 219.001312,125.015434 
	C213.120605,125.593956 210.902542,127.558784 209.373215,133.031311 
	C204.356064,133.039673 199.791794,133.056610 195.122742,132.686615 
	C194.392899,127.100502 191.564346,125.007202 184.941208,125.005646 
	C131.969376,124.993217 78.996704,124.866219 26.027092,125.209091 
	C20.880281,125.242409 15.091486,127.228287 10.806234,130.104156 
	C6.717758,132.847961 4.205285,137.940155 0.999998,142.000000 
z"/>
<path fill="#010100" opacity="1.000000" stroke="none" 
	d="
M209.826080,133.039871 
	C210.902542,127.558784 213.120605,125.593956 219.001312,125.015434 
	C220.155792,124.901863 221.330963,124.998177 222.496582,124.998177 
	C310.417847,124.998131 398.339111,125.007454 486.260376,124.987465 
	C498.608154,124.984657 507.922211,129.538162 512.649780,141.903091 
	C513.000000,147.688034 513.000000,153.376083 513.000000,159.532059 
	C512.001343,165.632751 510.943481,171.255768 510.015289,176.900085 
	C507.374847,192.956787 502.838623,208.458923 497.095795,223.680374 
	C490.546661,241.039078 482.236938,257.488434 471.908356,272.829681 
	C465.495605,282.354645 458.552704,291.616211 450.998047,300.252747 
	C443.318024,309.032593 435.246338,317.713989 426.173798,324.973358 
	C413.091583,335.441132 399.299591,345.131744 385.173065,354.156219 
	C367.920807,365.177490 348.915131,372.746368 329.222168,378.188110 
	C317.296967,381.483429 305.099670,384.161621 292.848846,385.812561 
	C279.223450,387.648743 265.379517,389.018921 251.664505,388.765411 
	C230.703827,388.377960 209.909637,385.328918 189.642151,379.726990 
	C184.881287,378.411102 183.018341,375.487427 184.099823,370.096008 
	C186.483353,364.900726 189.898590,363.773621 194.917618,364.712585 
	C208.906830,367.329620 222.985199,369.470123 237.464111,371.872162 
	C255.057587,373.989502 272.212341,373.162872 289.200897,370.728699 
	C335.084839,364.154236 376.120544,346.227692 411.582855,316.261200 
	C462.741302,273.031158 491.290985,217.845947 497.724762,151.204666 
	C498.248077,145.784683 495.298157,141.445587 490.269989,141.204041 
	C482.332916,140.822769 474.364105,141.102600 466.795044,141.102600 
	C464.815094,153.826645 463.613403,166.270645 460.870941,178.365250 
	C448.246613,234.039917 417.242981,276.990021 369.342651,307.700287 
	C340.126434,326.431610 308.071136,337.156433 273.419556,340.211731 
	C244.816177,342.733765 217.019363,339.398682 189.822113,330.230469 
	C162.584625,321.048676 138.679214,306.336090 117.242653,287.384247 
	C112.840195,283.492096 112.414986,281.007263 115.498322,274.943115 
	C120.905952,271.019501 124.766441,273.690857 128.604004,277.086426 
	C149.276367,295.377655 172.567657,309.225159 199.090546,317.039734 
	C209.508209,320.109161 220.398392,321.574921 231.492859,323.851868 
	C340.332275,338.250427 446.580231,256.278229 450.469055,141.001373 
	C448.497620,141.001373 446.538147,141.001389 444.578674,141.001389 
	C370.254791,141.001389 295.930908,141.002563 221.607010,140.999649 
	C213.566498,140.999344 212.495300,140.264420 209.826080,133.039871 
z"/>
<path fill="#010100" opacity="1.000000" stroke="none" 
	d="
M0.999998,142.467941 
	C4.205285,137.940155 6.717758,132.847961 10.806234,130.104156 
	C15.091486,127.228287 20.880281,125.242409 26.027092,125.209091 
	C78.996704,124.866219 131.969376,124.993217 184.941208,125.005646 
	C191.564346,125.007202 194.392899,127.100502 195.030731,133.044281 
	C193.158554,139.748245 191.467606,140.980118 184.877090,140.994644 
	C154.934753,141.060654 124.992363,141.106857 94.581604,141.097107 
	C83.866562,141.034027 73.619911,141.034027 63.258976,141.034027 
	C64.203705,157.950775 66.852539,173.792587 71.668640,189.272919 
	C78.717194,211.928970 89.604279,232.560211 104.221077,251.220062 
	C107.506973,255.414841 109.221161,259.502167 104.759598,264.219910 
	C102.621132,264.911743 100.815422,265.479889 98.705826,265.887817 
	C96.594833,264.319092 94.414001,263.205170 93.036644,261.457886 
	C72.300491,235.152603 58.206917,205.702820 51.968937,172.717072 
	C50.006481,162.339828 48.945660,151.792099 47.431831,141.035797 
	C39.688335,141.035797 32.045521,140.834930 24.419279,141.103958 
	C19.023045,141.294327 15.775312,145.541351 16.278305,151.005203 
	C16.415195,152.492233 16.774244,153.958603 16.915827,155.445435 
	C20.547174,193.580154 32.959236,228.733826 53.591324,260.876953 
	C80.384010,302.617767 116.557961,333.564911 162.113846,353.420166 
	C169.676361,356.716248 170.166809,357.636719 169.975800,365.840973 
	C166.868210,370.226196 163.180267,371.209381 158.304474,369.074432 
	C142.233795,362.037628 126.494484,354.300476 112.309570,343.928528 
	C102.085243,336.452545 92.341217,328.289825 82.666763,320.098236 
	C65.607895,305.654022 51.877563,288.270294 40.073391,269.440948 
	C26.210508,247.327667 14.869235,223.964951 9.065135,198.330460 
	C6.217753,185.754700 4.196239,172.991943 1.400483,160.156906 
	C1.000000,154.311966 1.000000,148.623917 0.999998,142.467941 
z"/>
<path fill="#5DAB24" opacity="1.000000" stroke="none" 
	d="
M170.369019,365.909485 
	C170.166809,357.636719 169.676361,356.716248 162.113846,353.420166 
	C116.557961,333.564911 80.384010,302.617767 53.591324,260.876953 
	C32.959236,228.733826 20.547174,193.580154 16.915827,155.445435 
	C16.774244,153.958603 16.415195,152.492233 16.278305,151.005203 
	C15.775312,145.541351 19.023045,141.294327 24.419279,141.103958 
	C32.045521,140.834930 39.688335,141.035797 47.431831,141.035797 
	C48.945660,151.792099 50.006481,162.339828 51.968937,172.717072 
	C58.206917,205.702820 72.300491,235.152603 93.036644,261.457886 
	C94.414001,263.205170 96.594833,264.319092 98.702469,266.253967 
	C99.539543,267.959503 99.924416,269.240021 100.634895,270.302917 
	C117.011513,294.801880 137.298569,315.609802 161.043091,332.934814 
	C182.906448,348.887238 206.878845,360.880890 232.709488,369.105011 
	C234.276199,369.603821 235.594482,370.882812 237.028366,371.798828 
	C222.985199,369.470123 208.906830,367.329620 194.917618,364.712585 
	C189.898590,363.773621 186.483353,364.900726 184.047989,369.741058 
	C179.509628,368.694794 175.135925,367.336395 170.369019,365.909485 
z"/>
<path fill="#FE0C38" opacity="1.000000" stroke="none" 
	d="
M95.049995,141.160172 
	C124.992363,141.106857 154.934753,141.060654 184.877090,140.994644 
	C191.467606,140.980118 193.158554,139.748245 195.135483,133.431213 
	C199.791794,133.056610 204.356064,133.039673 209.373215,133.031311 
	C212.495300,140.264420 213.566498,140.999344 221.607010,140.999649 
	C295.930908,141.002563 370.254791,141.001389 444.578674,141.001389 
	C446.538147,141.001389 448.497620,141.001373 450.469055,141.001373 
	C446.580231,256.278229 340.332275,338.250427 231.415970,323.512024 
	C229.196320,322.200684 227.548340,321.100037 225.738358,320.451294 
	C201.176834,311.647705 179.452362,298.035370 160.265030,280.584656 
	C138.104034,260.429413 121.294029,236.261993 109.923546,208.518524 
	C106.941475,201.242401 105.314682,193.410843 103.379959,185.986389 
	C107.800163,189.515579 109.848778,189.412643 112.745598,185.683609 
	C116.776260,180.494995 116.656281,169.632187 112.512634,164.592194 
	C109.531784,160.966522 106.059677,160.788849 103.615669,164.863037 
	C101.809799,167.873444 101.231575,171.620316 99.802841,174.800232 
	C98.016182,163.427658 96.533089,152.293915 95.049995,141.160172 
M215.107254,174.601166 
	C214.692429,173.345108 214.618134,171.762756 213.792114,170.900742 
	C212.057632,169.090668 209.913315,166.401337 207.964966,166.424255 
	C205.998734,166.447433 203.313721,168.934769 202.263596,171.010361 
	C199.429031,176.612854 199.524780,182.670395 202.462250,188.226898 
	C203.488922,190.168991 206.030884,192.440979 207.920120,192.476517 
	C209.791733,192.511734 212.824631,190.255905 213.386078,188.408615 
	C214.643204,184.272430 214.681076,179.765671 215.107254,174.601166 
M278.949341,228.685974 
	C280.584930,228.121399 282.615784,227.989502 283.788483,226.918228 
	C289.210388,221.965103 289.146484,209.141602 283.895081,203.989838 
	C281.013824,201.163269 278.265930,201.491180 275.523193,204.988876 
	C270.476257,211.425034 271.834076,222.989120 278.949341,228.685974 
M333.101776,180.138901 
	C337.507874,185.804123 341.499176,185.906433 344.349670,180.144333 
	C347.308716,174.162827 347.340240,167.888504 344.132324,162.017258 
	C343.162811,160.242813 340.649109,158.140198 338.959167,158.236252 
	C336.972107,158.349182 334.363037,160.279373 333.337372,162.144089 
	C330.304901,167.657303 330.268768,173.573349 333.101776,180.138901 
M390.883942,212.332184 
	C389.674927,208.297256 389.064270,203.933792 387.081909,200.323502 
	C385.246521,196.980881 381.968903,197.215652 379.206360,200.152069 
	C374.347321,205.316910 374.387756,217.799881 379.323669,222.730713 
	C381.919250,225.323639 384.876648,225.725052 386.908020,222.611710 
	C388.736420,219.809418 389.551056,216.345657 390.883942,212.332184 
M334.424896,249.106277 
	C331.178375,247.693222 329.022858,249.250946 327.244812,251.769547 
	C323.808136,256.637634 323.743896,266.727325 327.101624,271.689026 
	C330.311890,276.432709 334.721741,276.224182 337.647705,271.190247 
	C341.512146,264.541901 340.405396,255.388779 334.424896,249.106277 
M213.107712,254.170639 
	C206.607391,257.753510 206.330566,271.268066 210.109085,276.815491 
	C213.210175,281.368317 217.567596,281.510529 220.321640,276.752136 
	C223.996765,270.402344 224.083954,263.644806 220.271057,257.405853 
	C219.178436,255.618057 216.057755,255.069733 213.107712,254.170639 
M156.421295,236.697815 
	C158.559509,231.549774 158.881638,226.208664 156.346451,221.300919 
	C155.151611,218.987823 152.281952,216.054550 150.218536,216.090897 
	C148.132477,216.127655 144.782272,219.217865 144.326706,221.448547 
	C143.373016,226.118301 143.330597,231.215469 144.177643,235.909058 
	C144.596085,238.227615 147.558151,241.164230 149.864258,241.703094 
	C151.523758,242.090897 154.001892,238.975464 156.421295,236.697815 
z"/>
<path fill="#6CC62A" opacity="1.000000" stroke="none" 
	d="
M237.464111,371.872131 
	C235.594482,370.882812 234.276199,369.603821 232.709488,369.105011 
	C206.878845,360.880890 182.906448,348.887238 161.043091,332.934814 
	C137.298569,315.609802 117.011513,294.801880 100.634895,270.302917 
	C99.924416,269.240021 99.539543,267.959503 99.006348,266.414215 
	C100.815422,265.479889 102.621132,264.911743 104.962929,264.467529 
	C108.720741,268.091125 111.942467,271.590759 115.164192,275.090363 
	C112.414986,281.007263 112.840195,283.492096 117.242653,287.384247 
	C138.679214,306.336090 162.584625,321.048676 189.822113,330.230469 
	C217.019363,339.398682 244.816177,342.733765 273.419556,340.211731 
	C308.071136,337.156433 340.126434,326.431610 369.342651,307.700287 
	C417.242981,276.990021 448.246613,234.039917 460.870941,178.365250 
	C463.613403,166.270645 464.815094,153.826645 466.795044,141.102600 
	C474.364105,141.102600 482.332916,140.822769 490.269989,141.204041 
	C495.298157,141.445587 498.248077,145.784683 497.724762,151.204666 
	C491.290985,217.845947 462.741302,273.031158 411.582855,316.261200 
	C376.120544,346.227692 335.084839,364.154236 289.200897,370.728699 
	C272.212341,373.162872 255.057587,373.989502 237.464111,371.872131 
z"/>
<path fill="#C60024" opacity="1.000000" stroke="none" 
	d="
M115.498322,274.943115 
	C111.942467,271.590759 108.720741,268.091125 105.295685,264.343872 
	C109.221161,259.502167 107.506973,255.414841 104.221077,251.220062 
	C89.604279,232.560211 78.717194,211.928970 71.668640,189.272919 
	C66.852539,173.792587 64.203705,157.950775 63.258976,141.034027 
	C73.619911,141.034027 83.866562,141.034027 94.581604,141.097107 
	C96.533089,152.293915 98.016182,163.427658 99.960022,175.140717 
	C100.956123,178.627335 101.491463,181.534637 102.115921,184.759613 
	C102.497482,185.384903 102.789925,185.692520 103.042992,185.962280 
	C103.003616,185.924408 103.065498,185.834366 103.065498,185.834366 
	C105.314682,193.410843 106.941475,201.242401 109.923546,208.518524 
	C121.294029,236.261993 138.104034,260.429413 160.265030,280.584656 
	C179.452362,298.035370 201.176834,311.647705 225.738358,320.451294 
	C227.548340,321.100037 229.196320,322.200684 230.996490,323.431122 
	C220.398392,321.574921 209.508209,320.109161 199.090546,317.039734 
	C172.567657,309.225159 149.276367,295.377655 128.604004,277.086426 
	C124.766441,273.690857 120.905952,271.019501 115.498322,274.943115 
z"/>
<path fill="#070002" opacity="1.000000" stroke="none" 
	d="
M215.161377,175.005493 
	C214.681076,179.765671 214.643204,184.272430 213.386078,188.408615 
	C212.824631,190.255905 209.791733,192.511734 207.920120,192.476517 
	C206.030884,192.440979 203.488922,190.168991 202.462250,188.226898 
	C199.524780,182.670395 199.429031,176.612854 202.263596,171.010361 
	C203.313721,168.934769 205.998734,166.447433 207.964966,166.424255 
	C209.913315,166.401337 212.057632,169.090668 213.792114,170.900742 
	C214.618134,171.762756 214.692429,173.345108 215.161377,175.005493 
z"/>
<path fill="#070002" opacity="1.000000" stroke="none" 
	d="
M278.609253,228.530945 
	C271.834076,222.989120 270.476257,211.425034 275.523193,204.988876 
	C278.265930,201.491180 281.013824,201.163269 283.895081,203.989838 
	C289.146484,209.141602 289.210388,221.965103 283.788483,226.918228 
	C282.615784,227.989502 280.584930,228.121399 278.609253,228.530945 
z"/>
<path fill="#060001" opacity="1.000000" stroke="none" 
	d="
M332.976471,179.773102 
	C330.268768,173.573349 330.304901,167.657303 333.337372,162.144089 
	C334.363037,160.279373 336.972107,158.349182 338.959167,158.236252 
	C340.649109,158.140198 343.162811,160.242813 344.132324,162.017258 
	C347.340240,167.888504 347.308716,174.162827 344.349670,180.144333 
	C341.499176,185.906433 337.507874,185.804123 332.976471,179.773102 
z"/>
<path fill="#060001" opacity="1.000000" stroke="none" 
	d="
M102.026802,184.441925 
	C101.491463,181.534637 100.956123,178.627335 100.263596,175.379547 
	C101.231575,171.620316 101.809799,167.873444 103.615669,164.863037 
	C106.059677,160.788849 109.531784,160.966522 112.512634,164.592194 
	C116.656281,169.632187 116.776260,180.494995 112.745598,185.683609 
	C109.848778,189.412643 107.800163,189.515579 103.379959,185.986389 
	C103.065498,185.834366 103.003616,185.924408 102.981529,185.636261 
	C102.648560,185.046051 102.337685,184.743988 102.026802,184.441925 
z"/>
<path fill="#060001" opacity="1.000000" stroke="none" 
	d="
M390.848389,212.752930 
	C389.551056,216.345657 388.736420,219.809418 386.908020,222.611710 
	C384.876648,225.725052 381.919250,225.323639 379.323669,222.730713 
	C374.387756,217.799881 374.347321,205.316910 379.206360,200.152069 
	C381.968903,197.215652 385.246521,196.980881 387.081909,200.323502 
	C389.064270,203.933792 389.674927,208.297256 390.848389,212.752930 
z"/>
<path fill="#060001" opacity="1.000000" stroke="none" 
	d="
M334.724731,249.301010 
	C340.405396,255.388779 341.512146,264.541901 337.647705,271.190247 
	C334.721741,276.224182 330.311890,276.432709 327.101624,271.689026 
	C323.743896,266.727325 323.808136,256.637634 327.244812,251.769547 
	C329.022858,249.250946 331.178375,247.693222 334.724731,249.301010 
z"/>
<path fill="#050001" opacity="1.000000" stroke="none" 
	d="
M213.487335,254.061859 
	C216.057755,255.069733 219.178436,255.618057 220.271057,257.405853 
	C224.083954,263.644806 223.996765,270.402344 220.321640,276.752136 
	C217.567596,281.510529 213.210175,281.368317 210.109085,276.815491 
	C206.330566,271.268066 206.607391,257.753510 213.487335,254.061859 
z"/>
<path fill="#060001" opacity="1.000000" stroke="none" 
	d="
M156.268066,237.060257 
	C154.001892,238.975464 151.523758,242.090897 149.864258,241.703094 
	C147.558151,241.164230 144.596085,238.227615 144.177643,235.909058 
	C143.330597,231.215469 143.373016,226.118301 144.326706,221.448547 
	C144.782272,219.217865 148.132477,216.127655 150.218536,216.090897 
	C152.281952,216.054550 155.151611,218.987823 156.346451,221.300919 
	C158.881638,226.208664 158.559509,231.549774 156.268066,237.060257 
z"/>
<path fill="#FE0C38" opacity="1.000000" stroke="none" 
	d="
M102.115921,184.759613 
	C102.337685,184.743988 102.648560,185.046051 103.020905,185.674133 
	C102.789925,185.692520 102.497482,185.384903 102.115921,184.759613 
z"/>
</svg>